<?xml version="1.0" encoding="utf-8" standalone="no"?>
<!DOCTYPE svg PUBLIC "-//W3C//DTD SVG 1.1//EN"
  "http://www.w3.org/Graphics/SVG/1.1/DTD/svg11.dtd">
<!-- Created with matplotlib (http://matplotlib.org/) -->
<svg height="1080pt" version="1.1" viewBox="0 0 1080 1080" width="1080pt" xmlns="http://www.w3.org/2000/svg" xmlns:xlink="http://www.w3.org/1999/xlink">
 <defs>
  <style type="text/css">
*{stroke-linecap:butt;stroke-linejoin:round;}
  </style>
 </defs>
 <g id="figure_1">
  <g id="patch_1">
   <path d="
M0 1080
L1080 1080
L1080 0
L0 0
z
" style="fill:#ffffff;"/>
  </g>
  <g id="axes_1">
   <g id="patch_2">
    <path d="
M135 317.25
L381.176 317.25
L381.176 108
L135 108
z
" style="fill:#eaeaf2;"/>
   </g>
   <g id="matplotlib.axis_1">
    <g id="xtick_1">
     <g id="line2d_1">
      <path clip-path="url(#p796c768e71)" d="
M135 317.25
L135 108" style="fill:none;stroke:#ffffff;stroke-linecap:round;"/>
     </g>
     <g id="line2d_2">
      <defs>
       <path d="
M0 0
L0 0" id="m219da94a98" style="stroke:#262626;"/>
      </defs>
      <g>
       <use style="fill:#262626;stroke:#262626;" x="135.0" xlink:href="#m219da94a98" y="317.25"/>
      </g>
     </g>
     <g id="line2d_3">
      <g>
       <use style="fill:#262626;stroke:#262626;" x="135.0" xlink:href="#m219da94a98" y="108.0"/>
      </g>
     </g>
     <g id="text_1">
      <!-- -0.2 -->
      <defs>
       <path d="
M19.1875 8.29688
L53.6094 8.29688
L53.6094 0
L7.32812 0
L7.32812 8.29688
Q12.9375 14.1094 22.625 23.8906
Q32.3281 33.6875 34.8125 36.5312
Q39.5469 41.8438 41.4219 45.5312
Q43.3125 49.2188 43.3125 52.7812
Q43.3125 58.5938 39.2344 62.25
Q35.1562 65.9219 28.6094 65.9219
Q23.9688 65.9219 18.8125 64.3125
Q13.6719 62.7031 7.8125 59.4219
L7.8125 69.3906
Q13.7656 71.7812 18.9375 73
Q24.125 74.2188 28.4219 74.2188
Q39.75 74.2188 46.4844 68.5469
Q53.2188 62.8906 53.2188 53.4219
Q53.2188 48.9219 51.5312 44.8906
Q49.8594 40.875 45.4062 35.4062
Q44.1875 33.9844 37.6406 27.2188
Q31.1094 20.4531 19.1875 8.29688" id="BitstreamVeraSans-Roman-32"/>
       <path d="
M31.7812 66.4062
Q24.1719 66.4062 20.3281 58.9062
Q16.5 51.4219 16.5 36.375
Q16.5 21.3906 20.3281 13.8906
Q24.1719 6.39062 31.7812 6.39062
Q39.4531 6.39062 43.2812 13.8906
Q47.125 21.3906 47.125 36.375
Q47.125 51.4219 43.2812 58.9062
Q39.4531 66.4062 31.7812 66.4062
M31.7812 74.2188
Q44.0469 74.2188 50.5156 64.5156
Q56.9844 54.8281 56.9844 36.375
Q56.9844 17.9688 50.5156 8.26562
Q44.0469 -1.42188 31.7812 -1.42188
Q19.5312 -1.42188 13.0625 8.26562
Q6.59375 17.9688 6.59375 36.375
Q6.59375 54.8281 13.0625 64.5156
Q19.5312 74.2188 31.7812 74.2188" id="BitstreamVeraSans-Roman-30"/>
       <path d="
M10.6875 12.4062
L21 12.4062
L21 0
L10.6875 0
z
" id="BitstreamVeraSans-Roman-2e"/>
       <path d="
M4.89062 31.3906
L31.2031 31.3906
L31.2031 23.3906
L4.89062 23.3906
z
" id="BitstreamVeraSans-Roman-2d"/>
      </defs>
      <g style="fill:#262626;" transform="translate(125.98984375 331.8484375)scale(0.1 -0.1)">
       <use xlink:href="#BitstreamVeraSans-Roman-2d"/>
       <use x="36.083984375" xlink:href="#BitstreamVeraSans-Roman-30"/>
       <use x="99.70703125" xlink:href="#BitstreamVeraSans-Roman-2e"/>
       <use x="131.494140625" xlink:href="#BitstreamVeraSans-Roman-32"/>
      </g>
     </g>
    </g>
    <g id="xtick_2">
     <g id="line2d_4">
      <path clip-path="url(#p796c768e71)" d="
M170.168 317.25
L170.168 108" style="fill:none;stroke:#ffffff;stroke-linecap:round;"/>
     </g>
     <g id="line2d_5">
      <g>
       <use style="fill:#262626;stroke:#262626;" x="170.168067227" xlink:href="#m219da94a98" y="317.25"/>
      </g>
     </g>
     <g id="line2d_6">
      <g>
       <use style="fill:#262626;stroke:#262626;" x="170.168067227" xlink:href="#m219da94a98" y="108.0"/>
      </g>
     </g>
     <g id="text_2">
      <!-- 0.0 -->
      <g style="fill:#262626;" transform="translate(162.878223477 331.8484375)scale(0.1 -0.1)">
       <use xlink:href="#BitstreamVeraSans-Roman-30"/>
       <use x="63.623046875" xlink:href="#BitstreamVeraSans-Roman-2e"/>
       <use x="95.41015625" xlink:href="#BitstreamVeraSans-Roman-30"/>
      </g>
     </g>
    </g>
    <g id="xtick_3">
     <g id="line2d_7">
      <path clip-path="url(#p796c768e71)" d="
M205.336 317.25
L205.336 108" style="fill:none;stroke:#ffffff;stroke-linecap:round;"/>
     </g>
     <g id="line2d_8">
      <g>
       <use style="fill:#262626;stroke:#262626;" x="205.336134454" xlink:href="#m219da94a98" y="317.25"/>
      </g>
     </g>
     <g id="line2d_9">
      <g>
       <use style="fill:#262626;stroke:#262626;" x="205.336134454" xlink:href="#m219da94a98" y="108.0"/>
      </g>
     </g>
     <g id="text_3">
      <!-- 0.2 -->
      <g style="fill:#262626;" transform="translate(198.215040704 331.8484375)scale(0.1 -0.1)">
       <use xlink:href="#BitstreamVeraSans-Roman-30"/>
       <use x="63.623046875" xlink:href="#BitstreamVeraSans-Roman-2e"/>
       <use x="95.41015625" xlink:href="#BitstreamVeraSans-Roman-32"/>
      </g>
     </g>
    </g>
    <g id="xtick_4">
     <g id="line2d_10">
      <path clip-path="url(#p796c768e71)" d="
M240.504 317.25
L240.504 108" style="fill:none;stroke:#ffffff;stroke-linecap:round;"/>
     </g>
     <g id="line2d_11">
      <g>
       <use style="fill:#262626;stroke:#262626;" x="240.504201681" xlink:href="#m219da94a98" y="317.25"/>
      </g>
     </g>
     <g id="line2d_12">
      <g>
       <use style="fill:#262626;stroke:#262626;" x="240.504201681" xlink:href="#m219da94a98" y="108.0"/>
      </g>
     </g>
     <g id="text_4">
      <!-- 0.4 -->
      <defs>
       <path d="
M37.7969 64.3125
L12.8906 25.3906
L37.7969 25.3906
z

M35.2031 72.9062
L47.6094 72.9062
L47.6094 25.3906
L58.0156 25.3906
L58.0156 17.1875
L47.6094 17.1875
L47.6094 0
L37.7969 0
L37.7969 17.1875
L4.89062 17.1875
L4.89062 26.7031
z
" id="BitstreamVeraSans-Roman-34"/>
      </defs>
      <g style="fill:#262626;" transform="translate(233.162795431 331.8484375)scale(0.1 -0.1)">
       <use xlink:href="#BitstreamVeraSans-Roman-30"/>
       <use x="63.623046875" xlink:href="#BitstreamVeraSans-Roman-2e"/>
       <use x="95.41015625" xlink:href="#BitstreamVeraSans-Roman-34"/>
      </g>
     </g>
    </g>
    <g id="xtick_5">
     <g id="line2d_13">
      <path clip-path="url(#p796c768e71)" d="
M275.672 317.25
L275.672 108" style="fill:none;stroke:#ffffff;stroke-linecap:round;"/>
     </g>
     <g id="line2d_14">
      <g>
       <use style="fill:#262626;stroke:#262626;" x="275.672268908" xlink:href="#m219da94a98" y="317.25"/>
      </g>
     </g>
     <g id="line2d_15">
      <g>
       <use style="fill:#262626;stroke:#262626;" x="275.672268908" xlink:href="#m219da94a98" y="108.0"/>
      </g>
     </g>
     <g id="text_5">
      <!-- 0.6 -->
      <defs>
       <path d="
M33.0156 40.375
Q26.375 40.375 22.4844 35.8281
Q18.6094 31.2969 18.6094 23.3906
Q18.6094 15.5312 22.4844 10.9531
Q26.375 6.39062 33.0156 6.39062
Q39.6562 6.39062 43.5312 10.9531
Q47.4062 15.5312 47.4062 23.3906
Q47.4062 31.2969 43.5312 35.8281
Q39.6562 40.375 33.0156 40.375
M52.5938 71.2969
L52.5938 62.3125
Q48.875 64.0625 45.0938 64.9844
Q41.3125 65.9219 37.5938 65.9219
Q27.8281 65.9219 22.6719 59.3281
Q17.5312 52.7344 16.7969 39.4062
Q19.6719 43.6562 24.0156 45.9219
Q28.375 48.1875 33.5938 48.1875
Q44.5781 48.1875 50.9531 41.5156
Q57.3281 34.8594 57.3281 23.3906
Q57.3281 12.1562 50.6875 5.35938
Q44.0469 -1.42188 33.0156 -1.42188
Q20.3594 -1.42188 13.6719 8.26562
Q6.98438 17.9688 6.98438 36.375
Q6.98438 53.6562 15.1875 63.9375
Q23.3906 74.2188 37.2031 74.2188
Q40.9219 74.2188 44.7031 73.4844
Q48.4844 72.75 52.5938 71.2969" id="BitstreamVeraSans-Roman-36"/>
      </defs>
      <g style="fill:#262626;" transform="translate(268.365237658 331.8484375)scale(0.1 -0.1)">
       <use xlink:href="#BitstreamVeraSans-Roman-30"/>
       <use x="63.623046875" xlink:href="#BitstreamVeraSans-Roman-2e"/>
       <use x="95.41015625" xlink:href="#BitstreamVeraSans-Roman-36"/>
      </g>
     </g>
    </g>
    <g id="xtick_6">
     <g id="line2d_16">
      <path clip-path="url(#p796c768e71)" d="
M310.84 317.25
L310.84 108" style="fill:none;stroke:#ffffff;stroke-linecap:round;"/>
     </g>
     <g id="line2d_17">
      <g>
       <use style="fill:#262626;stroke:#262626;" x="310.840336134" xlink:href="#m219da94a98" y="317.25"/>
      </g>
     </g>
     <g id="line2d_18">
      <g>
       <use style="fill:#262626;stroke:#262626;" x="310.840336134" xlink:href="#m219da94a98" y="108.0"/>
      </g>
     </g>
     <g id="text_6">
      <!-- 0.8 -->
      <defs>
       <path d="
M31.7812 34.625
Q24.75 34.625 20.7188 30.8594
Q16.7031 27.0938 16.7031 20.5156
Q16.7031 13.9219 20.7188 10.1562
Q24.75 6.39062 31.7812 6.39062
Q38.8125 6.39062 42.8594 10.1719
Q46.9219 13.9688 46.9219 20.5156
Q46.9219 27.0938 42.8906 30.8594
Q38.875 34.625 31.7812 34.625
M21.9219 38.8125
Q15.5781 40.375 12.0312 44.7188
Q8.5 49.0781 8.5 55.3281
Q8.5 64.0625 14.7188 69.1406
Q20.9531 74.2188 31.7812 74.2188
Q42.6719 74.2188 48.875 69.1406
Q55.0781 64.0625 55.0781 55.3281
Q55.0781 49.0781 51.5312 44.7188
Q48 40.375 41.7031 38.8125
Q48.8281 37.1562 52.7969 32.3125
Q56.7812 27.4844 56.7812 20.5156
Q56.7812 9.90625 50.3125 4.23438
Q43.8438 -1.42188 31.7812 -1.42188
Q19.7344 -1.42188 13.25 4.23438
Q6.78125 9.90625 6.78125 20.5156
Q6.78125 27.4844 10.7812 32.3125
Q14.7969 37.1562 21.9219 38.8125
M18.3125 54.3906
Q18.3125 48.7344 21.8438 45.5625
Q25.3906 42.3906 31.7812 42.3906
Q38.1406 42.3906 41.7188 45.5625
Q45.3125 48.7344 45.3125 54.3906
Q45.3125 60.0625 41.7188 63.2344
Q38.1406 66.4062 31.7812 66.4062
Q25.3906 66.4062 21.8438 63.2344
Q18.3125 60.0625 18.3125 54.3906" id="BitstreamVeraSans-Roman-38"/>
      </defs>
      <g style="fill:#262626;" transform="translate(303.560648634 331.8484375)scale(0.1 -0.1)">
       <use xlink:href="#BitstreamVeraSans-Roman-30"/>
       <use x="63.623046875" xlink:href="#BitstreamVeraSans-Roman-2e"/>
       <use x="95.41015625" xlink:href="#BitstreamVeraSans-Roman-38"/>
      </g>
     </g>
    </g>
    <g id="xtick_7">
     <g id="line2d_19">
      <path clip-path="url(#p796c768e71)" d="
M346.008 317.25
L346.008 108" style="fill:none;stroke:#ffffff;stroke-linecap:round;"/>
     </g>
     <g id="line2d_20">
      <g>
       <use style="fill:#262626;stroke:#262626;" x="346.008403361" xlink:href="#m219da94a98" y="317.25"/>
      </g>
     </g>
     <g id="line2d_21">
      <g>
       <use style="fill:#262626;stroke:#262626;" x="346.008403361" xlink:href="#m219da94a98" y="108.0"/>
      </g>
     </g>
     <g id="text_7">
      <!-- 1.0 -->
      <defs>
       <path d="
M12.4062 8.29688
L28.5156 8.29688
L28.5156 63.9219
L10.9844 60.4062
L10.9844 69.3906
L28.4219 72.9062
L38.2812 72.9062
L38.2812 8.29688
L54.3906 8.29688
L54.3906 0
L12.4062 0
z
" id="BitstreamVeraSans-Roman-31"/>
      </defs>
      <g style="fill:#262626;" transform="translate(338.938090861 331.8484375)scale(0.1 -0.1)">
       <use xlink:href="#BitstreamVeraSans-Roman-31"/>
       <use x="63.623046875" xlink:href="#BitstreamVeraSans-Roman-2e"/>
       <use x="95.41015625" xlink:href="#BitstreamVeraSans-Roman-30"/>
      </g>
     </g>
    </g>
    <g id="xtick_8">
     <g id="line2d_22">
      <path clip-path="url(#p796c768e71)" d="
M381.176 317.25
L381.176 108" style="fill:none;stroke:#ffffff;stroke-linecap:round;"/>
     </g>
     <g id="line2d_23">
      <g>
       <use style="fill:#262626;stroke:#262626;" x="381.176470588" xlink:href="#m219da94a98" y="317.25"/>
      </g>
     </g>
     <g id="line2d_24">
      <g>
       <use style="fill:#262626;stroke:#262626;" x="381.176470588" xlink:href="#m219da94a98" y="108.0"/>
      </g>
     </g>
     <g id="text_8">
      <!-- 1.2 -->
      <g style="fill:#262626;" transform="translate(374.274908088 331.8484375)scale(0.1 -0.1)">
       <use xlink:href="#BitstreamVeraSans-Roman-31"/>
       <use x="63.623046875" xlink:href="#BitstreamVeraSans-Roman-2e"/>
       <use x="95.41015625" xlink:href="#BitstreamVeraSans-Roman-32"/>
      </g>
     </g>
    </g>
    <g id="text_9">
     <!-- 3 Point % -->
     <defs>
      <path d="
M40.5781 39.3125
Q47.6562 37.7969 51.625 33
Q55.6094 28.2188 55.6094 21.1875
Q55.6094 10.4062 48.1875 4.48438
Q40.7656 -1.42188 27.0938 -1.42188
Q22.5156 -1.42188 17.6562 -0.515625
Q12.7969 0.390625 7.625 2.20312
L7.625 11.7188
Q11.7188 9.32812 16.5938 8.10938
Q21.4844 6.89062 26.8125 6.89062
Q36.0781 6.89062 40.9375 10.5469
Q45.7969 14.2031 45.7969 21.1875
Q45.7969 27.6406 41.2812 31.2656
Q36.7656 34.9062 28.7188 34.9062
L20.2188 34.9062
L20.2188 43.0156
L29.1094 43.0156
Q36.375 43.0156 40.2344 45.9219
Q44.0938 48.8281 44.0938 54.2969
Q44.0938 59.9062 40.1094 62.9062
Q36.1406 65.9219 28.7188 65.9219
Q24.6562 65.9219 20.0156 65.0312
Q15.375 64.1562 9.8125 62.3125
L9.8125 71.0938
Q15.4375 72.6562 20.3438 73.4375
Q25.25 74.2188 29.5938 74.2188
Q40.8281 74.2188 47.3594 69.1094
Q53.9062 64.0156 53.9062 55.3281
Q53.9062 49.2656 50.4375 45.0938
Q46.9688 40.9219 40.5781 39.3125" id="BitstreamVeraSans-Roman-33"/>
      <path d="
M72.7031 32.0781
Q68.4531 32.0781 66.0312 28.4688
Q63.625 24.8594 63.625 18.4062
Q63.625 12.0625 66.0312 8.42188
Q68.4531 4.78125 72.7031 4.78125
Q76.8594 4.78125 79.2656 8.42188
Q81.6875 12.0625 81.6875 18.4062
Q81.6875 24.8125 79.2656 28.4375
Q76.8594 32.0781 72.7031 32.0781
M72.7031 38.2812
Q80.4219 38.2812 84.9531 32.9062
Q89.5 27.5469 89.5 18.4062
Q89.5 9.28125 84.9375 3.92188
Q80.375 -1.42188 72.7031 -1.42188
Q64.8906 -1.42188 60.3438 3.92188
Q55.8125 9.28125 55.8125 18.4062
Q55.8125 27.5938 60.375 32.9375
Q64.9375 38.2812 72.7031 38.2812
M22.3125 68.0156
Q18.1094 68.0156 15.6875 64.375
Q13.2812 60.75 13.2812 54.3906
Q13.2812 47.9531 15.6719 44.3281
Q18.0625 40.7188 22.3125 40.7188
Q26.5625 40.7188 28.9688 44.3281
Q31.3906 47.9531 31.3906 54.3906
Q31.3906 60.6875 28.9531 64.3438
Q26.5156 68.0156 22.3125 68.0156
M66.4062 74.2188
L74.2188 74.2188
L28.6094 -1.42188
L20.7969 -1.42188
z

M22.3125 74.2188
Q30.0312 74.2188 34.6094 68.875
Q39.2031 63.5312 39.2031 54.3906
Q39.2031 45.1719 34.6406 39.8438
Q30.0781 34.5156 22.3125 34.5156
Q14.5469 34.5156 10.0312 39.8594
Q5.51562 45.2188 5.51562 54.3906
Q5.51562 63.4844 10.0469 68.8438
Q14.5938 74.2188 22.3125 74.2188" id="BitstreamVeraSans-Roman-25"/>
      <path id="BitstreamVeraSans-Roman-20"/>
      <path d="
M54.8906 33.0156
L54.8906 0
L45.9062 0
L45.9062 32.7188
Q45.9062 40.4844 42.875 44.3281
Q39.8438 48.1875 33.7969 48.1875
Q26.5156 48.1875 22.3125 43.5469
Q18.1094 38.9219 18.1094 30.9062
L18.1094 0
L9.07812 0
L9.07812 54.6875
L18.1094 54.6875
L18.1094 46.1875
Q21.3438 51.125 25.7031 53.5625
Q30.0781 56 35.7969 56
Q45.2188 56 50.0469 50.1719
Q54.8906 44.3438 54.8906 33.0156" id="BitstreamVeraSans-Roman-6e"/>
      <path d="
M30.6094 48.3906
Q23.3906 48.3906 19.1875 42.75
Q14.9844 37.1094 14.9844 27.2969
Q14.9844 17.4844 19.1562 11.8438
Q23.3438 6.20312 30.6094 6.20312
Q37.7969 6.20312 41.9844 11.8594
Q46.1875 17.5312 46.1875 27.2969
Q46.1875 37.0156 41.9844 42.7031
Q37.7969 48.3906 30.6094 48.3906
M30.6094 56
Q42.3281 56 49.0156 48.375
Q55.7188 40.7656 55.7188 27.2969
Q55.7188 13.875 49.0156 6.21875
Q42.3281 -1.42188 30.6094 -1.42188
Q18.8438 -1.42188 12.1719 6.21875
Q5.51562 13.875 5.51562 27.2969
Q5.51562 40.7656 12.1719 48.375
Q18.8438 56 30.6094 56" id="BitstreamVeraSans-Roman-6f"/>
      <path d="
M19.6719 64.7969
L19.6719 37.4062
L32.0781 37.4062
Q38.9688 37.4062 42.7188 40.9688
Q46.4844 44.5312 46.4844 51.125
Q46.4844 57.6719 42.7188 61.2344
Q38.9688 64.7969 32.0781 64.7969
z

M9.8125 72.9062
L32.0781 72.9062
Q44.3438 72.9062 50.6094 67.3594
Q56.8906 61.8125 56.8906 51.125
Q56.8906 40.3281 50.6094 34.8125
Q44.3438 29.2969 32.0781 29.2969
L19.6719 29.2969
L19.6719 0
L9.8125 0
z
" id="BitstreamVeraSans-Roman-50"/>
      <path d="
M9.42188 54.6875
L18.4062 54.6875
L18.4062 0
L9.42188 0
z

M9.42188 75.9844
L18.4062 75.9844
L18.4062 64.5938
L9.42188 64.5938
z
" id="BitstreamVeraSans-Roman-69"/>
      <path d="
M18.3125 70.2188
L18.3125 54.6875
L36.8125 54.6875
L36.8125 47.7031
L18.3125 47.7031
L18.3125 18.0156
Q18.3125 11.3281 20.1406 9.42188
Q21.9688 7.51562 27.5938 7.51562
L36.8125 7.51562
L36.8125 0
L27.5938 0
Q17.1875 0 13.2344 3.875
Q9.28125 7.76562 9.28125 18.0156
L9.28125 47.7031
L2.6875 47.7031
L2.6875 54.6875
L9.28125 54.6875
L9.28125 70.2188
z
" id="BitstreamVeraSans-Roman-74"/>
     </defs>
     <g style="fill:#262626;" transform="translate(232.518391544 347.28640625)scale(0.11 -0.11)">
      <use xlink:href="#BitstreamVeraSans-Roman-33"/>
      <use x="63.623046875" xlink:href="#BitstreamVeraSans-Roman-20"/>
      <use x="95.41015625" xlink:href="#BitstreamVeraSans-Roman-50"/>
      <use x="152.087890625" xlink:href="#BitstreamVeraSans-Roman-6f"/>
      <use x="213.26953125" xlink:href="#BitstreamVeraSans-Roman-69"/>
      <use x="241.052734375" xlink:href="#BitstreamVeraSans-Roman-6e"/>
      <use x="304.431640625" xlink:href="#BitstreamVeraSans-Roman-74"/>
      <use x="343.640625" xlink:href="#BitstreamVeraSans-Roman-20"/>
      <use x="375.427734375" xlink:href="#BitstreamVeraSans-Roman-25"/>
     </g>
    </g>
   </g>
   <g id="matplotlib.axis_2">
    <g id="ytick_1">
     <g id="line2d_25">
      <path clip-path="url(#p796c768e71)" d="
M135 317.25
L381.176 317.25" style="fill:none;stroke:#ffffff;stroke-linecap:round;"/>
     </g>
     <g id="line2d_26">
      <g>
       <use style="fill:#262626;stroke:#262626;" x="135.0" xlink:href="#m219da94a98" y="317.25"/>
      </g>
     </g>
     <g id="line2d_27">
      <g>
       <use style="fill:#262626;stroke:#262626;" x="381.176470588" xlink:href="#m219da94a98" y="317.25"/>
      </g>
     </g>
     <g id="text_10">
      <!-- -15 -->
      <defs>
       <path d="
M10.7969 72.9062
L49.5156 72.9062
L49.5156 64.5938
L19.8281 64.5938
L19.8281 46.7344
Q21.9688 47.4688 24.1094 47.8281
Q26.2656 48.1875 28.4219 48.1875
Q40.625 48.1875 47.75 41.5
Q54.8906 34.8125 54.8906 23.3906
Q54.8906 11.625 47.5625 5.09375
Q40.2344 -1.42188 26.9062 -1.42188
Q22.3125 -1.42188 17.5469 -0.640625
Q12.7969 0.140625 7.71875 1.70312
L7.71875 11.625
Q12.1094 9.23438 16.7969 8.0625
Q21.4844 6.89062 26.7031 6.89062
Q35.1562 6.89062 40.0781 11.3281
Q45.0156 15.7656 45.0156 23.3906
Q45.0156 31 40.0781 35.4375
Q35.1562 39.8906 26.7031 39.8906
Q22.75 39.8906 18.8125 39.0156
Q14.8906 38.1406 10.7969 36.2812
z
" id="BitstreamVeraSans-Roman-35"/>
      </defs>
      <g style="fill:#262626;" transform="translate(113.0296875 320.009375)scale(0.1 -0.1)">
       <use xlink:href="#BitstreamVeraSans-Roman-2d"/>
       <use x="36.083984375" xlink:href="#BitstreamVeraSans-Roman-31"/>
       <use x="99.70703125" xlink:href="#BitstreamVeraSans-Roman-35"/>
      </g>
     </g>
    </g>
    <g id="ytick_2">
     <g id="line2d_28">
      <path clip-path="url(#p796c768e71)" d="
M135 282.375
L381.176 282.375" style="fill:none;stroke:#ffffff;stroke-linecap:round;"/>
     </g>
     <g id="line2d_29">
      <g>
       <use style="fill:#262626;stroke:#262626;" x="135.0" xlink:href="#m219da94a98" y="282.375"/>
      </g>
     </g>
     <g id="line2d_30">
      <g>
       <use style="fill:#262626;stroke:#262626;" x="381.176470588" xlink:href="#m219da94a98" y="282.375"/>
      </g>
     </g>
     <g id="text_11">
      <!-- -10 -->
      <g style="fill:#262626;" transform="translate(112.8203125 285.134375)scale(0.1 -0.1)">
       <use xlink:href="#BitstreamVeraSans-Roman-2d"/>
       <use x="36.083984375" xlink:href="#BitstreamVeraSans-Roman-31"/>
       <use x="99.70703125" xlink:href="#BitstreamVeraSans-Roman-30"/>
      </g>
     </g>
    </g>
    <g id="ytick_3">
     <g id="line2d_31">
      <path clip-path="url(#p796c768e71)" d="
M135 247.5
L381.176 247.5" style="fill:none;stroke:#ffffff;stroke-linecap:round;"/>
     </g>
     <g id="line2d_32">
      <g>
       <use style="fill:#262626;stroke:#262626;" x="135.0" xlink:href="#m219da94a98" y="247.5"/>
      </g>
     </g>
     <g id="line2d_33">
      <g>
       <use style="fill:#262626;stroke:#262626;" x="381.176470588" xlink:href="#m219da94a98" y="247.5"/>
      </g>
     </g>
     <g id="text_12">
      <!-- -5 -->
      <g style="fill:#262626;" transform="translate(119.3921875 250.259375)scale(0.1 -0.1)">
       <use xlink:href="#BitstreamVeraSans-Roman-2d"/>
       <use x="36.083984375" xlink:href="#BitstreamVeraSans-Roman-35"/>
      </g>
     </g>
    </g>
    <g id="ytick_4">
     <g id="line2d_34">
      <path clip-path="url(#p796c768e71)" d="
M135 212.625
L381.176 212.625" style="fill:none;stroke:#ffffff;stroke-linecap:round;"/>
     </g>
     <g id="line2d_35">
      <g>
       <use style="fill:#262626;stroke:#262626;" x="135.0" xlink:href="#m219da94a98" y="212.625"/>
      </g>
     </g>
     <g id="line2d_36">
      <g>
       <use style="fill:#262626;stroke:#262626;" x="381.176470588" xlink:href="#m219da94a98" y="212.625"/>
      </g>
     </g>
     <g id="text_13">
      <!-- 0 -->
      <g style="fill:#262626;" transform="translate(122.9609375 215.384375)scale(0.1 -0.1)">
       <use xlink:href="#BitstreamVeraSans-Roman-30"/>
      </g>
     </g>
    </g>
    <g id="ytick_5">
     <g id="line2d_37">
      <path clip-path="url(#p796c768e71)" d="
M135 177.75
L381.176 177.75" style="fill:none;stroke:#ffffff;stroke-linecap:round;"/>
     </g>
     <g id="line2d_38">
      <g>
       <use style="fill:#262626;stroke:#262626;" x="135.0" xlink:href="#m219da94a98" y="177.75"/>
      </g>
     </g>
     <g id="line2d_39">
      <g>
       <use style="fill:#262626;stroke:#262626;" x="381.176470588" xlink:href="#m219da94a98" y="177.75"/>
      </g>
     </g>
     <g id="text_14">
      <!-- 5 -->
      <g style="fill:#262626;" transform="translate(123.2828125 180.509375)scale(0.1 -0.1)">
       <use xlink:href="#BitstreamVeraSans-Roman-35"/>
      </g>
     </g>
    </g>
    <g id="ytick_6">
     <g id="line2d_40">
      <path clip-path="url(#p796c768e71)" d="
M135 142.875
L381.176 142.875" style="fill:none;stroke:#ffffff;stroke-linecap:round;"/>
     </g>
     <g id="line2d_41">
      <g>
       <use style="fill:#262626;stroke:#262626;" x="135.0" xlink:href="#m219da94a98" y="142.875"/>
      </g>
     </g>
     <g id="line2d_42">
      <g>
       <use style="fill:#262626;stroke:#262626;" x="381.176470588" xlink:href="#m219da94a98" y="142.875"/>
      </g>
     </g>
     <g id="text_15">
      <!-- 10 -->
      <g style="fill:#262626;" transform="translate(117.0375 145.634375)scale(0.1 -0.1)">
       <use xlink:href="#BitstreamVeraSans-Roman-31"/>
       <use x="63.623046875" xlink:href="#BitstreamVeraSans-Roman-30"/>
      </g>
     </g>
    </g>
    <g id="ytick_7">
     <g id="line2d_43">
      <path clip-path="url(#p796c768e71)" d="
M135 108
L381.176 108" style="fill:none;stroke:#ffffff;stroke-linecap:round;"/>
     </g>
     <g id="line2d_44">
      <g>
       <use style="fill:#262626;stroke:#262626;" x="135.0" xlink:href="#m219da94a98" y="108.0"/>
      </g>
     </g>
     <g id="line2d_45">
      <g>
       <use style="fill:#262626;stroke:#262626;" x="381.176470588" xlink:href="#m219da94a98" y="108.0"/>
      </g>
     </g>
     <g id="text_16">
      <!-- 15 -->
      <g style="fill:#262626;" transform="translate(117.246875 110.759375)scale(0.1 -0.1)">
       <use xlink:href="#BitstreamVeraSans-Roman-31"/>
       <use x="63.623046875" xlink:href="#BitstreamVeraSans-Roman-35"/>
      </g>
     </g>
    </g>
   </g>
   <g id="PathCollection_1">
    <defs>
     <path d="
M0 2.23607
C0.593012 2.23607 1.16182 2.00046 1.58114 1.58114
C2.00046 1.16182 2.23607 0.593012 2.23607 0
C2.23607 -0.593012 2.00046 -1.16182 1.58114 -1.58114
C1.16182 -2.00046 0.593012 -2.23607 0 -2.23607
C-0.593012 -2.23607 -1.16182 -2.00046 -1.58114 -1.58114
C-2.00046 -1.16182 -2.23607 -0.593012 -2.23607 0
C-2.23607 0.593012 -2.00046 1.16182 -1.58114 1.58114
C-1.16182 2.00046 -0.593012 2.23607 0 2.23607
z
" id="m501da90a0f"/>
    </defs>
    <g clip-path="url(#p796c768e71)">
     <use style="fill:#4c72b0;fill-opacity:0.8;" x="170.168067227" xlink:href="#m501da90a0f" y="254.475"/>
     <use style="fill:#4c72b0;fill-opacity:0.8;" x="258.088235294" xlink:href="#m501da90a0f" y="219.6"/>
     <use style="fill:#4c72b0;fill-opacity:0.8;" x="346.008403361" xlink:href="#m501da90a0f" y="156.825"/>
     <use style="fill:#4c72b0;fill-opacity:0.8;" x="209.204621849" xlink:href="#m501da90a0f" y="247.5"/>
    </g>
   </g>
   <g id="PolyCollection_1">
    <defs>
     <path d="
M135 -819.241
L135 -772.515
L137.487 -774.29
L139.973 -776.066
L142.46 -777.841
L144.947 -779.617
L147.433 -781.392
L149.92 -783.168
L152.406 -784.943
L154.893 -786.719
L157.38 -788.494
L159.866 -790.27
L162.353 -792.045
L164.84 -793.82
L167.326 -795.596
L169.813 -797.371
L172.299 -799.147
L174.786 -800.922
L177.273 -802.698
L179.759 -804.473
L182.246 -806.249
L184.733 -808.024
L187.219 -809.8
L189.706 -811.575
L192.193 -813.35
L194.679 -815.126
L197.166 -816.901
L199.652 -818.677
L202.139 -820.452
L204.626 -822.228
L207.112 -824.003
L209.599 -825.779
L212.086 -827.554
L214.572 -829.33
L217.059 -831.105
L219.545 -832.88
L222.032 -834.656
L224.519 -835.236
L227.005 -835.681
L229.492 -836.125
L231.979 -836.569
L234.465 -837.014
L236.952 -837.458
L239.439 -837.902
L241.925 -838.346
L244.412 -838.791
L246.898 -839.235
L249.385 -839.679
L251.872 -840.124
L254.358 -840.568
L256.845 -841.012
L259.332 -841.457
L261.818 -841.901
L264.305 -842.345
L266.791 -842.79
L269.278 -843.234
L271.765 -843.678
L274.251 -844.122
L276.738 -844.567
L279.225 -845.011
L281.711 -845.455
L284.198 -845.9
L286.684 -846.344
L289.171 -846.788
L291.658 -847.233
L294.144 -847.677
L296.631 -848.121
L299.118 -848.566
L301.604 -849.01
L304.091 -849.454
L306.578 -849.898
L309.064 -850.343
L311.551 -850.787
L314.037 -851.231
L316.524 -851.676
L319.011 -852.12
L321.497 -852.564
L323.984 -853.009
L326.471 -853.453
L328.957 -853.897
L331.444 -854.342
L333.93 -854.786
L336.417 -855.23
L338.904 -855.674
L341.39 -856.119
L343.877 -856.563
L346.364 -857.007
L348.85 -857.452
L351.337 -857.896
L353.824 -858.34
L356.31 -858.785
L358.797 -859.229
L361.283 -859.673
L363.77 -860.118
L366.257 -860.562
L368.743 -861.006
L371.23 -861.45
L373.717 -861.895
L376.203 -862.339
L378.69 -862.783
L381.176 -863.228
L381.176 -948.285
L381.176 -948.285
L378.69 -946.51
L376.203 -944.734
L373.717 -942.959
L371.23 -941.183
L368.743 -939.408
L366.257 -937.632
L363.77 -935.857
L361.283 -934.081
L358.797 -932.306
L356.31 -930.53
L353.824 -928.755
L351.337 -926.98
L348.85 -925.204
L346.364 -923.429
L343.877 -921.991
L341.39 -920.61
L338.904 -919.23
L336.417 -917.849
L333.93 -916.468
L331.444 -915.087
L328.957 -913.706
L326.471 -912.325
L323.984 -910.944
L321.497 -909.563
L319.011 -908.182
L316.524 -906.801
L314.037 -905.42
L311.551 -904.04
L309.064 -902.659
L306.578 -901.278
L304.091 -899.897
L301.604 -898.516
L299.118 -897.135
L296.631 -895.754
L294.144 -894.373
L291.658 -892.992
L289.171 -891.611
L286.684 -890.23
L284.198 -888.85
L281.711 -887.469
L279.225 -886.088
L276.738 -884.707
L274.251 -883.326
L271.765 -881.945
L269.278 -880.564
L266.791 -879.183
L264.305 -877.802
L261.818 -876.421
L259.332 -875.04
L256.845 -873.66
L254.358 -872.279
L251.872 -870.898
L249.385 -869.517
L246.898 -868.136
L244.412 -866.755
L241.925 -865.374
L239.439 -863.993
L236.952 -862.612
L234.465 -861.231
L231.979 -859.85
L229.492 -858.47
L227.005 -857.089
L224.519 -855.708
L222.032 -854.327
L219.545 -852.946
L217.059 -851.565
L214.572 -850.184
L212.086 -848.803
L209.599 -847.422
L207.112 -846.041
L204.626 -844.66
L202.139 -843.28
L199.652 -841.899
L197.166 -840.518
L194.679 -839.137
L192.193 -837.756
L189.706 -836.375
L187.219 -834.994
L184.733 -833.613
L182.246 -832.232
L179.759 -830.851
L177.273 -829.47
L174.786 -828.09
L172.299 -826.709
L169.813 -825.462
L167.326 -825.017
L164.84 -824.573
L162.353 -824.129
L159.866 -823.684
L157.38 -823.24
L154.893 -822.796
L152.406 -822.351
L149.92 -821.907
L147.433 -821.463
L144.947 -821.018
L142.46 -820.574
L139.973 -820.13
L137.487 -819.686
L135 -819.241
z
" id="m261b109633" style="stroke:#4c72b0;stroke-opacity:0.15;stroke-width:0.3;"/>
    </defs>
    <g clip-path="url(#p796c768e71)">
     <use style="fill:#4c72b0;fill-opacity:0.15;stroke:#4c72b0;stroke-opacity:0.15;stroke-width:0.3;" x="0.0" xlink:href="#m261b109633" y="1080.0"/>
    </g>
   </g>
   <g id="line2d_46">
    <path clip-path="url(#p796c768e71)" d="
M135 283.537
L137.487 282.103
L139.973 280.669
L142.46 279.235
L144.947 277.801
L147.433 276.367
L149.92 274.933
L152.406 273.499
L154.893 272.065
L157.38 270.631
L159.866 269.197
L162.353 267.763
L164.84 266.329
L167.326 264.894
L169.813 263.46
L172.299 262.026
L174.786 260.592
L177.273 259.158
L179.759 257.724
L182.246 256.29
L184.733 254.856
L187.219 253.422
L189.706 251.988
L192.193 250.554
L194.679 249.12
L197.166 247.686
L199.652 246.252
L202.139 244.818
L204.626 243.384
L207.112 241.95
L209.599 240.516
L212.086 239.082
L214.572 237.648
L217.059 236.214
L219.545 234.78
L222.032 233.346
L224.519 231.912
L227.005 230.478
L229.492 229.044
L231.979 227.61
L234.465 226.176
L236.952 224.742
L239.439 223.307
L241.925 221.873
L244.412 220.439
L246.898 219.005
L249.385 217.571
L251.872 216.137
L254.358 214.703
L256.845 213.269
L259.332 211.835
L261.818 210.401
L264.305 208.967
L266.791 207.533
L269.278 206.099
L271.765 204.665
L274.251 203.231
L276.738 201.797
L279.225 200.363
L281.711 198.929
L284.198 197.495
L286.684 196.061
L289.171 194.627
L291.658 193.193
L294.144 191.759
L296.631 190.325
L299.118 188.891
L301.604 187.457
L304.091 186.023
L306.578 184.589
L309.064 183.155
L311.551 181.72
L314.037 180.286
L316.524 178.852
L319.011 177.418
L321.497 175.984
L323.984 174.55
L326.471 173.116
L328.957 171.682
L331.444 170.248
L333.93 168.814
L336.417 167.38
L338.904 165.946
L341.39 164.512
L343.877 163.078
L346.364 161.644
L348.85 160.21
L351.337 158.776
L353.824 157.342
L356.31 155.908
L358.797 154.474
L361.283 153.04
L363.77 151.606
L366.257 150.172
L368.743 148.738
L371.23 147.304
L373.717 145.87
L376.203 144.436
L378.69 143.002
L381.176 141.568" style="fill:none;stroke:#4c72b0;stroke-linecap:round;stroke-width:2.625;"/>
   </g>
   <g id="patch_3">
    <path d="
M135 108
L381.176 108" style="fill:none;"/>
   </g>
   <g id="patch_4">
    <path d="
M381.176 317.25
L381.176 108" style="fill:none;"/>
   </g>
   <g id="patch_5">
    <path d="
M135 317.25
L381.176 317.25" style="fill:none;"/>
   </g>
   <g id="patch_6">
    <path d="
M135 317.25
L135 108" style="fill:none;"/>
   </g>
  </g>
  <g id="axes_2">
   <g id="patch_7">
    <path d="
M430.412 317.25
L676.588 317.25
L676.588 108
L430.412 108
z
" style="fill:#eaeaf2;"/>
   </g>
   <g id="matplotlib.axis_3">
    <g id="xtick_9">
     <g id="line2d_47">
      <path clip-path="url(#p8f0a1a9076)" d="
M430.412 317.25
L430.412 108" style="fill:none;stroke:#ffffff;stroke-linecap:round;"/>
     </g>
     <g id="line2d_48">
      <g>
       <use style="fill:#262626;stroke:#262626;" x="430.411764706" xlink:href="#m219da94a98" y="317.25"/>
      </g>
     </g>
     <g id="line2d_49">
      <g>
       <use style="fill:#262626;stroke:#262626;" x="430.411764706" xlink:href="#m219da94a98" y="108.0"/>
      </g>
     </g>
     <g id="text_17">
      <!-- 9.5 -->
      <defs>
       <path d="
M10.9844 1.51562
L10.9844 10.5
Q14.7031 8.73438 18.5 7.8125
Q22.3125 6.89062 25.9844 6.89062
Q35.75 6.89062 40.8906 13.4531
Q46.0469 20.0156 46.7812 33.4062
Q43.9531 29.2031 39.5938 26.9531
Q35.25 24.7031 29.9844 24.7031
Q19.0469 24.7031 12.6719 31.3125
Q6.29688 37.9375 6.29688 49.4219
Q6.29688 60.6406 12.9375 67.4219
Q19.5781 74.2188 30.6094 74.2188
Q43.2656 74.2188 49.9219 64.5156
Q56.5938 54.8281 56.5938 36.375
Q56.5938 19.1406 48.4062 8.85938
Q40.2344 -1.42188 26.4219 -1.42188
Q22.7031 -1.42188 18.8906 -0.6875
Q15.0938 0.046875 10.9844 1.51562
M30.6094 32.4219
Q37.25 32.4219 41.125 36.9531
Q45.0156 41.5 45.0156 49.4219
Q45.0156 57.2812 41.125 61.8438
Q37.25 66.4062 30.6094 66.4062
Q23.9688 66.4062 20.0938 61.8438
Q16.2188 57.2812 16.2188 49.4219
Q16.2188 41.5 20.0938 36.9531
Q23.9688 32.4219 30.6094 32.4219" id="BitstreamVeraSans-Roman-39"/>
      </defs>
      <g style="fill:#262626;" transform="translate(423.211764706 331.8484375)scale(0.1 -0.1)">
       <use xlink:href="#BitstreamVeraSans-Roman-39"/>
       <use x="63.623046875" xlink:href="#BitstreamVeraSans-Roman-2e"/>
       <use x="95.41015625" xlink:href="#BitstreamVeraSans-Roman-35"/>
      </g>
     </g>
    </g>
    <g id="xtick_10">
     <g id="line2d_50">
      <path clip-path="url(#p8f0a1a9076)" d="
M471.441 317.25
L471.441 108" style="fill:none;stroke:#ffffff;stroke-linecap:round;"/>
     </g>
     <g id="line2d_51">
      <g>
       <use style="fill:#262626;stroke:#262626;" x="471.441176471" xlink:href="#m219da94a98" y="317.25"/>
      </g>
     </g>
     <g id="line2d_52">
      <g>
       <use style="fill:#262626;stroke:#262626;" x="471.441176471" xlink:href="#m219da94a98" y="108.0"/>
      </g>
     </g>
     <g id="text_18">
      <!-- 10.0 -->
      <g style="fill:#262626;" transform="translate(461.189613971 331.8484375)scale(0.1 -0.1)">
       <use xlink:href="#BitstreamVeraSans-Roman-31"/>
       <use x="63.623046875" xlink:href="#BitstreamVeraSans-Roman-30"/>
       <use x="127.24609375" xlink:href="#BitstreamVeraSans-Roman-2e"/>
       <use x="159.033203125" xlink:href="#BitstreamVeraSans-Roman-30"/>
      </g>
     </g>
    </g>
    <g id="xtick_11">
     <g id="line2d_53">
      <path clip-path="url(#p8f0a1a9076)" d="
M512.471 317.25
L512.471 108" style="fill:none;stroke:#ffffff;stroke-linecap:round;"/>
     </g>
     <g id="line2d_54">
      <g>
       <use style="fill:#262626;stroke:#262626;" x="512.470588235" xlink:href="#m219da94a98" y="317.25"/>
      </g>
     </g>
     <g id="line2d_55">
      <g>
       <use style="fill:#262626;stroke:#262626;" x="512.470588235" xlink:href="#m219da94a98" y="108.0"/>
      </g>
     </g>
     <g id="text_19">
      <!-- 10.5 -->
      <g style="fill:#262626;" transform="translate(502.323713235 331.8484375)scale(0.1 -0.1)">
       <use xlink:href="#BitstreamVeraSans-Roman-31"/>
       <use x="63.623046875" xlink:href="#BitstreamVeraSans-Roman-30"/>
       <use x="127.24609375" xlink:href="#BitstreamVeraSans-Roman-2e"/>
       <use x="159.033203125" xlink:href="#BitstreamVeraSans-Roman-35"/>
      </g>
     </g>
    </g>
    <g id="xtick_12">
     <g id="line2d_56">
      <path clip-path="url(#p8f0a1a9076)" d="
M553.5 317.25
L553.5 108" style="fill:none;stroke:#ffffff;stroke-linecap:round;"/>
     </g>
     <g id="line2d_57">
      <g>
       <use style="fill:#262626;stroke:#262626;" x="553.5" xlink:href="#m219da94a98" y="317.25"/>
      </g>
     </g>
     <g id="line2d_58">
      <g>
       <use style="fill:#262626;stroke:#262626;" x="553.5" xlink:href="#m219da94a98" y="108.0"/>
      </g>
     </g>
     <g id="text_20">
      <!-- 11.0 -->
      <g style="fill:#262626;" transform="translate(543.2484375 331.8484375)scale(0.1 -0.1)">
       <use xlink:href="#BitstreamVeraSans-Roman-31"/>
       <use x="63.623046875" xlink:href="#BitstreamVeraSans-Roman-31"/>
       <use x="127.24609375" xlink:href="#BitstreamVeraSans-Roman-2e"/>
       <use x="159.033203125" xlink:href="#BitstreamVeraSans-Roman-30"/>
      </g>
     </g>
    </g>
    <g id="xtick_13">
     <g id="line2d_59">
      <path clip-path="url(#p8f0a1a9076)" d="
M594.529 317.25
L594.529 108" style="fill:none;stroke:#ffffff;stroke-linecap:round;"/>
     </g>
     <g id="line2d_60">
      <g>
       <use style="fill:#262626;stroke:#262626;" x="594.529411765" xlink:href="#m219da94a98" y="317.25"/>
      </g>
     </g>
     <g id="line2d_61">
      <g>
       <use style="fill:#262626;stroke:#262626;" x="594.529411765" xlink:href="#m219da94a98" y="108.0"/>
      </g>
     </g>
     <g id="text_21">
      <!-- 11.5 -->
      <g style="fill:#262626;" transform="translate(584.382536765 331.8484375)scale(0.1 -0.1)">
       <use xlink:href="#BitstreamVeraSans-Roman-31"/>
       <use x="63.623046875" xlink:href="#BitstreamVeraSans-Roman-31"/>
       <use x="127.24609375" xlink:href="#BitstreamVeraSans-Roman-2e"/>
       <use x="159.033203125" xlink:href="#BitstreamVeraSans-Roman-35"/>
      </g>
     </g>
    </g>
    <g id="xtick_14">
     <g id="line2d_62">
      <path clip-path="url(#p8f0a1a9076)" d="
M635.559 317.25
L635.559 108" style="fill:none;stroke:#ffffff;stroke-linecap:round;"/>
     </g>
     <g id="line2d_63">
      <g>
       <use style="fill:#262626;stroke:#262626;" x="635.558823529" xlink:href="#m219da94a98" y="317.25"/>
      </g>
     </g>
     <g id="line2d_64">
      <g>
       <use style="fill:#262626;stroke:#262626;" x="635.558823529" xlink:href="#m219da94a98" y="108.0"/>
      </g>
     </g>
     <g id="text_22">
      <!-- 12.0 -->
      <g style="fill:#262626;" transform="translate(625.307261029 331.8484375)scale(0.1 -0.1)">
       <use xlink:href="#BitstreamVeraSans-Roman-31"/>
       <use x="63.623046875" xlink:href="#BitstreamVeraSans-Roman-32"/>
       <use x="127.24609375" xlink:href="#BitstreamVeraSans-Roman-2e"/>
       <use x="159.033203125" xlink:href="#BitstreamVeraSans-Roman-30"/>
      </g>
     </g>
    </g>
    <g id="xtick_15">
     <g id="line2d_65">
      <path clip-path="url(#p8f0a1a9076)" d="
M676.588 317.25
L676.588 108" style="fill:none;stroke:#ffffff;stroke-linecap:round;"/>
     </g>
     <g id="line2d_66">
      <g>
       <use style="fill:#262626;stroke:#262626;" x="676.588235294" xlink:href="#m219da94a98" y="317.25"/>
      </g>
     </g>
     <g id="line2d_67">
      <g>
       <use style="fill:#262626;stroke:#262626;" x="676.588235294" xlink:href="#m219da94a98" y="108.0"/>
      </g>
     </g>
     <g id="text_23">
      <!-- 12.5 -->
      <g style="fill:#262626;" transform="translate(666.441360294 331.8484375)scale(0.1 -0.1)">
       <use xlink:href="#BitstreamVeraSans-Roman-31"/>
       <use x="63.623046875" xlink:href="#BitstreamVeraSans-Roman-32"/>
       <use x="127.24609375" xlink:href="#BitstreamVeraSans-Roman-2e"/>
       <use x="159.033203125" xlink:href="#BitstreamVeraSans-Roman-35"/>
      </g>
     </g>
    </g>
    <g id="text_24">
     <!-- Field Goals Made -->
     <defs>
      <path d="
M9.8125 72.9062
L24.5156 72.9062
L43.1094 23.2969
L61.8125 72.9062
L76.5156 72.9062
L76.5156 0
L66.8906 0
L66.8906 64.0156
L48.0938 14.0156
L38.1875 14.0156
L19.3906 64.0156
L19.3906 0
L9.8125 0
z
" id="BitstreamVeraSans-Roman-4d"/>
      <path d="
M9.42188 75.9844
L18.4062 75.9844
L18.4062 0
L9.42188 0
z
" id="BitstreamVeraSans-Roman-6c"/>
      <path d="
M59.5156 10.4062
L59.5156 29.9844
L43.4062 29.9844
L43.4062 38.0938
L69.2812 38.0938
L69.2812 6.78125
Q63.5781 2.73438 56.6875 0.65625
Q49.8125 -1.42188 42 -1.42188
Q24.9062 -1.42188 15.25 8.5625
Q5.60938 18.5625 5.60938 36.375
Q5.60938 54.25 15.25 64.2344
Q24.9062 74.2188 42 74.2188
Q49.125 74.2188 55.5469 72.4531
Q61.9688 70.7031 67.3906 67.2812
L67.3906 56.7812
Q61.9219 61.4219 55.7656 63.7656
Q49.6094 66.1094 42.8281 66.1094
Q29.4375 66.1094 22.7188 58.6406
Q16.0156 51.1719 16.0156 36.375
Q16.0156 21.625 22.7188 14.1562
Q29.4375 6.6875 42.8281 6.6875
Q48.0469 6.6875 52.1406 7.59375
Q56.25 8.5 59.5156 10.4062" id="BitstreamVeraSans-Roman-47"/>
      <path d="
M9.8125 72.9062
L51.7031 72.9062
L51.7031 64.5938
L19.6719 64.5938
L19.6719 43.1094
L48.5781 43.1094
L48.5781 34.8125
L19.6719 34.8125
L19.6719 0
L9.8125 0
z
" id="BitstreamVeraSans-Roman-46"/>
      <path d="
M56.2031 29.5938
L56.2031 25.2031
L14.8906 25.2031
Q15.4844 15.9219 20.4844 11.0625
Q25.4844 6.20312 34.4219 6.20312
Q39.5938 6.20312 44.4531 7.46875
Q49.3125 8.73438 54.1094 11.2812
L54.1094 2.78125
Q49.2656 0.734375 44.1875 -0.34375
Q39.1094 -1.42188 33.8906 -1.42188
Q20.7969 -1.42188 13.1562 6.1875
Q5.51562 13.8125 5.51562 26.8125
Q5.51562 40.2344 12.7656 48.1094
Q20.0156 56 32.3281 56
Q43.3594 56 49.7812 48.8906
Q56.2031 41.7969 56.2031 29.5938
M47.2188 32.2344
Q47.125 39.5938 43.0938 43.9844
Q39.0625 48.3906 32.4219 48.3906
Q24.9062 48.3906 20.3906 44.1406
Q15.875 39.8906 15.1875 32.1719
z
" id="BitstreamVeraSans-Roman-65"/>
      <path d="
M45.4062 46.3906
L45.4062 75.9844
L54.3906 75.9844
L54.3906 0
L45.4062 0
L45.4062 8.20312
Q42.5781 3.32812 38.25 0.953125
Q33.9375 -1.42188 27.875 -1.42188
Q17.9688 -1.42188 11.7344 6.48438
Q5.51562 14.4062 5.51562 27.2969
Q5.51562 40.1875 11.7344 48.0938
Q17.9688 56 27.875 56
Q33.9375 56 38.25 53.625
Q42.5781 51.2656 45.4062 46.3906
M14.7969 27.2969
Q14.7969 17.3906 18.875 11.75
Q22.9531 6.10938 30.0781 6.10938
Q37.2031 6.10938 41.2969 11.75
Q45.4062 17.3906 45.4062 27.2969
Q45.4062 37.2031 41.2969 42.8438
Q37.2031 48.4844 30.0781 48.4844
Q22.9531 48.4844 18.875 42.8438
Q14.7969 37.2031 14.7969 27.2969" id="BitstreamVeraSans-Roman-64"/>
      <path d="
M34.2812 27.4844
Q23.3906 27.4844 19.1875 25
Q14.9844 22.5156 14.9844 16.5
Q14.9844 11.7188 18.1406 8.90625
Q21.2969 6.10938 26.7031 6.10938
Q34.1875 6.10938 38.7031 11.4062
Q43.2188 16.7031 43.2188 25.4844
L43.2188 27.4844
z

M52.2031 31.2031
L52.2031 0
L43.2188 0
L43.2188 8.29688
Q40.1406 3.32812 35.5469 0.953125
Q30.9531 -1.42188 24.3125 -1.42188
Q15.9219 -1.42188 10.9531 3.29688
Q6 8.01562 6 15.9219
Q6 25.1406 12.1719 29.8281
Q18.3594 34.5156 30.6094 34.5156
L43.2188 34.5156
L43.2188 35.4062
Q43.2188 41.6094 39.1406 45
Q35.0625 48.3906 27.6875 48.3906
Q23 48.3906 18.5469 47.2656
Q14.1094 46.1406 10.0156 43.8906
L10.0156 52.2031
Q14.9375 54.1094 19.5781 55.0469
Q24.2188 56 28.6094 56
Q40.4844 56 46.3438 49.8438
Q52.2031 43.7031 52.2031 31.2031" id="BitstreamVeraSans-Roman-61"/>
      <path d="
M44.2812 53.0781
L44.2812 44.5781
Q40.4844 46.5312 36.375 47.5
Q32.2812 48.4844 27.875 48.4844
Q21.1875 48.4844 17.8438 46.4375
Q14.5 44.3906 14.5 40.2812
Q14.5 37.1562 16.8906 35.375
Q19.2812 33.5938 26.5156 31.9844
L29.5938 31.2969
Q39.1562 29.25 43.1875 25.5156
Q47.2188 21.7812 47.2188 15.0938
Q47.2188 7.46875 41.1875 3.01562
Q35.1562 -1.42188 24.6094 -1.42188
Q20.2188 -1.42188 15.4531 -0.5625
Q10.6875 0.296875 5.42188 2
L5.42188 11.2812
Q10.4062 8.6875 15.2344 7.39062
Q20.0625 6.10938 24.8125 6.10938
Q31.1562 6.10938 34.5625 8.28125
Q37.9844 10.4531 37.9844 14.4062
Q37.9844 18.0625 35.5156 20.0156
Q33.0625 21.9688 24.7031 23.7812
L21.5781 24.5156
Q13.2344 26.2656 9.51562 29.9062
Q5.8125 33.5469 5.8125 39.8906
Q5.8125 47.6094 11.2812 51.7969
Q16.75 56 26.8125 56
Q31.7812 56 36.1719 55.2656
Q40.5781 54.5469 44.2812 53.0781" id="BitstreamVeraSans-Roman-73"/>
     </defs>
     <g style="fill:#262626;" transform="translate(507.218359375 347.28640625)scale(0.11 -0.11)">
      <use xlink:href="#BitstreamVeraSans-Roman-46"/>
      <use x="50.26953125" xlink:href="#BitstreamVeraSans-Roman-69"/>
      <use x="78.052734375" xlink:href="#BitstreamVeraSans-Roman-65"/>
      <use x="139.576171875" xlink:href="#BitstreamVeraSans-Roman-6c"/>
      <use x="167.359375" xlink:href="#BitstreamVeraSans-Roman-64"/>
      <use x="230.8359375" xlink:href="#BitstreamVeraSans-Roman-20"/>
      <use x="262.623046875" xlink:href="#BitstreamVeraSans-Roman-47"/>
      <use x="340.11328125" xlink:href="#BitstreamVeraSans-Roman-6f"/>
      <use x="401.294921875" xlink:href="#BitstreamVeraSans-Roman-61"/>
      <use x="462.57421875" xlink:href="#BitstreamVeraSans-Roman-6c"/>
      <use x="490.357421875" xlink:href="#BitstreamVeraSans-Roman-73"/>
      <use x="542.45703125" xlink:href="#BitstreamVeraSans-Roman-20"/>
      <use x="574.244140625" xlink:href="#BitstreamVeraSans-Roman-4d"/>
      <use x="660.5234375" xlink:href="#BitstreamVeraSans-Roman-61"/>
      <use x="721.802734375" xlink:href="#BitstreamVeraSans-Roman-64"/>
      <use x="785.279296875" xlink:href="#BitstreamVeraSans-Roman-65"/>
     </g>
    </g>
   </g>
   <g id="matplotlib.axis_4">
    <g id="ytick_8">
     <g id="line2d_68">
      <path clip-path="url(#p8f0a1a9076)" d="
M430.412 317.25
L676.588 317.25" style="fill:none;stroke:#ffffff;stroke-linecap:round;"/>
     </g>
     <g id="line2d_69">
      <g>
       <use style="fill:#262626;stroke:#262626;" x="430.411764706" xlink:href="#m219da94a98" y="317.25"/>
      </g>
     </g>
     <g id="line2d_70">
      <g>
       <use style="fill:#262626;stroke:#262626;" x="676.588235294" xlink:href="#m219da94a98" y="317.25"/>
      </g>
     </g>
     <g id="text_25">
      <!-- -15 -->
      <g style="fill:#262626;" transform="translate(408.441452206 320.009375)scale(0.1 -0.1)">
       <use xlink:href="#BitstreamVeraSans-Roman-2d"/>
       <use x="36.083984375" xlink:href="#BitstreamVeraSans-Roman-31"/>
       <use x="99.70703125" xlink:href="#BitstreamVeraSans-Roman-35"/>
      </g>
     </g>
    </g>
    <g id="ytick_9">
     <g id="line2d_71">
      <path clip-path="url(#p8f0a1a9076)" d="
M430.412 282.375
L676.588 282.375" style="fill:none;stroke:#ffffff;stroke-linecap:round;"/>
     </g>
     <g id="line2d_72">
      <g>
       <use style="fill:#262626;stroke:#262626;" x="430.411764706" xlink:href="#m219da94a98" y="282.375"/>
      </g>
     </g>
     <g id="line2d_73">
      <g>
       <use style="fill:#262626;stroke:#262626;" x="676.588235294" xlink:href="#m219da94a98" y="282.375"/>
      </g>
     </g>
     <g id="text_26">
      <!-- -10 -->
      <g style="fill:#262626;" transform="translate(408.232077206 285.134375)scale(0.1 -0.1)">
       <use xlink:href="#BitstreamVeraSans-Roman-2d"/>
       <use x="36.083984375" xlink:href="#BitstreamVeraSans-Roman-31"/>
       <use x="99.70703125" xlink:href="#BitstreamVeraSans-Roman-30"/>
      </g>
     </g>
    </g>
    <g id="ytick_10">
     <g id="line2d_74">
      <path clip-path="url(#p8f0a1a9076)" d="
M430.412 247.5
L676.588 247.5" style="fill:none;stroke:#ffffff;stroke-linecap:round;"/>
     </g>
     <g id="line2d_75">
      <g>
       <use style="fill:#262626;stroke:#262626;" x="430.411764706" xlink:href="#m219da94a98" y="247.5"/>
      </g>
     </g>
     <g id="line2d_76">
      <g>
       <use style="fill:#262626;stroke:#262626;" x="676.588235294" xlink:href="#m219da94a98" y="247.5"/>
      </g>
     </g>
     <g id="text_27">
      <!-- -5 -->
      <g style="fill:#262626;" transform="translate(414.803952206 250.259375)scale(0.1 -0.1)">
       <use xlink:href="#BitstreamVeraSans-Roman-2d"/>
       <use x="36.083984375" xlink:href="#BitstreamVeraSans-Roman-35"/>
      </g>
     </g>
    </g>
    <g id="ytick_11">
     <g id="line2d_77">
      <path clip-path="url(#p8f0a1a9076)" d="
M430.412 212.625
L676.588 212.625" style="fill:none;stroke:#ffffff;stroke-linecap:round;"/>
     </g>
     <g id="line2d_78">
      <g>
       <use style="fill:#262626;stroke:#262626;" x="430.411764706" xlink:href="#m219da94a98" y="212.625"/>
      </g>
     </g>
     <g id="line2d_79">
      <g>
       <use style="fill:#262626;stroke:#262626;" x="676.588235294" xlink:href="#m219da94a98" y="212.625"/>
      </g>
     </g>
     <g id="text_28">
      <!-- 0 -->
      <g style="fill:#262626;" transform="translate(418.372702206 215.384375)scale(0.1 -0.1)">
       <use xlink:href="#BitstreamVeraSans-Roman-30"/>
      </g>
     </g>
    </g>
    <g id="ytick_12">
     <g id="line2d_80">
      <path clip-path="url(#p8f0a1a9076)" d="
M430.412 177.75
L676.588 177.75" style="fill:none;stroke:#ffffff;stroke-linecap:round;"/>
     </g>
     <g id="line2d_81">
      <g>
       <use style="fill:#262626;stroke:#262626;" x="430.411764706" xlink:href="#m219da94a98" y="177.75"/>
      </g>
     </g>
     <g id="line2d_82">
      <g>
       <use style="fill:#262626;stroke:#262626;" x="676.588235294" xlink:href="#m219da94a98" y="177.75"/>
      </g>
     </g>
     <g id="text_29">
      <!-- 5 -->
      <g style="fill:#262626;" transform="translate(418.694577206 180.509375)scale(0.1 -0.1)">
       <use xlink:href="#BitstreamVeraSans-Roman-35"/>
      </g>
     </g>
    </g>
    <g id="ytick_13">
     <g id="line2d_83">
      <path clip-path="url(#p8f0a1a9076)" d="
M430.412 142.875
L676.588 142.875" style="fill:none;stroke:#ffffff;stroke-linecap:round;"/>
     </g>
     <g id="line2d_84">
      <g>
       <use style="fill:#262626;stroke:#262626;" x="430.411764706" xlink:href="#m219da94a98" y="142.875"/>
      </g>
     </g>
     <g id="line2d_85">
      <g>
       <use style="fill:#262626;stroke:#262626;" x="676.588235294" xlink:href="#m219da94a98" y="142.875"/>
      </g>
     </g>
     <g id="text_30">
      <!-- 10 -->
      <g style="fill:#262626;" transform="translate(412.449264706 145.634375)scale(0.1 -0.1)">
       <use xlink:href="#BitstreamVeraSans-Roman-31"/>
       <use x="63.623046875" xlink:href="#BitstreamVeraSans-Roman-30"/>
      </g>
     </g>
    </g>
    <g id="ytick_14">
     <g id="line2d_86">
      <path clip-path="url(#p8f0a1a9076)" d="
M430.412 108
L676.588 108" style="fill:none;stroke:#ffffff;stroke-linecap:round;"/>
     </g>
     <g id="line2d_87">
      <g>
       <use style="fill:#262626;stroke:#262626;" x="430.411764706" xlink:href="#m219da94a98" y="108.0"/>
      </g>
     </g>
     <g id="line2d_88">
      <g>
       <use style="fill:#262626;stroke:#262626;" x="676.588235294" xlink:href="#m219da94a98" y="108.0"/>
      </g>
     </g>
     <g id="text_31">
      <!-- 15 -->
      <g style="fill:#262626;" transform="translate(412.658639706 110.759375)scale(0.1 -0.1)">
       <use xlink:href="#BitstreamVeraSans-Roman-31"/>
       <use x="63.623046875" xlink:href="#BitstreamVeraSans-Roman-35"/>
      </g>
     </g>
    </g>
   </g>
   <g id="PathCollection_2">
    <g clip-path="url(#p8f0a1a9076)">
     <use style="fill:#4c72b0;fill-opacity:0.8;" x="471.441176471" xlink:href="#m501da90a0f" y="254.475"/>
     <use style="fill:#4c72b0;fill-opacity:0.8;" x="553.5" xlink:href="#m501da90a0f" y="219.6"/>
     <use style="fill:#4c72b0;fill-opacity:0.8;" x="635.558823529" xlink:href="#m501da90a0f" y="156.825"/>
     <use style="fill:#4c72b0;fill-opacity:0.8;" x="471.441176471" xlink:href="#m501da90a0f" y="247.5"/>
    </g>
   </g>
   <g id="PolyCollection_2">
    <defs>
     <path d="
M430.412 -832.569
L430.412 -766.238
L432.898 -768.14
L435.385 -770.042
L437.872 -771.944
L440.358 -773.847
L442.845 -775.749
L445.332 -777.651
L447.818 -779.553
L450.305 -781.456
L452.791 -783.358
L455.278 -785.26
L457.765 -787.163
L460.251 -789.065
L462.738 -790.967
L465.225 -792.869
L467.711 -794.772
L470.198 -796.674
L472.684 -798.576
L475.171 -800.478
L477.658 -802.381
L480.144 -804.283
L482.631 -806.185
L485.118 -808.088
L487.604 -809.99
L490.091 -811.892
L492.578 -813.794
L495.064 -815.697
L497.551 -817.599
L500.037 -819.501
L502.524 -821.403
L505.011 -823.306
L507.497 -825.208
L509.984 -827.11
L512.471 -827.113
L514.957 -826.998
L517.444 -826.883
L519.93 -826.768
L522.417 -826.653
L524.904 -826.538
L527.39 -826.423
L529.877 -826.308
L532.364 -826.193
L534.85 -826.077
L537.337 -825.962
L539.824 -825.847
L542.31 -825.732
L544.797 -825.617
L547.283 -825.502
L549.77 -825.387
L552.257 -825.272
L554.743 -825.157
L557.23 -825.042
L559.717 -824.926
L562.203 -824.811
L564.69 -824.696
L567.176 -824.581
L569.663 -824.466
L572.15 -824.351
L574.636 -824.236
L577.123 -824.121
L579.61 -824.006
L582.096 -823.891
L584.583 -823.775
L587.07 -823.66
L589.556 -823.545
L592.043 -823.43
L594.529 -823.315
L597.016 -823.2
L599.503 -823.085
L601.989 -822.97
L604.476 -822.855
L606.963 -822.74
L609.449 -822.625
L611.936 -822.509
L614.422 -822.394
L616.909 -822.279
L619.396 -822.164
L621.882 -822.049
L624.369 -821.934
L626.856 -821.819
L629.342 -821.704
L631.829 -821.589
L634.316 -821.474
L636.802 -821.358
L639.289 -821.243
L641.775 -821.128
L644.262 -821.013
L646.749 -820.898
L649.235 -820.783
L651.722 -820.668
L654.209 -820.553
L656.695 -820.438
L659.182 -820.323
L661.668 -820.207
L664.155 -820.092
L666.642 -819.977
L669.128 -819.862
L671.615 -819.747
L674.102 -819.632
L676.588 -819.517
L676.588 -954.563
L676.588 -954.563
L674.102 -952.66
L671.615 -950.758
L669.128 -948.856
L666.642 -946.953
L664.155 -945.051
L661.668 -943.149
L659.182 -941.247
L656.695 -939.344
L654.209 -937.442
L651.722 -935.54
L649.235 -933.638
L646.749 -931.735
L644.262 -929.833
L641.775 -927.931
L639.289 -926.028
L636.802 -924.126
L634.316 -922.488
L631.829 -921.114
L629.342 -919.74
L626.856 -918.366
L624.369 -916.993
L621.882 -915.619
L619.396 -914.245
L616.909 -912.871
L614.422 -911.497
L611.936 -910.123
L609.449 -908.749
L606.963 -907.376
L604.476 -906.002
L601.989 -904.628
L599.503 -903.254
L597.016 -901.88
L594.529 -900.506
L592.043 -899.132
L589.556 -897.759
L587.07 -896.385
L584.583 -895.011
L582.096 -893.637
L579.61 -892.263
L577.123 -890.889
L574.636 -889.515
L572.15 -888.141
L569.663 -886.768
L567.176 -885.394
L564.69 -884.02
L562.203 -882.646
L559.717 -881.272
L557.23 -879.898
L554.743 -878.524
L552.257 -877.151
L549.77 -875.777
L547.283 -874.403
L544.797 -873.029
L542.31 -871.655
L539.824 -870.281
L537.337 -868.907
L534.85 -867.534
L532.364 -866.16
L529.877 -864.786
L527.39 -863.412
L524.904 -862.038
L522.417 -860.664
L519.93 -859.29
L517.444 -857.916
L514.957 -856.543
L512.471 -855.169
L509.984 -853.795
L507.497 -852.421
L505.011 -851.047
L502.524 -849.673
L500.037 -848.299
L497.551 -846.926
L495.064 -845.552
L492.578 -844.178
L490.091 -842.804
L487.604 -841.43
L485.118 -840.056
L482.631 -838.682
L480.144 -837.309
L477.658 -835.935
L475.171 -834.561
L472.684 -833.187
L470.198 -832.077
L467.711 -831.232
L465.225 -831.031
L462.738 -831.141
L460.251 -831.251
L457.765 -831.361
L455.278 -831.47
L452.791 -831.58
L450.305 -831.69
L447.818 -831.8
L445.332 -831.91
L442.845 -832.02
L440.358 -832.13
L437.872 -832.239
L435.385 -832.349
L432.898 -832.459
L430.412 -832.569
z
" id="mda8efc72d6" style="stroke:#4c72b0;stroke-opacity:0.15;stroke-width:0.3;"/>
    </defs>
    <g clip-path="url(#p8f0a1a9076)">
     <use style="fill:#4c72b0;fill-opacity:0.15;stroke:#4c72b0;stroke-opacity:0.15;stroke-width:0.3;" x="0.0" xlink:href="#mda8efc72d6" y="1080.0"/>
    </g>
   </g>
   <g id="line2d_89">
    <path clip-path="url(#p8f0a1a9076)" d="
M430.412 276.668
L432.898 275.285
L435.385 273.901
L437.872 272.518
L440.358 271.134
L442.845 269.751
L445.332 268.367
L447.818 266.984
L450.305 265.6
L452.791 264.217
L455.278 262.833
L457.765 261.45
L460.251 260.067
L462.738 258.683
L465.225 257.3
L467.711 255.916
L470.198 254.533
L472.684 253.149
L475.171 251.766
L477.658 250.382
L480.144 248.999
L482.631 247.615
L485.118 246.232
L487.604 244.848
L490.091 243.465
L492.578 242.081
L495.064 240.698
L497.551 239.314
L500.037 237.931
L502.524 236.548
L505.011 235.164
L507.497 233.781
L509.984 232.397
L512.471 231.014
L514.957 229.63
L517.444 228.247
L519.93 226.863
L522.417 225.48
L524.904 224.096
L527.39 222.713
L529.877 221.329
L532.364 219.946
L534.85 218.562
L537.337 217.179
L539.824 215.795
L542.31 214.412
L544.797 213.029
L547.283 211.645
L549.77 210.262
L552.257 208.878
L554.743 207.495
L557.23 206.111
L559.717 204.728
L562.203 203.344
L564.69 201.961
L567.176 200.577
L569.663 199.194
L572.15 197.81
L574.636 196.427
L577.123 195.043
L579.61 193.66
L582.096 192.276
L584.583 190.893
L587.07 189.51
L589.556 188.126
L592.043 186.743
L594.529 185.359
L597.016 183.976
L599.503 182.592
L601.989 181.209
L604.476 179.825
L606.963 178.442
L609.449 177.058
L611.936 175.675
L614.422 174.291
L616.909 172.908
L619.396 171.524
L621.882 170.141
L624.369 168.757
L626.856 167.374
L629.342 165.99
L631.829 164.607
L634.316 163.224
L636.802 161.84
L639.289 160.457
L641.775 159.073
L644.262 157.69
L646.749 156.306
L649.235 154.923
L651.722 153.539
L654.209 152.156
L656.695 150.772
L659.182 149.389
L661.668 148.005
L664.155 146.622
L666.642 145.238
L669.128 143.855
L671.615 142.471
L674.102 141.088
L676.588 139.705" style="fill:none;stroke:#4c72b0;stroke-linecap:round;stroke-width:2.625;"/>
   </g>
   <g id="patch_8">
    <path d="
M430.412 108
L676.588 108" style="fill:none;"/>
   </g>
   <g id="patch_9">
    <path d="
M676.588 317.25
L676.588 108" style="fill:none;"/>
   </g>
   <g id="patch_10">
    <path d="
M430.412 317.25
L676.588 317.25" style="fill:none;"/>
   </g>
   <g id="patch_11">
    <path d="
M430.412 317.25
L430.412 108" style="fill:none;"/>
   </g>
  </g>
  <g id="axes_3">
   <g id="patch_12">
    <path d="
M725.824 317.25
L972 317.25
L972 108
L725.824 108
z
" style="fill:#eaeaf2;"/>
   </g>
   <g id="matplotlib.axis_5">
    <g id="xtick_16">
     <g id="line2d_90">
      <path clip-path="url(#pd8ed550d8a)" d="
M725.824 317.25
L725.824 108" style="fill:none;stroke:#ffffff;stroke-linecap:round;"/>
     </g>
     <g id="line2d_91">
      <g>
       <use style="fill:#262626;stroke:#262626;" x="725.823529412" xlink:href="#m219da94a98" y="317.25"/>
      </g>
     </g>
     <g id="line2d_92">
      <g>
       <use style="fill:#262626;stroke:#262626;" x="725.823529412" xlink:href="#m219da94a98" y="108.0"/>
      </g>
     </g>
     <g id="text_32">
      <!-- 7 -->
      <defs>
       <path d="
M8.20312 72.9062
L55.0781 72.9062
L55.0781 68.7031
L28.6094 0
L18.3125 0
L43.2188 64.5938
L8.20312 64.5938
z
" id="BitstreamVeraSans-Roman-37"/>
      </defs>
      <g style="fill:#262626;" transform="translate(723.479779412 331.8484375)scale(0.1 -0.1)">
       <use xlink:href="#BitstreamVeraSans-Roman-37"/>
      </g>
     </g>
    </g>
    <g id="xtick_17">
     <g id="line2d_93">
      <path clip-path="url(#pd8ed550d8a)" d="
M766.853 317.25
L766.853 108" style="fill:none;stroke:#ffffff;stroke-linecap:round;"/>
     </g>
     <g id="line2d_94">
      <g>
       <use style="fill:#262626;stroke:#262626;" x="766.852941176" xlink:href="#m219da94a98" y="317.25"/>
      </g>
     </g>
     <g id="line2d_95">
      <g>
       <use style="fill:#262626;stroke:#262626;" x="766.852941176" xlink:href="#m219da94a98" y="108.0"/>
      </g>
     </g>
     <g id="text_33">
      <!-- 8 -->
      <g style="fill:#262626;" transform="translate(764.352941176 331.8484375)scale(0.1 -0.1)">
       <use xlink:href="#BitstreamVeraSans-Roman-38"/>
      </g>
     </g>
    </g>
    <g id="xtick_18">
     <g id="line2d_96">
      <path clip-path="url(#pd8ed550d8a)" d="
M807.882 317.25
L807.882 108" style="fill:none;stroke:#ffffff;stroke-linecap:round;"/>
     </g>
     <g id="line2d_97">
      <g>
       <use style="fill:#262626;stroke:#262626;" x="807.882352941" xlink:href="#m219da94a98" y="317.25"/>
      </g>
     </g>
     <g id="line2d_98">
      <g>
       <use style="fill:#262626;stroke:#262626;" x="807.882352941" xlink:href="#m219da94a98" y="108.0"/>
      </g>
     </g>
     <g id="text_34">
      <!-- 9 -->
      <g style="fill:#262626;" transform="translate(805.367509191 331.8484375)scale(0.1 -0.1)">
       <use xlink:href="#BitstreamVeraSans-Roman-39"/>
      </g>
     </g>
    </g>
    <g id="xtick_19">
     <g id="line2d_99">
      <path clip-path="url(#pd8ed550d8a)" d="
M848.912 317.25
L848.912 108" style="fill:none;stroke:#ffffff;stroke-linecap:round;"/>
     </g>
     <g id="line2d_100">
      <g>
       <use style="fill:#262626;stroke:#262626;" x="848.911764706" xlink:href="#m219da94a98" y="317.25"/>
      </g>
     </g>
     <g id="line2d_101">
      <g>
       <use style="fill:#262626;stroke:#262626;" x="848.911764706" xlink:href="#m219da94a98" y="108.0"/>
      </g>
     </g>
     <g id="text_35">
      <!-- 10 -->
      <g style="fill:#262626;" transform="translate(843.430514706 331.8484375)scale(0.1 -0.1)">
       <use xlink:href="#BitstreamVeraSans-Roman-31"/>
       <use x="63.623046875" xlink:href="#BitstreamVeraSans-Roman-30"/>
      </g>
     </g>
    </g>
    <g id="xtick_20">
     <g id="line2d_102">
      <path clip-path="url(#pd8ed550d8a)" d="
M889.941 317.25
L889.941 108" style="fill:none;stroke:#ffffff;stroke-linecap:round;"/>
     </g>
     <g id="line2d_103">
      <g>
       <use style="fill:#262626;stroke:#262626;" x="889.941176471" xlink:href="#m219da94a98" y="317.25"/>
      </g>
     </g>
     <g id="line2d_104">
      <g>
       <use style="fill:#262626;stroke:#262626;" x="889.941176471" xlink:href="#m219da94a98" y="108.0"/>
      </g>
     </g>
     <g id="text_36">
      <!-- 11 -->
      <g style="fill:#262626;" transform="translate(884.589613971 331.8484375)scale(0.1 -0.1)">
       <use xlink:href="#BitstreamVeraSans-Roman-31"/>
       <use x="63.623046875" xlink:href="#BitstreamVeraSans-Roman-31"/>
      </g>
     </g>
    </g>
    <g id="xtick_21">
     <g id="line2d_105">
      <path clip-path="url(#pd8ed550d8a)" d="
M930.971 317.25
L930.971 108" style="fill:none;stroke:#ffffff;stroke-linecap:round;"/>
     </g>
     <g id="line2d_106">
      <g>
       <use style="fill:#262626;stroke:#262626;" x="930.970588235" xlink:href="#m219da94a98" y="317.25"/>
      </g>
     </g>
     <g id="line2d_107">
      <g>
       <use style="fill:#262626;stroke:#262626;" x="930.970588235" xlink:href="#m219da94a98" y="108.0"/>
      </g>
     </g>
     <g id="text_37">
      <!-- 12 -->
      <g style="fill:#262626;" transform="translate(925.658088235 331.8484375)scale(0.1 -0.1)">
       <use xlink:href="#BitstreamVeraSans-Roman-31"/>
       <use x="63.623046875" xlink:href="#BitstreamVeraSans-Roman-32"/>
      </g>
     </g>
    </g>
    <g id="xtick_22">
     <g id="line2d_108">
      <path clip-path="url(#pd8ed550d8a)" d="
M972 317.25
L972 108" style="fill:none;stroke:#ffffff;stroke-linecap:round;"/>
     </g>
     <g id="line2d_109">
      <g>
       <use style="fill:#262626;stroke:#262626;" x="972.0" xlink:href="#m219da94a98" y="317.25"/>
      </g>
     </g>
     <g id="line2d_110">
      <g>
       <use style="fill:#262626;stroke:#262626;" x="972.0" xlink:href="#m219da94a98" y="108.0"/>
      </g>
     </g>
     <g id="text_38">
      <!-- 13 -->
      <g style="fill:#262626;" transform="translate(966.5875 331.8484375)scale(0.1 -0.1)">
       <use xlink:href="#BitstreamVeraSans-Roman-31"/>
       <use x="63.623046875" xlink:href="#BitstreamVeraSans-Roman-33"/>
      </g>
     </g>
    </g>
    <g id="text_39">
     <!-- nan -->
     <g style="fill:#262626;" transform="translate(839.535983456 347.28640625)scale(0.11 -0.11)">
      <use xlink:href="#BitstreamVeraSans-Roman-6e"/>
      <use x="63.37890625" xlink:href="#BitstreamVeraSans-Roman-61"/>
      <use x="124.658203125" xlink:href="#BitstreamVeraSans-Roman-6e"/>
     </g>
    </g>
   </g>
   <g id="matplotlib.axis_6">
    <g id="ytick_15">
     <g id="line2d_111">
      <path clip-path="url(#pd8ed550d8a)" d="
M725.824 317.25
L972 317.25" style="fill:none;stroke:#ffffff;stroke-linecap:round;"/>
     </g>
     <g id="line2d_112">
      <g>
       <use style="fill:#262626;stroke:#262626;" x="725.823529412" xlink:href="#m219da94a98" y="317.25"/>
      </g>
     </g>
     <g id="line2d_113">
      <g>
       <use style="fill:#262626;stroke:#262626;" x="972.0" xlink:href="#m219da94a98" y="317.25"/>
      </g>
     </g>
     <g id="text_40">
      <!-- -15 -->
      <g style="fill:#262626;" transform="translate(703.853216912 320.009375)scale(0.1 -0.1)">
       <use xlink:href="#BitstreamVeraSans-Roman-2d"/>
       <use x="36.083984375" xlink:href="#BitstreamVeraSans-Roman-31"/>
       <use x="99.70703125" xlink:href="#BitstreamVeraSans-Roman-35"/>
      </g>
     </g>
    </g>
    <g id="ytick_16">
     <g id="line2d_114">
      <path clip-path="url(#pd8ed550d8a)" d="
M725.824 282.375
L972 282.375" style="fill:none;stroke:#ffffff;stroke-linecap:round;"/>
     </g>
     <g id="line2d_115">
      <g>
       <use style="fill:#262626;stroke:#262626;" x="725.823529412" xlink:href="#m219da94a98" y="282.375"/>
      </g>
     </g>
     <g id="line2d_116">
      <g>
       <use style="fill:#262626;stroke:#262626;" x="972.0" xlink:href="#m219da94a98" y="282.375"/>
      </g>
     </g>
     <g id="text_41">
      <!-- -10 -->
      <g style="fill:#262626;" transform="translate(703.643841912 285.134375)scale(0.1 -0.1)">
       <use xlink:href="#BitstreamVeraSans-Roman-2d"/>
       <use x="36.083984375" xlink:href="#BitstreamVeraSans-Roman-31"/>
       <use x="99.70703125" xlink:href="#BitstreamVeraSans-Roman-30"/>
      </g>
     </g>
    </g>
    <g id="ytick_17">
     <g id="line2d_117">
      <path clip-path="url(#pd8ed550d8a)" d="
M725.824 247.5
L972 247.5" style="fill:none;stroke:#ffffff;stroke-linecap:round;"/>
     </g>
     <g id="line2d_118">
      <g>
       <use style="fill:#262626;stroke:#262626;" x="725.823529412" xlink:href="#m219da94a98" y="247.5"/>
      </g>
     </g>
     <g id="line2d_119">
      <g>
       <use style="fill:#262626;stroke:#262626;" x="972.0" xlink:href="#m219da94a98" y="247.5"/>
      </g>
     </g>
     <g id="text_42">
      <!-- -5 -->
      <g style="fill:#262626;" transform="translate(710.215716912 250.259375)scale(0.1 -0.1)">
       <use xlink:href="#BitstreamVeraSans-Roman-2d"/>
       <use x="36.083984375" xlink:href="#BitstreamVeraSans-Roman-35"/>
      </g>
     </g>
    </g>
    <g id="ytick_18">
     <g id="line2d_120">
      <path clip-path="url(#pd8ed550d8a)" d="
M725.824 212.625
L972 212.625" style="fill:none;stroke:#ffffff;stroke-linecap:round;"/>
     </g>
     <g id="line2d_121">
      <g>
       <use style="fill:#262626;stroke:#262626;" x="725.823529412" xlink:href="#m219da94a98" y="212.625"/>
      </g>
     </g>
     <g id="line2d_122">
      <g>
       <use style="fill:#262626;stroke:#262626;" x="972.0" xlink:href="#m219da94a98" y="212.625"/>
      </g>
     </g>
     <g id="text_43">
      <!-- 0 -->
      <g style="fill:#262626;" transform="translate(713.784466912 215.384375)scale(0.1 -0.1)">
       <use xlink:href="#BitstreamVeraSans-Roman-30"/>
      </g>
     </g>
    </g>
    <g id="ytick_19">
     <g id="line2d_123">
      <path clip-path="url(#pd8ed550d8a)" d="
M725.824 177.75
L972 177.75" style="fill:none;stroke:#ffffff;stroke-linecap:round;"/>
     </g>
     <g id="line2d_124">
      <g>
       <use style="fill:#262626;stroke:#262626;" x="725.823529412" xlink:href="#m219da94a98" y="177.75"/>
      </g>
     </g>
     <g id="line2d_125">
      <g>
       <use style="fill:#262626;stroke:#262626;" x="972.0" xlink:href="#m219da94a98" y="177.75"/>
      </g>
     </g>
     <g id="text_44">
      <!-- 5 -->
      <g style="fill:#262626;" transform="translate(714.106341912 180.509375)scale(0.1 -0.1)">
       <use xlink:href="#BitstreamVeraSans-Roman-35"/>
      </g>
     </g>
    </g>
    <g id="ytick_20">
     <g id="line2d_126">
      <path clip-path="url(#pd8ed550d8a)" d="
M725.824 142.875
L972 142.875" style="fill:none;stroke:#ffffff;stroke-linecap:round;"/>
     </g>
     <g id="line2d_127">
      <g>
       <use style="fill:#262626;stroke:#262626;" x="725.823529412" xlink:href="#m219da94a98" y="142.875"/>
      </g>
     </g>
     <g id="line2d_128">
      <g>
       <use style="fill:#262626;stroke:#262626;" x="972.0" xlink:href="#m219da94a98" y="142.875"/>
      </g>
     </g>
     <g id="text_45">
      <!-- 10 -->
      <g style="fill:#262626;" transform="translate(707.861029412 145.634375)scale(0.1 -0.1)">
       <use xlink:href="#BitstreamVeraSans-Roman-31"/>
       <use x="63.623046875" xlink:href="#BitstreamVeraSans-Roman-30"/>
      </g>
     </g>
    </g>
    <g id="ytick_21">
     <g id="line2d_129">
      <path clip-path="url(#pd8ed550d8a)" d="
M725.824 108
L972 108" style="fill:none;stroke:#ffffff;stroke-linecap:round;"/>
     </g>
     <g id="line2d_130">
      <g>
       <use style="fill:#262626;stroke:#262626;" x="725.823529412" xlink:href="#m219da94a98" y="108.0"/>
      </g>
     </g>
     <g id="line2d_131">
      <g>
       <use style="fill:#262626;stroke:#262626;" x="972.0" xlink:href="#m219da94a98" y="108.0"/>
      </g>
     </g>
     <g id="text_46">
      <!-- 15 -->
      <g style="fill:#262626;" transform="translate(708.070404412 110.759375)scale(0.1 -0.1)">
       <use xlink:href="#BitstreamVeraSans-Roman-31"/>
       <use x="63.623046875" xlink:href="#BitstreamVeraSans-Roman-35"/>
      </g>
     </g>
    </g>
   </g>
   <g id="PathCollection_3">
    <g clip-path="url(#pd8ed550d8a)">
     <use style="fill:#4c72b0;fill-opacity:0.8;" x="930.970588235" xlink:href="#m501da90a0f" y="254.475"/>
     <use style="fill:#4c72b0;fill-opacity:0.8;" x="889.941176471" xlink:href="#m501da90a0f" y="219.6"/>
     <use style="fill:#4c72b0;fill-opacity:0.8;" x="766.852941176" xlink:href="#m501da90a0f" y="156.825"/>
     <use style="fill:#4c72b0;fill-opacity:0.8;" x="889.941176471" xlink:href="#m501da90a0f" y="247.5"/>
    </g>
   </g>
   <g id="PolyCollection_3">
    <defs>
     <path d="
M725.824 -999.9
L725.824 -853.885
L728.31 -853.77
L730.797 -853.655
L733.283 -853.539
L735.77 -853.424
L738.257 -853.309
L740.743 -853.193
L743.23 -853.078
L745.717 -852.963
L748.203 -852.848
L750.69 -852.732
L753.176 -852.617
L755.663 -852.502
L758.15 -852.386
L760.636 -852.271
L763.123 -852.156
L765.61 -852.04
L768.096 -851.925
L770.583 -851.81
L773.07 -851.695
L775.556 -851.579
L778.043 -851.393
L780.529 -850.977
L783.016 -850.561
L785.503 -850.145
L787.989 -849.729
L790.476 -849.313
L792.963 -848.897
L795.449 -848.481
L797.936 -848.065
L800.422 -847.649
L802.909 -847.233
L805.396 -846.817
L807.882 -846.401
L810.369 -845.985
L812.856 -845.569
L815.342 -845.153
L817.829 -844.738
L820.316 -844.322
L822.802 -843.906
L825.289 -843.49
L827.775 -843.068
L830.262 -842.645
L832.749 -842.223
L835.235 -841.8
L837.722 -841.377
L840.209 -840.955
L842.695 -840.532
L845.182 -840.109
L847.668 -839.686
L850.155 -839.264
L852.642 -838.841
L855.128 -838.418
L857.615 -837.995
L860.102 -837.573
L862.588 -837.15
L865.075 -836.727
L867.561 -836.305
L870.048 -835.882
L872.535 -835.459
L875.021 -835.036
L877.508 -834.614
L879.995 -834.191
L882.481 -833.768
L884.968 -833.345
L887.455 -832.923
L889.941 -832.5
L892.428 -830.668
L894.914 -828.836
L897.401 -827.005
L899.888 -825.173
L902.374 -823.341
L904.861 -821.509
L907.348 -819.677
L909.834 -817.845
L912.321 -816.014
L914.807 -814.182
L917.294 -812.35
L919.781 -810.518
L922.267 -808.686
L924.754 -806.855
L927.241 -805.023
L929.727 -803.191
L932.214 -801.359
L934.701 -799.527
L937.187 -797.695
L939.674 -795.864
L942.16 -794.032
L944.647 -792.2
L947.134 -790.368
L949.62 -788.536
L952.107 -786.705
L954.594 -784.873
L957.08 -783.041
L959.567 -781.209
L962.053 -779.377
L964.54 -777.545
L967.027 -775.714
L969.513 -773.882
L972 -772.05
L972 -850.909
L972 -850.909
L969.513 -850.986
L967.027 -851.062
L964.54 -851.138
L962.053 -851.214
L959.567 -851.291
L957.08 -851.367
L954.594 -851.443
L952.107 -851.519
L949.62 -851.595
L947.134 -851.672
L944.647 -851.748
L942.16 -851.824
L939.674 -851.9
L937.187 -851.977
L934.701 -852.053
L932.214 -852.129
L929.727 -852.205
L927.241 -852.282
L924.754 -852.358
L922.267 -852.434
L919.781 -852.51
L917.294 -852.586
L914.807 -852.663
L912.321 -852.739
L909.834 -852.815
L907.348 -852.891
L904.861 -852.968
L902.374 -854.059
L899.888 -855.327
L897.401 -856.595
L894.914 -857.864
L892.428 -859.132
L889.941 -860.4
L887.455 -862.514
L884.968 -864.627
L882.481 -866.741
L879.995 -868.855
L877.508 -870.968
L875.021 -873.082
L872.535 -875.195
L870.048 -877.309
L867.561 -879.423
L865.075 -881.536
L862.588 -883.65
L860.102 -885.764
L857.615 -887.877
L855.128 -889.991
L852.642 -892.105
L850.155 -894.218
L847.668 -896.332
L845.182 -898.445
L842.695 -900.559
L840.209 -902.673
L837.722 -904.786
L835.235 -906.9
L832.749 -909.014
L830.262 -911.127
L827.775 -913.241
L825.289 -915.355
L822.802 -917.468
L820.316 -919.582
L817.829 -921.695
L815.342 -923.809
L812.856 -925.923
L810.369 -928.036
L807.882 -930.15
L805.396 -932.264
L802.909 -934.377
L800.422 -936.491
L797.936 -938.605
L795.449 -940.718
L792.963 -942.832
L790.476 -944.945
L787.989 -947.059
L785.503 -949.173
L783.016 -951.286
L780.529 -953.4
L778.043 -955.514
L775.556 -957.627
L773.07 -959.741
L770.583 -961.855
L768.096 -963.968
L765.61 -966.082
L763.123 -968.195
L760.636 -970.309
L758.15 -972.423
L755.663 -974.536
L753.176 -976.65
L750.69 -978.764
L748.203 -980.877
L745.717 -982.991
L743.23 -985.105
L740.743 -987.218
L738.257 -989.332
L735.77 -991.445
L733.283 -993.559
L730.797 -995.673
L728.31 -997.786
L725.824 -999.9
z
" id="m268be2c7d5" style="stroke:#4c72b0;stroke-opacity:0.15;stroke-width:0.3;"/>
    </defs>
    <g clip-path="url(#pd8ed550d8a)">
     <use style="fill:#4c72b0;fill-opacity:0.15;stroke:#4c72b0;stroke-opacity:0.15;stroke-width:0.3;" x="0.0" xlink:href="#m268be2c7d5" y="1080.0"/>
    </g>
   </g>
   <g id="line2d_132">
    <path clip-path="url(#pd8ed550d8a)" d="
M725.824 132.8
L728.31 134.303
L730.797 135.806
L733.283 137.309
L735.77 138.812
L738.257 140.315
L740.743 141.818
L743.23 143.321
L745.717 144.824
L748.203 146.327
L750.69 147.83
L753.176 149.333
L755.663 150.836
L758.15 152.339
L760.636 153.842
L763.123 155.345
L765.61 156.848
L768.096 158.352
L770.583 159.855
L773.07 161.358
L775.556 162.861
L778.043 164.364
L780.529 165.867
L783.016 167.37
L785.503 168.873
L787.989 170.376
L790.476 171.879
L792.963 173.382
L795.449 174.885
L797.936 176.388
L800.422 177.891
L802.909 179.394
L805.396 180.897
L807.882 182.4
L810.369 183.903
L812.856 185.406
L815.342 186.909
L817.829 188.412
L820.316 189.915
L822.802 191.418
L825.289 192.921
L827.775 194.424
L830.262 195.927
L832.749 197.43
L835.235 198.933
L837.722 200.436
L840.209 201.939
L842.695 203.442
L845.182 204.945
L847.668 206.448
L850.155 207.952
L852.642 209.455
L855.128 210.958
L857.615 212.461
L860.102 213.964
L862.588 215.467
L865.075 216.97
L867.561 218.473
L870.048 219.976
L872.535 221.479
L875.021 222.982
L877.508 224.485
L879.995 225.988
L882.481 227.491
L884.968 228.994
L887.455 230.497
L889.941 232
L892.428 233.503
L894.914 235.006
L897.401 236.509
L899.888 238.012
L902.374 239.515
L904.861 241.018
L907.348 242.521
L909.834 244.024
L912.321 245.527
L914.807 247.03
L917.294 248.533
L919.781 250.036
L922.267 251.539
L924.754 253.042
L927.241 254.545
L929.727 256.048
L932.214 257.552
L934.701 259.055
L937.187 260.558
L939.674 262.061
L942.16 263.564
L944.647 265.067
L947.134 266.57
L949.62 268.073
L952.107 269.576
L954.594 271.079
L957.08 272.582
L959.567 274.085
L962.053 275.588
L964.54 277.091
L967.027 278.594
L969.513 280.097
L972 281.6" style="fill:none;stroke:#4c72b0;stroke-linecap:round;stroke-width:2.625;"/>
   </g>
   <g id="patch_13">
    <path d="
M725.824 108
L972 108" style="fill:none;"/>
   </g>
   <g id="patch_14">
    <path d="
M972 317.25
L972 108" style="fill:none;"/>
   </g>
   <g id="patch_15">
    <path d="
M725.824 317.25
L972 317.25" style="fill:none;"/>
   </g>
   <g id="patch_16">
    <path d="
M725.824 317.25
L725.824 108" style="fill:none;"/>
   </g>
  </g>
 </g>
 <defs>
  <clipPath id="p796c768e71">
   <rect height="209.25" width="246.176470588" x="135.0" y="108.0"/>
  </clipPath>
  <clipPath id="pd8ed550d8a">
   <rect height="209.25" width="246.176470588" x="725.823529412" y="108.0"/>
  </clipPath>
  <clipPath id="p8f0a1a9076">
   <rect height="209.25" width="246.176470588" x="430.411764706" y="108.0"/>
  </clipPath>
 </defs>
</svg>
