<?xml version="1.0" encoding="utf-8" standalone="no"?>
<!DOCTYPE svg PUBLIC "-//W3C//DTD SVG 1.1//EN"
  "http://www.w3.org/Graphics/SVG/1.1/DTD/svg11.dtd">
<!-- Created with matplotlib (http://matplotlib.org/) -->
<svg height="1080pt" version="1.1" viewBox="0 0 1080 1080" width="1080pt" xmlns="http://www.w3.org/2000/svg" xmlns:xlink="http://www.w3.org/1999/xlink">
 <defs>
  <style type="text/css">
*{stroke-linecap:butt;stroke-linejoin:round;}
  </style>
 </defs>
 <g id="figure_1">
  <g id="patch_1">
   <path d="
M0 1080
L1080 1080
L1080 0
L0 0
z
" style="fill:#ffffff;"/>
  </g>
  <g id="axes_1">
   <g id="patch_2">
    <path d="
M135 317.25
L381.176 317.25
L381.176 108
L135 108
z
" style="fill:#eaeaf2;"/>
   </g>
   <g id="matplotlib.axis_1">
    <g id="xtick_1">
     <g id="line2d_1">
      <path clip-path="url(#p796c768e71)" d="
M135 317.25
L135 108" style="fill:none;stroke:#ffffff;stroke-linecap:round;"/>
     </g>
     <g id="line2d_2">
      <defs>
       <path d="
M0 0
L0 0" id="m219da94a98" style="stroke:#262626;"/>
      </defs>
      <g>
       <use style="fill:#262626;stroke:#262626;" x="135.0" xlink:href="#m219da94a98" y="317.25"/>
      </g>
     </g>
     <g id="line2d_3">
      <g>
       <use style="fill:#262626;stroke:#262626;" x="135.0" xlink:href="#m219da94a98" y="108.0"/>
      </g>
     </g>
     <g id="text_1">
      <!-- 0.2 -->
      <defs>
       <path d="
M19.1875 8.29688
L53.6094 8.29688
L53.6094 0
L7.32812 0
L7.32812 8.29688
Q12.9375 14.1094 22.625 23.8906
Q32.3281 33.6875 34.8125 36.5312
Q39.5469 41.8438 41.4219 45.5312
Q43.3125 49.2188 43.3125 52.7812
Q43.3125 58.5938 39.2344 62.25
Q35.1562 65.9219 28.6094 65.9219
Q23.9688 65.9219 18.8125 64.3125
Q13.6719 62.7031 7.8125 59.4219
L7.8125 69.3906
Q13.7656 71.7812 18.9375 73
Q24.125 74.2188 28.4219 74.2188
Q39.75 74.2188 46.4844 68.5469
Q53.2188 62.8906 53.2188 53.4219
Q53.2188 48.9219 51.5312 44.8906
Q49.8594 40.875 45.4062 35.4062
Q44.1875 33.9844 37.6406 27.2188
Q31.1094 20.4531 19.1875 8.29688" id="BitstreamVeraSans-Roman-32"/>
       <path d="
M31.7812 66.4062
Q24.1719 66.4062 20.3281 58.9062
Q16.5 51.4219 16.5 36.375
Q16.5 21.3906 20.3281 13.8906
Q24.1719 6.39062 31.7812 6.39062
Q39.4531 6.39062 43.2812 13.8906
Q47.125 21.3906 47.125 36.375
Q47.125 51.4219 43.2812 58.9062
Q39.4531 66.4062 31.7812 66.4062
M31.7812 74.2188
Q44.0469 74.2188 50.5156 64.5156
Q56.9844 54.8281 56.9844 36.375
Q56.9844 17.9688 50.5156 8.26562
Q44.0469 -1.42188 31.7812 -1.42188
Q19.5312 -1.42188 13.0625 8.26562
Q6.59375 17.9688 6.59375 36.375
Q6.59375 54.8281 13.0625 64.5156
Q19.5312 74.2188 31.7812 74.2188" id="BitstreamVeraSans-Roman-30"/>
       <path d="
M10.6875 12.4062
L21 12.4062
L21 0
L10.6875 0
z
" id="BitstreamVeraSans-Roman-2e"/>
      </defs>
      <g style="fill:#262626;" transform="translate(127.87890625 331.8484375)scale(0.1 -0.1)">
       <use xlink:href="#BitstreamVeraSans-Roman-30"/>
       <use x="63.623046875" xlink:href="#BitstreamVeraSans-Roman-2e"/>
       <use x="95.41015625" xlink:href="#BitstreamVeraSans-Roman-32"/>
      </g>
     </g>
    </g>
    <g id="xtick_2">
     <g id="line2d_4">
      <path clip-path="url(#p796c768e71)" d="
M176.029 317.25
L176.029 108" style="fill:none;stroke:#ffffff;stroke-linecap:round;"/>
     </g>
     <g id="line2d_5">
      <g>
       <use style="fill:#262626;stroke:#262626;" x="176.029411765" xlink:href="#m219da94a98" y="317.25"/>
      </g>
     </g>
     <g id="line2d_6">
      <g>
       <use style="fill:#262626;stroke:#262626;" x="176.029411765" xlink:href="#m219da94a98" y="108.0"/>
      </g>
     </g>
     <g id="text_2">
      <!-- 0.3 -->
      <defs>
       <path d="
M40.5781 39.3125
Q47.6562 37.7969 51.625 33
Q55.6094 28.2188 55.6094 21.1875
Q55.6094 10.4062 48.1875 4.48438
Q40.7656 -1.42188 27.0938 -1.42188
Q22.5156 -1.42188 17.6562 -0.515625
Q12.7969 0.390625 7.625 2.20312
L7.625 11.7188
Q11.7188 9.32812 16.5938 8.10938
Q21.4844 6.89062 26.8125 6.89062
Q36.0781 6.89062 40.9375 10.5469
Q45.7969 14.2031 45.7969 21.1875
Q45.7969 27.6406 41.2812 31.2656
Q36.7656 34.9062 28.7188 34.9062
L20.2188 34.9062
L20.2188 43.0156
L29.1094 43.0156
Q36.375 43.0156 40.2344 45.9219
Q44.0938 48.8281 44.0938 54.2969
Q44.0938 59.9062 40.1094 62.9062
Q36.1406 65.9219 28.7188 65.9219
Q24.6562 65.9219 20.0156 65.0312
Q15.375 64.1562 9.8125 62.3125
L9.8125 71.0938
Q15.4375 72.6562 20.3438 73.4375
Q25.25 74.2188 29.5938 74.2188
Q40.8281 74.2188 47.3594 69.1094
Q53.9062 64.0156 53.9062 55.3281
Q53.9062 49.2656 50.4375 45.0938
Q46.9688 40.9219 40.5781 39.3125" id="BitstreamVeraSans-Roman-33"/>
      </defs>
      <g style="fill:#262626;" transform="translate(168.808318015 331.8484375)scale(0.1 -0.1)">
       <use xlink:href="#BitstreamVeraSans-Roman-30"/>
       <use x="63.623046875" xlink:href="#BitstreamVeraSans-Roman-2e"/>
       <use x="95.41015625" xlink:href="#BitstreamVeraSans-Roman-33"/>
      </g>
     </g>
    </g>
    <g id="xtick_3">
     <g id="line2d_7">
      <path clip-path="url(#p796c768e71)" d="
M217.059 317.25
L217.059 108" style="fill:none;stroke:#ffffff;stroke-linecap:round;"/>
     </g>
     <g id="line2d_8">
      <g>
       <use style="fill:#262626;stroke:#262626;" x="217.058823529" xlink:href="#m219da94a98" y="317.25"/>
      </g>
     </g>
     <g id="line2d_9">
      <g>
       <use style="fill:#262626;stroke:#262626;" x="217.058823529" xlink:href="#m219da94a98" y="108.0"/>
      </g>
     </g>
     <g id="text_3">
      <!-- 0.4 -->
      <defs>
       <path d="
M37.7969 64.3125
L12.8906 25.3906
L37.7969 25.3906
z

M35.2031 72.9062
L47.6094 72.9062
L47.6094 25.3906
L58.0156 25.3906
L58.0156 17.1875
L47.6094 17.1875
L47.6094 0
L37.7969 0
L37.7969 17.1875
L4.89062 17.1875
L4.89062 26.7031
z
" id="BitstreamVeraSans-Roman-34"/>
      </defs>
      <g style="fill:#262626;" transform="translate(209.717417279 331.8484375)scale(0.1 -0.1)">
       <use xlink:href="#BitstreamVeraSans-Roman-30"/>
       <use x="63.623046875" xlink:href="#BitstreamVeraSans-Roman-2e"/>
       <use x="95.41015625" xlink:href="#BitstreamVeraSans-Roman-34"/>
      </g>
     </g>
    </g>
    <g id="xtick_4">
     <g id="line2d_10">
      <path clip-path="url(#p796c768e71)" d="
M258.088 317.25
L258.088 108" style="fill:none;stroke:#ffffff;stroke-linecap:round;"/>
     </g>
     <g id="line2d_11">
      <g>
       <use style="fill:#262626;stroke:#262626;" x="258.088235294" xlink:href="#m219da94a98" y="317.25"/>
      </g>
     </g>
     <g id="line2d_12">
      <g>
       <use style="fill:#262626;stroke:#262626;" x="258.088235294" xlink:href="#m219da94a98" y="108.0"/>
      </g>
     </g>
     <g id="text_4">
      <!-- 0.5 -->
      <defs>
       <path d="
M10.7969 72.9062
L49.5156 72.9062
L49.5156 64.5938
L19.8281 64.5938
L19.8281 46.7344
Q21.9688 47.4688 24.1094 47.8281
Q26.2656 48.1875 28.4219 48.1875
Q40.625 48.1875 47.75 41.5
Q54.8906 34.8125 54.8906 23.3906
Q54.8906 11.625 47.5625 5.09375
Q40.2344 -1.42188 26.9062 -1.42188
Q22.3125 -1.42188 17.5469 -0.640625
Q12.7969 0.140625 7.71875 1.70312
L7.71875 11.625
Q12.1094 9.23438 16.7969 8.0625
Q21.4844 6.89062 26.7031 6.89062
Q35.1562 6.89062 40.0781 11.3281
Q45.0156 15.7656 45.0156 23.3906
Q45.0156 31 40.0781 35.4375
Q35.1562 39.8906 26.7031 39.8906
Q22.75 39.8906 18.8125 39.0156
Q14.8906 38.1406 10.7969 36.2812
z
" id="BitstreamVeraSans-Roman-35"/>
      </defs>
      <g style="fill:#262626;" transform="translate(250.903079044 331.8484375)scale(0.1 -0.1)">
       <use xlink:href="#BitstreamVeraSans-Roman-30"/>
       <use x="63.623046875" xlink:href="#BitstreamVeraSans-Roman-2e"/>
       <use x="95.41015625" xlink:href="#BitstreamVeraSans-Roman-35"/>
      </g>
     </g>
    </g>
    <g id="xtick_5">
     <g id="line2d_13">
      <path clip-path="url(#p796c768e71)" d="
M299.118 317.25
L299.118 108" style="fill:none;stroke:#ffffff;stroke-linecap:round;"/>
     </g>
     <g id="line2d_14">
      <g>
       <use style="fill:#262626;stroke:#262626;" x="299.117647059" xlink:href="#m219da94a98" y="317.25"/>
      </g>
     </g>
     <g id="line2d_15">
      <g>
       <use style="fill:#262626;stroke:#262626;" x="299.117647059" xlink:href="#m219da94a98" y="108.0"/>
      </g>
     </g>
     <g id="text_5">
      <!-- 0.6 -->
      <defs>
       <path d="
M33.0156 40.375
Q26.375 40.375 22.4844 35.8281
Q18.6094 31.2969 18.6094 23.3906
Q18.6094 15.5312 22.4844 10.9531
Q26.375 6.39062 33.0156 6.39062
Q39.6562 6.39062 43.5312 10.9531
Q47.4062 15.5312 47.4062 23.3906
Q47.4062 31.2969 43.5312 35.8281
Q39.6562 40.375 33.0156 40.375
M52.5938 71.2969
L52.5938 62.3125
Q48.875 64.0625 45.0938 64.9844
Q41.3125 65.9219 37.5938 65.9219
Q27.8281 65.9219 22.6719 59.3281
Q17.5312 52.7344 16.7969 39.4062
Q19.6719 43.6562 24.0156 45.9219
Q28.375 48.1875 33.5938 48.1875
Q44.5781 48.1875 50.9531 41.5156
Q57.3281 34.8594 57.3281 23.3906
Q57.3281 12.1562 50.6875 5.35938
Q44.0469 -1.42188 33.0156 -1.42188
Q20.3594 -1.42188 13.6719 8.26562
Q6.98438 17.9688 6.98438 36.375
Q6.98438 53.6562 15.1875 63.9375
Q23.3906 74.2188 37.2031 74.2188
Q40.9219 74.2188 44.7031 73.4844
Q48.4844 72.75 52.5938 71.2969" id="BitstreamVeraSans-Roman-36"/>
      </defs>
      <g style="fill:#262626;" transform="translate(291.810615809 331.8484375)scale(0.1 -0.1)">
       <use xlink:href="#BitstreamVeraSans-Roman-30"/>
       <use x="63.623046875" xlink:href="#BitstreamVeraSans-Roman-2e"/>
       <use x="95.41015625" xlink:href="#BitstreamVeraSans-Roman-36"/>
      </g>
     </g>
    </g>
    <g id="xtick_6">
     <g id="line2d_16">
      <path clip-path="url(#p796c768e71)" d="
M340.147 317.25
L340.147 108" style="fill:none;stroke:#ffffff;stroke-linecap:round;"/>
     </g>
     <g id="line2d_17">
      <g>
       <use style="fill:#262626;stroke:#262626;" x="340.147058824" xlink:href="#m219da94a98" y="317.25"/>
      </g>
     </g>
     <g id="line2d_18">
      <g>
       <use style="fill:#262626;stroke:#262626;" x="340.147058824" xlink:href="#m219da94a98" y="108.0"/>
      </g>
     </g>
     <g id="text_6">
      <!-- 0.7 -->
      <defs>
       <path d="
M8.20312 72.9062
L55.0781 72.9062
L55.0781 68.7031
L28.6094 0
L18.3125 0
L43.2188 64.5938
L8.20312 64.5938
z
" id="BitstreamVeraSans-Roman-37"/>
      </defs>
      <g style="fill:#262626;" transform="translate(332.952527574 331.8484375)scale(0.1 -0.1)">
       <use xlink:href="#BitstreamVeraSans-Roman-30"/>
       <use x="63.623046875" xlink:href="#BitstreamVeraSans-Roman-2e"/>
       <use x="95.41015625" xlink:href="#BitstreamVeraSans-Roman-37"/>
      </g>
     </g>
    </g>
    <g id="xtick_7">
     <g id="line2d_19">
      <path clip-path="url(#p796c768e71)" d="
M381.176 317.25
L381.176 108" style="fill:none;stroke:#ffffff;stroke-linecap:round;"/>
     </g>
     <g id="line2d_20">
      <g>
       <use style="fill:#262626;stroke:#262626;" x="381.176470588" xlink:href="#m219da94a98" y="317.25"/>
      </g>
     </g>
     <g id="line2d_21">
      <g>
       <use style="fill:#262626;stroke:#262626;" x="381.176470588" xlink:href="#m219da94a98" y="108.0"/>
      </g>
     </g>
     <g id="text_7">
      <!-- 0.8 -->
      <defs>
       <path d="
M31.7812 34.625
Q24.75 34.625 20.7188 30.8594
Q16.7031 27.0938 16.7031 20.5156
Q16.7031 13.9219 20.7188 10.1562
Q24.75 6.39062 31.7812 6.39062
Q38.8125 6.39062 42.8594 10.1719
Q46.9219 13.9688 46.9219 20.5156
Q46.9219 27.0938 42.8906 30.8594
Q38.875 34.625 31.7812 34.625
M21.9219 38.8125
Q15.5781 40.375 12.0312 44.7188
Q8.5 49.0781 8.5 55.3281
Q8.5 64.0625 14.7188 69.1406
Q20.9531 74.2188 31.7812 74.2188
Q42.6719 74.2188 48.875 69.1406
Q55.0781 64.0625 55.0781 55.3281
Q55.0781 49.0781 51.5312 44.7188
Q48 40.375 41.7031 38.8125
Q48.8281 37.1562 52.7969 32.3125
Q56.7812 27.4844 56.7812 20.5156
Q56.7812 9.90625 50.3125 4.23438
Q43.8438 -1.42188 31.7812 -1.42188
Q19.7344 -1.42188 13.25 4.23438
Q6.78125 9.90625 6.78125 20.5156
Q6.78125 27.4844 10.7812 32.3125
Q14.7969 37.1562 21.9219 38.8125
M18.3125 54.3906
Q18.3125 48.7344 21.8438 45.5625
Q25.3906 42.3906 31.7812 42.3906
Q38.1406 42.3906 41.7188 45.5625
Q45.3125 48.7344 45.3125 54.3906
Q45.3125 60.0625 41.7188 63.2344
Q38.1406 66.4062 31.7812 66.4062
Q25.3906 66.4062 21.8438 63.2344
Q18.3125 60.0625 18.3125 54.3906" id="BitstreamVeraSans-Roman-38"/>
      </defs>
      <g style="fill:#262626;" transform="translate(373.896783088 331.8484375)scale(0.1 -0.1)">
       <use xlink:href="#BitstreamVeraSans-Roman-30"/>
       <use x="63.623046875" xlink:href="#BitstreamVeraSans-Roman-2e"/>
       <use x="95.41015625" xlink:href="#BitstreamVeraSans-Roman-38"/>
      </g>
     </g>
    </g>
    <g id="text_8">
     <!-- Rebound % -->
     <defs>
      <path id="BitstreamVeraSans-Roman-20"/>
      <path d="
M72.7031 32.0781
Q68.4531 32.0781 66.0312 28.4688
Q63.625 24.8594 63.625 18.4062
Q63.625 12.0625 66.0312 8.42188
Q68.4531 4.78125 72.7031 4.78125
Q76.8594 4.78125 79.2656 8.42188
Q81.6875 12.0625 81.6875 18.4062
Q81.6875 24.8125 79.2656 28.4375
Q76.8594 32.0781 72.7031 32.0781
M72.7031 38.2812
Q80.4219 38.2812 84.9531 32.9062
Q89.5 27.5469 89.5 18.4062
Q89.5 9.28125 84.9375 3.92188
Q80.375 -1.42188 72.7031 -1.42188
Q64.8906 -1.42188 60.3438 3.92188
Q55.8125 9.28125 55.8125 18.4062
Q55.8125 27.5938 60.375 32.9375
Q64.9375 38.2812 72.7031 38.2812
M22.3125 68.0156
Q18.1094 68.0156 15.6875 64.375
Q13.2812 60.75 13.2812 54.3906
Q13.2812 47.9531 15.6719 44.3281
Q18.0625 40.7188 22.3125 40.7188
Q26.5625 40.7188 28.9688 44.3281
Q31.3906 47.9531 31.3906 54.3906
Q31.3906 60.6875 28.9531 64.3438
Q26.5156 68.0156 22.3125 68.0156
M66.4062 74.2188
L74.2188 74.2188
L28.6094 -1.42188
L20.7969 -1.42188
z

M22.3125 74.2188
Q30.0312 74.2188 34.6094 68.875
Q39.2031 63.5312 39.2031 54.3906
Q39.2031 45.1719 34.6406 39.8438
Q30.0781 34.5156 22.3125 34.5156
Q14.5469 34.5156 10.0312 39.8594
Q5.51562 45.2188 5.51562 54.3906
Q5.51562 63.4844 10.0469 68.8438
Q14.5938 74.2188 22.3125 74.2188" id="BitstreamVeraSans-Roman-25"/>
      <path d="
M54.8906 33.0156
L54.8906 0
L45.9062 0
L45.9062 32.7188
Q45.9062 40.4844 42.875 44.3281
Q39.8438 48.1875 33.7969 48.1875
Q26.5156 48.1875 22.3125 43.5469
Q18.1094 38.9219 18.1094 30.9062
L18.1094 0
L9.07812 0
L9.07812 54.6875
L18.1094 54.6875
L18.1094 46.1875
Q21.3438 51.125 25.7031 53.5625
Q30.0781 56 35.7969 56
Q45.2188 56 50.0469 50.1719
Q54.8906 44.3438 54.8906 33.0156" id="BitstreamVeraSans-Roman-6e"/>
      <path d="
M30.6094 48.3906
Q23.3906 48.3906 19.1875 42.75
Q14.9844 37.1094 14.9844 27.2969
Q14.9844 17.4844 19.1562 11.8438
Q23.3438 6.20312 30.6094 6.20312
Q37.7969 6.20312 41.9844 11.8594
Q46.1875 17.5312 46.1875 27.2969
Q46.1875 37.0156 41.9844 42.7031
Q37.7969 48.3906 30.6094 48.3906
M30.6094 56
Q42.3281 56 49.0156 48.375
Q55.7188 40.7656 55.7188 27.2969
Q55.7188 13.875 49.0156 6.21875
Q42.3281 -1.42188 30.6094 -1.42188
Q18.8438 -1.42188 12.1719 6.21875
Q5.51562 13.875 5.51562 27.2969
Q5.51562 40.7656 12.1719 48.375
Q18.8438 56 30.6094 56" id="BitstreamVeraSans-Roman-6f"/>
      <path d="
M44.3906 34.1875
Q47.5625 33.1094 50.5625 29.5938
Q53.5625 26.0781 56.5938 19.9219
L66.6094 0
L56 0
L46.6875 18.7031
Q43.0625 26.0312 39.6719 28.4219
Q36.2812 30.8125 30.4219 30.8125
L19.6719 30.8125
L19.6719 0
L9.8125 0
L9.8125 72.9062
L32.0781 72.9062
Q44.5781 72.9062 50.7344 67.6719
Q56.8906 62.4531 56.8906 51.9062
Q56.8906 45.0156 53.6875 40.4688
Q50.4844 35.9375 44.3906 34.1875
M19.6719 64.7969
L19.6719 38.9219
L32.0781 38.9219
Q39.2031 38.9219 42.8438 42.2188
Q46.4844 45.5156 46.4844 51.9062
Q46.4844 58.2969 42.8438 61.5469
Q39.2031 64.7969 32.0781 64.7969
z
" id="BitstreamVeraSans-Roman-52"/>
      <path d="
M56.2031 29.5938
L56.2031 25.2031
L14.8906 25.2031
Q15.4844 15.9219 20.4844 11.0625
Q25.4844 6.20312 34.4219 6.20312
Q39.5938 6.20312 44.4531 7.46875
Q49.3125 8.73438 54.1094 11.2812
L54.1094 2.78125
Q49.2656 0.734375 44.1875 -0.34375
Q39.1094 -1.42188 33.8906 -1.42188
Q20.7969 -1.42188 13.1562 6.1875
Q5.51562 13.8125 5.51562 26.8125
Q5.51562 40.2344 12.7656 48.1094
Q20.0156 56 32.3281 56
Q43.3594 56 49.7812 48.8906
Q56.2031 41.7969 56.2031 29.5938
M47.2188 32.2344
Q47.125 39.5938 43.0938 43.9844
Q39.0625 48.3906 32.4219 48.3906
Q24.9062 48.3906 20.3906 44.1406
Q15.875 39.8906 15.1875 32.1719
z
" id="BitstreamVeraSans-Roman-65"/>
      <path d="
M45.4062 46.3906
L45.4062 75.9844
L54.3906 75.9844
L54.3906 0
L45.4062 0
L45.4062 8.20312
Q42.5781 3.32812 38.25 0.953125
Q33.9375 -1.42188 27.875 -1.42188
Q17.9688 -1.42188 11.7344 6.48438
Q5.51562 14.4062 5.51562 27.2969
Q5.51562 40.1875 11.7344 48.0938
Q17.9688 56 27.875 56
Q33.9375 56 38.25 53.625
Q42.5781 51.2656 45.4062 46.3906
M14.7969 27.2969
Q14.7969 17.3906 18.875 11.75
Q22.9531 6.10938 30.0781 6.10938
Q37.2031 6.10938 41.2969 11.75
Q45.4062 17.3906 45.4062 27.2969
Q45.4062 37.2031 41.2969 42.8438
Q37.2031 48.4844 30.0781 48.4844
Q22.9531 48.4844 18.875 42.8438
Q14.7969 37.2031 14.7969 27.2969" id="BitstreamVeraSans-Roman-64"/>
      <path d="
M8.5 21.5781
L8.5 54.6875
L17.4844 54.6875
L17.4844 21.9219
Q17.4844 14.1562 20.5 10.2656
Q23.5312 6.39062 29.5938 6.39062
Q36.8594 6.39062 41.0781 11.0312
Q45.3125 15.6719 45.3125 23.6875
L45.3125 54.6875
L54.2969 54.6875
L54.2969 0
L45.3125 0
L45.3125 8.40625
Q42.0469 3.42188 37.7188 1
Q33.4062 -1.42188 27.6875 -1.42188
Q18.2656 -1.42188 13.375 4.4375
Q8.5 10.2969 8.5 21.5781" id="BitstreamVeraSans-Roman-75"/>
      <path d="
M48.6875 27.2969
Q48.6875 37.2031 44.6094 42.8438
Q40.5312 48.4844 33.4062 48.4844
Q26.2656 48.4844 22.1875 42.8438
Q18.1094 37.2031 18.1094 27.2969
Q18.1094 17.3906 22.1875 11.75
Q26.2656 6.10938 33.4062 6.10938
Q40.5312 6.10938 44.6094 11.75
Q48.6875 17.3906 48.6875 27.2969
M18.1094 46.3906
Q20.9531 51.2656 25.2656 53.625
Q29.5938 56 35.5938 56
Q45.5625 56 51.7812 48.0938
Q58.0156 40.1875 58.0156 27.2969
Q58.0156 14.4062 51.7812 6.48438
Q45.5625 -1.42188 35.5938 -1.42188
Q29.5938 -1.42188 25.2656 0.953125
Q20.9531 3.32812 18.1094 8.20312
L18.1094 0
L9.07812 0
L9.07812 75.9844
L18.1094 75.9844
z
" id="BitstreamVeraSans-Roman-62"/>
     </defs>
     <g style="fill:#262626;" transform="translate(227.139563419 347.28640625)scale(0.11 -0.11)">
      <use xlink:href="#BitstreamVeraSans-Roman-52"/>
      <use x="64.982421875" xlink:href="#BitstreamVeraSans-Roman-65"/>
      <use x="126.505859375" xlink:href="#BitstreamVeraSans-Roman-62"/>
      <use x="189.982421875" xlink:href="#BitstreamVeraSans-Roman-6f"/>
      <use x="251.1640625" xlink:href="#BitstreamVeraSans-Roman-75"/>
      <use x="314.54296875" xlink:href="#BitstreamVeraSans-Roman-6e"/>
      <use x="377.921875" xlink:href="#BitstreamVeraSans-Roman-64"/>
      <use x="441.3984375" xlink:href="#BitstreamVeraSans-Roman-20"/>
      <use x="473.185546875" xlink:href="#BitstreamVeraSans-Roman-25"/>
     </g>
    </g>
   </g>
   <g id="matplotlib.axis_2">
    <g id="ytick_1">
     <g id="line2d_22">
      <path clip-path="url(#p796c768e71)" d="
M135 317.25
L381.176 317.25" style="fill:none;stroke:#ffffff;stroke-linecap:round;"/>
     </g>
     <g id="line2d_23">
      <g>
       <use style="fill:#262626;stroke:#262626;" x="135.0" xlink:href="#m219da94a98" y="317.25"/>
      </g>
     </g>
     <g id="line2d_24">
      <g>
       <use style="fill:#262626;stroke:#262626;" x="381.176470588" xlink:href="#m219da94a98" y="317.25"/>
      </g>
     </g>
     <g id="text_9">
      <!-- -15 -->
      <defs>
       <path d="
M12.4062 8.29688
L28.5156 8.29688
L28.5156 63.9219
L10.9844 60.4062
L10.9844 69.3906
L28.4219 72.9062
L38.2812 72.9062
L38.2812 8.29688
L54.3906 8.29688
L54.3906 0
L12.4062 0
z
" id="BitstreamVeraSans-Roman-31"/>
       <path d="
M4.89062 31.3906
L31.2031 31.3906
L31.2031 23.3906
L4.89062 23.3906
z
" id="BitstreamVeraSans-Roman-2d"/>
      </defs>
      <g style="fill:#262626;" transform="translate(113.0296875 320.009375)scale(0.1 -0.1)">
       <use xlink:href="#BitstreamVeraSans-Roman-2d"/>
       <use x="36.083984375" xlink:href="#BitstreamVeraSans-Roman-31"/>
       <use x="99.70703125" xlink:href="#BitstreamVeraSans-Roman-35"/>
      </g>
     </g>
    </g>
    <g id="ytick_2">
     <g id="line2d_25">
      <path clip-path="url(#p796c768e71)" d="
M135 282.375
L381.176 282.375" style="fill:none;stroke:#ffffff;stroke-linecap:round;"/>
     </g>
     <g id="line2d_26">
      <g>
       <use style="fill:#262626;stroke:#262626;" x="135.0" xlink:href="#m219da94a98" y="282.375"/>
      </g>
     </g>
     <g id="line2d_27">
      <g>
       <use style="fill:#262626;stroke:#262626;" x="381.176470588" xlink:href="#m219da94a98" y="282.375"/>
      </g>
     </g>
     <g id="text_10">
      <!-- -10 -->
      <g style="fill:#262626;" transform="translate(112.8203125 285.134375)scale(0.1 -0.1)">
       <use xlink:href="#BitstreamVeraSans-Roman-2d"/>
       <use x="36.083984375" xlink:href="#BitstreamVeraSans-Roman-31"/>
       <use x="99.70703125" xlink:href="#BitstreamVeraSans-Roman-30"/>
      </g>
     </g>
    </g>
    <g id="ytick_3">
     <g id="line2d_28">
      <path clip-path="url(#p796c768e71)" d="
M135 247.5
L381.176 247.5" style="fill:none;stroke:#ffffff;stroke-linecap:round;"/>
     </g>
     <g id="line2d_29">
      <g>
       <use style="fill:#262626;stroke:#262626;" x="135.0" xlink:href="#m219da94a98" y="247.5"/>
      </g>
     </g>
     <g id="line2d_30">
      <g>
       <use style="fill:#262626;stroke:#262626;" x="381.176470588" xlink:href="#m219da94a98" y="247.5"/>
      </g>
     </g>
     <g id="text_11">
      <!-- -5 -->
      <g style="fill:#262626;" transform="translate(119.3921875 250.259375)scale(0.1 -0.1)">
       <use xlink:href="#BitstreamVeraSans-Roman-2d"/>
       <use x="36.083984375" xlink:href="#BitstreamVeraSans-Roman-35"/>
      </g>
     </g>
    </g>
    <g id="ytick_4">
     <g id="line2d_31">
      <path clip-path="url(#p796c768e71)" d="
M135 212.625
L381.176 212.625" style="fill:none;stroke:#ffffff;stroke-linecap:round;"/>
     </g>
     <g id="line2d_32">
      <g>
       <use style="fill:#262626;stroke:#262626;" x="135.0" xlink:href="#m219da94a98" y="212.625"/>
      </g>
     </g>
     <g id="line2d_33">
      <g>
       <use style="fill:#262626;stroke:#262626;" x="381.176470588" xlink:href="#m219da94a98" y="212.625"/>
      </g>
     </g>
     <g id="text_12">
      <!-- 0 -->
      <g style="fill:#262626;" transform="translate(122.9609375 215.384375)scale(0.1 -0.1)">
       <use xlink:href="#BitstreamVeraSans-Roman-30"/>
      </g>
     </g>
    </g>
    <g id="ytick_5">
     <g id="line2d_34">
      <path clip-path="url(#p796c768e71)" d="
M135 177.75
L381.176 177.75" style="fill:none;stroke:#ffffff;stroke-linecap:round;"/>
     </g>
     <g id="line2d_35">
      <g>
       <use style="fill:#262626;stroke:#262626;" x="135.0" xlink:href="#m219da94a98" y="177.75"/>
      </g>
     </g>
     <g id="line2d_36">
      <g>
       <use style="fill:#262626;stroke:#262626;" x="381.176470588" xlink:href="#m219da94a98" y="177.75"/>
      </g>
     </g>
     <g id="text_13">
      <!-- 5 -->
      <g style="fill:#262626;" transform="translate(123.2828125 180.509375)scale(0.1 -0.1)">
       <use xlink:href="#BitstreamVeraSans-Roman-35"/>
      </g>
     </g>
    </g>
    <g id="ytick_6">
     <g id="line2d_37">
      <path clip-path="url(#p796c768e71)" d="
M135 142.875
L381.176 142.875" style="fill:none;stroke:#ffffff;stroke-linecap:round;"/>
     </g>
     <g id="line2d_38">
      <g>
       <use style="fill:#262626;stroke:#262626;" x="135.0" xlink:href="#m219da94a98" y="142.875"/>
      </g>
     </g>
     <g id="line2d_39">
      <g>
       <use style="fill:#262626;stroke:#262626;" x="381.176470588" xlink:href="#m219da94a98" y="142.875"/>
      </g>
     </g>
     <g id="text_14">
      <!-- 10 -->
      <g style="fill:#262626;" transform="translate(117.0375 145.634375)scale(0.1 -0.1)">
       <use xlink:href="#BitstreamVeraSans-Roman-31"/>
       <use x="63.623046875" xlink:href="#BitstreamVeraSans-Roman-30"/>
      </g>
     </g>
    </g>
    <g id="ytick_7">
     <g id="line2d_40">
      <path clip-path="url(#p796c768e71)" d="
M135 108
L381.176 108" style="fill:none;stroke:#ffffff;stroke-linecap:round;"/>
     </g>
     <g id="line2d_41">
      <g>
       <use style="fill:#262626;stroke:#262626;" x="135.0" xlink:href="#m219da94a98" y="108.0"/>
      </g>
     </g>
     <g id="line2d_42">
      <g>
       <use style="fill:#262626;stroke:#262626;" x="381.176470588" xlink:href="#m219da94a98" y="108.0"/>
      </g>
     </g>
     <g id="text_15">
      <!-- 15 -->
      <g style="fill:#262626;" transform="translate(117.246875 110.759375)scale(0.1 -0.1)">
       <use xlink:href="#BitstreamVeraSans-Roman-31"/>
       <use x="63.623046875" xlink:href="#BitstreamVeraSans-Roman-35"/>
      </g>
     </g>
    </g>
   </g>
   <g id="PathCollection_1">
    <defs>
     <path d="
M0 2.23607
C0.593012 2.23607 1.16182 2.00046 1.58114 1.58114
C2.00046 1.16182 2.23607 0.593012 2.23607 0
C2.23607 -0.593012 2.00046 -1.16182 1.58114 -1.58114
C1.16182 -2.00046 0.593012 -2.23607 0 -2.23607
C-0.593012 -2.23607 -1.16182 -2.00046 -1.58114 -1.58114
C-2.00046 -1.16182 -2.23607 -0.593012 -2.23607 0
C-2.23607 0.593012 -2.00046 1.16182 -1.58114 1.58114
C-1.16182 2.00046 -0.593012 2.23607 0 2.23607
z
" id="m501da90a0f"/>
    </defs>
    <g clip-path="url(#p796c768e71)">
     <use style="fill:#4c72b0;fill-opacity:0.8;" x="281.064705882" xlink:href="#m501da90a0f" y="142.875"/>
     <use style="fill:#4c72b0;fill-opacity:0.8;" x="320.452941176" xlink:href="#m501da90a0f" y="191.7"/>
     <use style="fill:#4c72b0;fill-opacity:0.8;" x="247.420588235" xlink:href="#m501da90a0f" y="212.625"/>
     <use style="fill:#4c72b0;fill-opacity:0.8;" x="294.194117647" xlink:href="#m501da90a0f" y="226.575"/>
     <use style="fill:#4c72b0;fill-opacity:0.8;" x="273.679411765" xlink:href="#m501da90a0f" y="156.825"/>
     <use style="fill:#4c72b0;fill-opacity:0.8;" x="183.414705882" xlink:href="#m501da90a0f" y="254.475"/>
     <use style="fill:#4c72b0;fill-opacity:0.8;" x="247.420588235" xlink:href="#m501da90a0f" y="205.65"/>
     <use style="fill:#4c72b0;fill-opacity:0.8;" x="217.058823529" xlink:href="#m501da90a0f" y="247.5"/>
     <use style="fill:#4c72b0;fill-opacity:0.8;" x="220.751470588" xlink:href="#m501da90a0f" y="289.35"/>
     <use style="fill:#4c72b0;fill-opacity:0.8;" x="210.904411765" xlink:href="#m501da90a0f" y="191.7"/>
     <use style="fill:#4c72b0;fill-opacity:0.8;" x="147.719117647" xlink:href="#m501da90a0f" y="317.25"/>
     <use style="fill:#4c72b0;fill-opacity:0.8;" x="273.679411765" xlink:href="#m501da90a0f" y="184.725"/>
     <use style="fill:#4c72b0;fill-opacity:0.8;" x="276.551470588" xlink:href="#m501da90a0f" y="212.625"/>
     <use style="fill:#4c72b0;fill-opacity:0.8;" x="267.935294118" xlink:href="#m501da90a0f" y="226.575"/>
     <use style="fill:#4c72b0;fill-opacity:0.8;" x="299.117647059" xlink:href="#m501da90a0f" y="163.8"/>
     <use style="fill:#4c72b0;fill-opacity:0.8;" x="313.888235294" xlink:href="#m501da90a0f" y="156.825"/>
     <use style="fill:#4c72b0;fill-opacity:0.8;" x="202.288235294" xlink:href="#m501da90a0f" y="282.375"/>
     <use style="fill:#4c72b0;fill-opacity:0.8;" x="224.033823529" xlink:href="#m501da90a0f" y="303.3"/>
     <use style="fill:#4c72b0;fill-opacity:0.8;" x="189.569117647" xlink:href="#m501da90a0f" y="240.525"/>
     <use style="fill:#4c72b0;fill-opacity:0.8;" x="284.757352941" xlink:href="#m501da90a0f" y="142.875"/>
     <use style="fill:#4c72b0;fill-opacity:0.8;" x="287.219117647" xlink:href="#m501da90a0f" y="226.575"/>
     <use style="fill:#4c72b0;fill-opacity:0.8;" x="275.320588235" xlink:href="#m501da90a0f" y="205.65"/>
     <use style="fill:#4c72b0;fill-opacity:0.8;" x="244.548529412" xlink:href="#m501da90a0f" y="184.725"/>
     <use style="fill:#4c72b0;fill-opacity:0.8;" x="265.883823529" xlink:href="#m501da90a0f" y="135.9"/>
     <use style="fill:#4c72b0;fill-opacity:0.8;" x="333.582352941" xlink:href="#m501da90a0f" y="219.6"/>
     <use style="fill:#4c72b0;fill-opacity:0.8;" x="183.414705882" xlink:href="#m501da90a0f" y="254.475"/>
     <use style="fill:#4c72b0;fill-opacity:0.8;" x="294.194117647" xlink:href="#m501da90a0f" y="296.325"/>
     <use style="fill:#4c72b0;fill-opacity:0.8;" x="258.088235294" xlink:href="#m501da90a0f" y="135.9"/>
     <use style="fill:#4c72b0;fill-opacity:0.8;" x="282.705882353" xlink:href="#m501da90a0f" y="128.925"/>
     <use style="fill:#4c72b0;fill-opacity:0.8;" x="267.114705882" xlink:href="#m501da90a0f" y="247.5"/>
     <use style="fill:#4c72b0;fill-opacity:0.8;" x="203.929411765" xlink:href="#m501da90a0f" y="219.6"/>
     <use style="fill:#4c72b0;fill-opacity:0.8;" x="246.189705882" xlink:href="#m501da90a0f" y="282.375"/>
     <use style="fill:#4c72b0;fill-opacity:0.8;" x="249.061764706" xlink:href="#m501da90a0f" y="254.475"/>
     <use style="fill:#4c72b0;fill-opacity:0.8;" x="225.675" xlink:href="#m501da90a0f" y="219.6"/>
     <use style="fill:#4c72b0;fill-opacity:0.8;" x="290.501470588" xlink:href="#m501da90a0f" y="156.825"/>
     <use style="fill:#4c72b0;fill-opacity:0.8;" x="258.088235294" xlink:href="#m501da90a0f" y="247.5"/>
    </g>
   </g>
   <g id="PolyCollection_1">
    <defs>
     <path d="
M135 -822.745
L135 -753.592
L137.487 -755.688
L139.973 -757.789
L142.46 -760.153
L144.947 -762.648
L147.433 -765.013
L149.92 -767.264
L152.406 -769.516
L154.893 -771.799
L157.38 -773.982
L159.866 -776.162
L162.353 -778.342
L164.84 -780.543
L167.326 -782.864
L169.813 -785.224
L172.299 -787.503
L174.786 -789.72
L177.273 -791.958
L179.759 -794.202
L182.246 -796.446
L184.733 -798.689
L187.219 -800.899
L189.706 -803.087
L192.193 -805.38
L194.679 -807.791
L197.166 -809.922
L199.652 -812.036
L202.139 -814.155
L204.626 -816.276
L207.112 -818.344
L209.599 -820.095
L212.086 -822.17
L214.572 -824.321
L217.059 -826.256
L219.545 -827.857
L222.032 -829.608
L224.519 -831.178
L227.005 -832.574
L229.492 -834.252
L231.979 -835.757
L234.465 -837.284
L236.952 -839.1
L239.439 -840.853
L241.925 -842.663
L244.412 -844.204
L246.898 -845.49
L249.385 -846.883
L251.872 -848.244
L254.358 -849.987
L256.845 -851.403
L259.332 -852.928
L261.818 -854.173
L264.305 -855.373
L266.791 -856.555
L269.278 -858.067
L271.765 -859.16
L274.251 -860.246
L276.738 -861.48
L279.225 -862.417
L281.711 -863.595
L284.198 -864.535
L286.684 -865.605
L289.171 -866.676
L291.658 -867.747
L294.144 -868.706
L296.631 -869.658
L299.118 -870.907
L301.604 -871.858
L304.091 -872.942
L306.578 -873.942
L309.064 -875.03
L311.551 -876.303
L314.037 -877.201
L316.524 -878.215
L319.011 -879.433
L321.497 -880.216
L323.984 -881.238
L326.471 -882.346
L328.957 -883.481
L331.444 -884.736
L333.93 -885.729
L336.417 -886.664
L338.904 -887.6
L341.39 -888.772
L343.877 -889.863
L346.364 -890.411
L348.85 -891.306
L351.337 -892.234
L353.824 -893.063
L356.31 -893.867
L358.797 -894.679
L361.283 -895.467
L363.77 -896.265
L366.257 -897.064
L368.743 -897.862
L371.23 -898.661
L373.717 -899.461
L376.203 -900.358
L378.69 -901.361
L381.176 -902.363
L381.176 -992.369
L381.176 -992.369
L378.69 -990.059
L376.203 -987.75
L373.717 -985.44
L371.23 -983.129
L368.743 -980.815
L366.257 -978.502
L363.77 -976.188
L361.283 -973.967
L358.797 -971.827
L356.31 -969.686
L353.824 -967.545
L351.337 -965.405
L348.85 -963.264
L346.364 -960.765
L343.877 -958.258
L341.39 -955.753
L338.904 -953.519
L336.417 -951.39
L333.93 -949.174
L331.444 -946.958
L328.957 -944.773
L326.471 -942.567
L323.984 -940.297
L321.497 -938.079
L319.011 -935.857
L316.524 -933.436
L314.037 -931.334
L311.551 -928.996
L309.064 -926.572
L306.578 -924.341
L304.091 -922.305
L301.604 -920.207
L299.118 -917.862
L296.631 -915.476
L294.144 -913.166
L291.658 -910.824
L289.171 -908.477
L286.684 -906.443
L284.198 -904.325
L281.711 -902
L279.225 -899.654
L276.738 -897.39
L274.251 -895.384
L271.765 -893.245
L269.278 -891.201
L266.791 -889.194
L264.305 -887.038
L261.818 -884.956
L259.332 -883.216
L256.845 -881.561
L254.358 -879.639
L251.872 -877.84
L249.385 -875.691
L246.898 -874.027
L244.412 -872.611
L241.925 -871.107
L239.439 -869.451
L236.952 -867.602
L234.465 -866.248
L231.979 -864.863
L229.492 -863.469
L227.005 -862.233
L224.519 -861.181
L222.032 -859.889
L219.545 -858.726
L217.059 -857.114
L214.572 -855.796
L212.086 -854.831
L209.599 -853.694
L207.112 -852.776
L204.626 -851.523
L202.139 -850.415
L199.652 -849.052
L197.166 -847.682
L194.679 -846.644
L192.193 -845.244
L189.706 -843.84
L187.219 -842.727
L184.733 -841.708
L182.246 -840.596
L179.759 -839.538
L177.273 -838.537
L174.786 -837.446
L172.299 -836.356
L169.813 -835.436
L167.326 -834.577
L164.84 -833.712
L162.353 -832.856
L159.866 -831.862
L157.38 -830.987
L154.893 -830.112
L152.406 -829.237
L149.92 -828.358
L147.433 -827.337
L144.947 -826.291
L142.46 -825.312
L139.973 -824.344
L137.487 -823.545
L135 -822.745
z
" id="mc7fff4a1af" style="stroke:#4c72b0;stroke-opacity:0.15;stroke-width:0.3;"/>
    </defs>
    <g clip-path="url(#p796c768e71)">
     <use style="fill:#4c72b0;fill-opacity:0.15;stroke:#4c72b0;stroke-opacity:0.15;stroke-width:0.3;" x="0.0" xlink:href="#mc7fff4a1af" y="1080.0"/>
    </g>
   </g>
   <g id="line2d_43">
    <path clip-path="url(#p796c768e71)" d="
M135 293.688
L137.487 292.058
L139.973 290.427
L142.46 288.797
L144.947 287.167
L147.433 285.537
L149.92 283.907
L152.406 282.277
L154.893 280.647
L157.38 279.017
L159.866 277.387
L162.353 275.757
L164.84 274.126
L167.326 272.496
L169.813 270.866
L172.299 269.236
L174.786 267.606
L177.273 265.976
L179.759 264.346
L182.246 262.716
L184.733 261.086
L187.219 259.456
L189.706 257.826
L192.193 256.195
L194.679 254.565
L197.166 252.935
L199.652 251.305
L202.139 249.675
L204.626 248.045
L207.112 246.415
L209.599 244.785
L212.086 243.155
L214.572 241.525
L217.059 239.895
L219.545 238.264
L222.032 236.634
L224.519 235.004
L227.005 233.374
L229.492 231.744
L231.979 230.114
L234.465 228.484
L236.952 226.854
L239.439 225.224
L241.925 223.594
L244.412 221.964
L246.898 220.333
L249.385 218.703
L251.872 217.073
L254.358 215.443
L256.845 213.813
L259.332 212.183
L261.818 210.553
L264.305 208.923
L266.791 207.293
L269.278 205.663
L271.765 204.032
L274.251 202.402
L276.738 200.772
L279.225 199.142
L281.711 197.512
L284.198 195.882
L286.684 194.252
L289.171 192.622
L291.658 190.992
L294.144 189.362
L296.631 187.732
L299.118 186.101
L301.604 184.471
L304.091 182.841
L306.578 181.211
L309.064 179.581
L311.551 177.951
L314.037 176.321
L316.524 174.691
L319.011 173.061
L321.497 171.431
L323.984 169.801
L326.471 168.17
L328.957 166.54
L331.444 164.91
L333.93 163.28
L336.417 161.65
L338.904 160.02
L341.39 158.39
L343.877 156.76
L346.364 155.13
L348.85 153.5
L351.337 151.869
L353.824 150.239
L356.31 148.609
L358.797 146.979
L361.283 145.349
L363.77 143.719
L366.257 142.089
L368.743 140.459
L371.23 138.829
L373.717 137.199
L376.203 135.569
L378.69 133.938
L381.176 132.308" style="fill:none;stroke:#4c72b0;stroke-linecap:round;stroke-width:2.625;"/>
   </g>
   <g id="patch_3">
    <path d="
M135 108
L381.176 108" style="fill:none;"/>
   </g>
   <g id="patch_4">
    <path d="
M381.176 317.25
L381.176 108" style="fill:none;"/>
   </g>
   <g id="patch_5">
    <path d="
M135 317.25
L381.176 317.25" style="fill:none;"/>
   </g>
   <g id="patch_6">
    <path d="
M135 317.25
L135 108" style="fill:none;"/>
   </g>
  </g>
  <g id="axes_2">
   <g id="patch_7">
    <path d="
M430.412 317.25
L676.588 317.25
L676.588 108
L430.412 108
z
" style="fill:#eaeaf2;"/>
   </g>
   <g id="matplotlib.axis_3">
    <g id="xtick_8">
     <g id="line2d_44">
      <path clip-path="url(#p8f0a1a9076)" d="
M430.412 317.25
L430.412 108" style="fill:none;stroke:#ffffff;stroke-linecap:round;"/>
     </g>
     <g id="line2d_45">
      <g>
       <use style="fill:#262626;stroke:#262626;" x="430.411764706" xlink:href="#m219da94a98" y="317.25"/>
      </g>
     </g>
     <g id="line2d_46">
      <g>
       <use style="fill:#262626;stroke:#262626;" x="430.411764706" xlink:href="#m219da94a98" y="108.0"/>
      </g>
     </g>
     <g id="text_16">
      <!-- 0.0 -->
      <g style="fill:#262626;" transform="translate(423.121920956 331.8484375)scale(0.1 -0.1)">
       <use xlink:href="#BitstreamVeraSans-Roman-30"/>
       <use x="63.623046875" xlink:href="#BitstreamVeraSans-Roman-2e"/>
       <use x="95.41015625" xlink:href="#BitstreamVeraSans-Roman-30"/>
      </g>
     </g>
    </g>
    <g id="xtick_9">
     <g id="line2d_47">
      <path clip-path="url(#p8f0a1a9076)" d="
M461.184 317.25
L461.184 108" style="fill:none;stroke:#ffffff;stroke-linecap:round;"/>
     </g>
     <g id="line2d_48">
      <g>
       <use style="fill:#262626;stroke:#262626;" x="461.183823529" xlink:href="#m219da94a98" y="317.25"/>
      </g>
     </g>
     <g id="line2d_49">
      <g>
       <use style="fill:#262626;stroke:#262626;" x="461.183823529" xlink:href="#m219da94a98" y="108.0"/>
      </g>
     </g>
     <g id="text_17">
      <!-- 0.1 -->
      <g style="fill:#262626;" transform="translate(454.023667279 331.8484375)scale(0.1 -0.1)">
       <use xlink:href="#BitstreamVeraSans-Roman-30"/>
       <use x="63.623046875" xlink:href="#BitstreamVeraSans-Roman-2e"/>
       <use x="95.41015625" xlink:href="#BitstreamVeraSans-Roman-31"/>
      </g>
     </g>
    </g>
    <g id="xtick_10">
     <g id="line2d_50">
      <path clip-path="url(#p8f0a1a9076)" d="
M491.956 317.25
L491.956 108" style="fill:none;stroke:#ffffff;stroke-linecap:round;"/>
     </g>
     <g id="line2d_51">
      <g>
       <use style="fill:#262626;stroke:#262626;" x="491.955882353" xlink:href="#m219da94a98" y="317.25"/>
      </g>
     </g>
     <g id="line2d_52">
      <g>
       <use style="fill:#262626;stroke:#262626;" x="491.955882353" xlink:href="#m219da94a98" y="108.0"/>
      </g>
     </g>
     <g id="text_18">
      <!-- 0.2 -->
      <g style="fill:#262626;" transform="translate(484.834788603 331.8484375)scale(0.1 -0.1)">
       <use xlink:href="#BitstreamVeraSans-Roman-30"/>
       <use x="63.623046875" xlink:href="#BitstreamVeraSans-Roman-2e"/>
       <use x="95.41015625" xlink:href="#BitstreamVeraSans-Roman-32"/>
      </g>
     </g>
    </g>
    <g id="xtick_11">
     <g id="line2d_53">
      <path clip-path="url(#p8f0a1a9076)" d="
M522.728 317.25
L522.728 108" style="fill:none;stroke:#ffffff;stroke-linecap:round;"/>
     </g>
     <g id="line2d_54">
      <g>
       <use style="fill:#262626;stroke:#262626;" x="522.727941176" xlink:href="#m219da94a98" y="317.25"/>
      </g>
     </g>
     <g id="line2d_55">
      <g>
       <use style="fill:#262626;stroke:#262626;" x="522.727941176" xlink:href="#m219da94a98" y="108.0"/>
      </g>
     </g>
     <g id="text_19">
      <!-- 0.3 -->
      <g style="fill:#262626;" transform="translate(515.506847426 331.8484375)scale(0.1 -0.1)">
       <use xlink:href="#BitstreamVeraSans-Roman-30"/>
       <use x="63.623046875" xlink:href="#BitstreamVeraSans-Roman-2e"/>
       <use x="95.41015625" xlink:href="#BitstreamVeraSans-Roman-33"/>
      </g>
     </g>
    </g>
    <g id="xtick_12">
     <g id="line2d_56">
      <path clip-path="url(#p8f0a1a9076)" d="
M553.5 317.25
L553.5 108" style="fill:none;stroke:#ffffff;stroke-linecap:round;"/>
     </g>
     <g id="line2d_57">
      <g>
       <use style="fill:#262626;stroke:#262626;" x="553.5" xlink:href="#m219da94a98" y="317.25"/>
      </g>
     </g>
     <g id="line2d_58">
      <g>
       <use style="fill:#262626;stroke:#262626;" x="553.5" xlink:href="#m219da94a98" y="108.0"/>
      </g>
     </g>
     <g id="text_20">
      <!-- 0.4 -->
      <g style="fill:#262626;" transform="translate(546.15859375 331.8484375)scale(0.1 -0.1)">
       <use xlink:href="#BitstreamVeraSans-Roman-30"/>
       <use x="63.623046875" xlink:href="#BitstreamVeraSans-Roman-2e"/>
       <use x="95.41015625" xlink:href="#BitstreamVeraSans-Roman-34"/>
      </g>
     </g>
    </g>
    <g id="xtick_13">
     <g id="line2d_59">
      <path clip-path="url(#p8f0a1a9076)" d="
M584.272 317.25
L584.272 108" style="fill:none;stroke:#ffffff;stroke-linecap:round;"/>
     </g>
     <g id="line2d_60">
      <g>
       <use style="fill:#262626;stroke:#262626;" x="584.272058824" xlink:href="#m219da94a98" y="317.25"/>
      </g>
     </g>
     <g id="line2d_61">
      <g>
       <use style="fill:#262626;stroke:#262626;" x="584.272058824" xlink:href="#m219da94a98" y="108.0"/>
      </g>
     </g>
     <g id="text_21">
      <!-- 0.5 -->
      <g style="fill:#262626;" transform="translate(577.086902574 331.8484375)scale(0.1 -0.1)">
       <use xlink:href="#BitstreamVeraSans-Roman-30"/>
       <use x="63.623046875" xlink:href="#BitstreamVeraSans-Roman-2e"/>
       <use x="95.41015625" xlink:href="#BitstreamVeraSans-Roman-35"/>
      </g>
     </g>
    </g>
    <g id="xtick_14">
     <g id="line2d_62">
      <path clip-path="url(#p8f0a1a9076)" d="
M615.044 317.25
L615.044 108" style="fill:none;stroke:#ffffff;stroke-linecap:round;"/>
     </g>
     <g id="line2d_63">
      <g>
       <use style="fill:#262626;stroke:#262626;" x="615.044117647" xlink:href="#m219da94a98" y="317.25"/>
      </g>
     </g>
     <g id="line2d_64">
      <g>
       <use style="fill:#262626;stroke:#262626;" x="615.044117647" xlink:href="#m219da94a98" y="108.0"/>
      </g>
     </g>
     <g id="text_22">
      <!-- 0.6 -->
      <g style="fill:#262626;" transform="translate(607.737086397 331.8484375)scale(0.1 -0.1)">
       <use xlink:href="#BitstreamVeraSans-Roman-30"/>
       <use x="63.623046875" xlink:href="#BitstreamVeraSans-Roman-2e"/>
       <use x="95.41015625" xlink:href="#BitstreamVeraSans-Roman-36"/>
      </g>
     </g>
    </g>
    <g id="xtick_15">
     <g id="line2d_65">
      <path clip-path="url(#p8f0a1a9076)" d="
M645.816 317.25
L645.816 108" style="fill:none;stroke:#ffffff;stroke-linecap:round;"/>
     </g>
     <g id="line2d_66">
      <g>
       <use style="fill:#262626;stroke:#262626;" x="645.816176471" xlink:href="#m219da94a98" y="317.25"/>
      </g>
     </g>
     <g id="line2d_67">
      <g>
       <use style="fill:#262626;stroke:#262626;" x="645.816176471" xlink:href="#m219da94a98" y="108.0"/>
      </g>
     </g>
     <g id="text_23">
      <!-- 0.7 -->
      <g style="fill:#262626;" transform="translate(638.621645221 331.8484375)scale(0.1 -0.1)">
       <use xlink:href="#BitstreamVeraSans-Roman-30"/>
       <use x="63.623046875" xlink:href="#BitstreamVeraSans-Roman-2e"/>
       <use x="95.41015625" xlink:href="#BitstreamVeraSans-Roman-37"/>
      </g>
     </g>
    </g>
    <g id="xtick_16">
     <g id="line2d_68">
      <path clip-path="url(#p8f0a1a9076)" d="
M676.588 317.25
L676.588 108" style="fill:none;stroke:#ffffff;stroke-linecap:round;"/>
     </g>
     <g id="line2d_69">
      <g>
       <use style="fill:#262626;stroke:#262626;" x="676.588235294" xlink:href="#m219da94a98" y="317.25"/>
      </g>
     </g>
     <g id="line2d_70">
      <g>
       <use style="fill:#262626;stroke:#262626;" x="676.588235294" xlink:href="#m219da94a98" y="108.0"/>
      </g>
     </g>
     <g id="text_24">
      <!-- 0.8 -->
      <g style="fill:#262626;" transform="translate(669.308547794 331.8484375)scale(0.1 -0.1)">
       <use xlink:href="#BitstreamVeraSans-Roman-30"/>
       <use x="63.623046875" xlink:href="#BitstreamVeraSans-Roman-2e"/>
       <use x="95.41015625" xlink:href="#BitstreamVeraSans-Roman-38"/>
      </g>
     </g>
    </g>
    <g id="text_25">
     <!-- Effective Shot % -->
     <defs>
      <path d="
M9.8125 72.9062
L55.9062 72.9062
L55.9062 64.5938
L19.6719 64.5938
L19.6719 43.0156
L54.3906 43.0156
L54.3906 34.7188
L19.6719 34.7188
L19.6719 8.29688
L56.7812 8.29688
L56.7812 0
L9.8125 0
z
" id="BitstreamVeraSans-Roman-45"/>
      <path d="
M53.5156 70.5156
L53.5156 60.8906
Q47.9062 63.5781 42.9219 64.8906
Q37.9375 66.2188 33.2969 66.2188
Q25.25 66.2188 20.875 63.0938
Q16.5 59.9688 16.5 54.2031
Q16.5 49.3594 19.4062 46.8906
Q22.3125 44.4375 30.4219 42.9219
L36.375 41.7031
Q47.4062 39.5938 52.6562 34.2969
Q57.9062 29 57.9062 20.125
Q57.9062 9.51562 50.7969 4.04688
Q43.7031 -1.42188 29.9844 -1.42188
Q24.8125 -1.42188 18.9688 -0.25
Q13.1406 0.921875 6.89062 3.21875
L6.89062 13.375
Q12.8906 10.0156 18.6562 8.29688
Q24.4219 6.59375 29.9844 6.59375
Q38.4219 6.59375 43.0156 9.90625
Q47.6094 13.2344 47.6094 19.3906
Q47.6094 24.75 44.3125 27.7812
Q41.0156 30.8125 33.5 32.3281
L27.4844 33.5
Q16.4531 35.6875 11.5156 40.375
Q6.59375 45.0625 6.59375 53.4219
Q6.59375 63.0938 13.4062 68.6562
Q20.2188 74.2188 32.1719 74.2188
Q37.3125 74.2188 42.625 73.2812
Q47.9531 72.3594 53.5156 70.5156" id="BitstreamVeraSans-Roman-53"/>
      <path d="
M9.42188 54.6875
L18.4062 54.6875
L18.4062 0
L9.42188 0
z

M9.42188 75.9844
L18.4062 75.9844
L18.4062 64.5938
L9.42188 64.5938
z
" id="BitstreamVeraSans-Roman-69"/>
      <path d="
M54.8906 33.0156
L54.8906 0
L45.9062 0
L45.9062 32.7188
Q45.9062 40.4844 42.875 44.3281
Q39.8438 48.1875 33.7969 48.1875
Q26.5156 48.1875 22.3125 43.5469
Q18.1094 38.9219 18.1094 30.9062
L18.1094 0
L9.07812 0
L9.07812 75.9844
L18.1094 75.9844
L18.1094 46.1875
Q21.3438 51.125 25.7031 53.5625
Q30.0781 56 35.7969 56
Q45.2188 56 50.0469 50.1719
Q54.8906 44.3438 54.8906 33.0156" id="BitstreamVeraSans-Roman-68"/>
      <path d="
M2.98438 54.6875
L12.5 54.6875
L29.5938 8.79688
L46.6875 54.6875
L56.2031 54.6875
L35.6875 0
L23.4844 0
z
" id="BitstreamVeraSans-Roman-76"/>
      <path d="
M18.3125 70.2188
L18.3125 54.6875
L36.8125 54.6875
L36.8125 47.7031
L18.3125 47.7031
L18.3125 18.0156
Q18.3125 11.3281 20.1406 9.42188
Q21.9688 7.51562 27.5938 7.51562
L36.8125 7.51562
L36.8125 0
L27.5938 0
Q17.1875 0 13.2344 3.875
Q9.28125 7.76562 9.28125 18.0156
L9.28125 47.7031
L2.6875 47.7031
L2.6875 54.6875
L9.28125 54.6875
L9.28125 70.2188
z
" id="BitstreamVeraSans-Roman-74"/>
      <path d="
M37.1094 75.9844
L37.1094 68.5
L28.5156 68.5
Q23.6875 68.5 21.7969 66.5469
Q19.9219 64.5938 19.9219 59.5156
L19.9219 54.6875
L34.7188 54.6875
L34.7188 47.7031
L19.9219 47.7031
L19.9219 0
L10.8906 0
L10.8906 47.7031
L2.29688 47.7031
L2.29688 54.6875
L10.8906 54.6875
L10.8906 58.5
Q10.8906 67.625 15.1406 71.7969
Q19.3906 75.9844 28.6094 75.9844
z
" id="BitstreamVeraSans-Roman-66"/>
      <path d="
M48.7812 52.5938
L48.7812 44.1875
Q44.9688 46.2969 41.1406 47.3438
Q37.3125 48.3906 33.4062 48.3906
Q24.6562 48.3906 19.8125 42.8438
Q14.9844 37.3125 14.9844 27.2969
Q14.9844 17.2812 19.8125 11.7344
Q24.6562 6.20312 33.4062 6.20312
Q37.3125 6.20312 41.1406 7.25
Q44.9688 8.29688 48.7812 10.4062
L48.7812 2.09375
Q45.0156 0.34375 40.9844 -0.53125
Q36.9688 -1.42188 32.4219 -1.42188
Q20.0625 -1.42188 12.7812 6.34375
Q5.51562 14.1094 5.51562 27.2969
Q5.51562 40.6719 12.8594 48.3281
Q20.2188 56 33.0156 56
Q37.1562 56 41.1094 55.1406
Q45.0625 54.2969 48.7812 52.5938" id="BitstreamVeraSans-Roman-63"/>
     </defs>
     <g style="fill:#262626;" transform="translate(508.503125 347.28640625)scale(0.11 -0.11)">
      <use xlink:href="#BitstreamVeraSans-Roman-45"/>
      <use x="63.18359375" xlink:href="#BitstreamVeraSans-Roman-66"/>
      <use x="98.388671875" xlink:href="#BitstreamVeraSans-Roman-66"/>
      <use x="133.59375" xlink:href="#BitstreamVeraSans-Roman-65"/>
      <use x="195.1171875" xlink:href="#BitstreamVeraSans-Roman-63"/>
      <use x="250.09765625" xlink:href="#BitstreamVeraSans-Roman-74"/>
      <use x="289.306640625" xlink:href="#BitstreamVeraSans-Roman-69"/>
      <use x="317.08984375" xlink:href="#BitstreamVeraSans-Roman-76"/>
      <use x="376.26953125" xlink:href="#BitstreamVeraSans-Roman-65"/>
      <use x="437.79296875" xlink:href="#BitstreamVeraSans-Roman-20"/>
      <use x="469.580078125" xlink:href="#BitstreamVeraSans-Roman-53"/>
      <use x="533.056640625" xlink:href="#BitstreamVeraSans-Roman-68"/>
      <use x="596.435546875" xlink:href="#BitstreamVeraSans-Roman-6f"/>
      <use x="657.6171875" xlink:href="#BitstreamVeraSans-Roman-74"/>
      <use x="696.826171875" xlink:href="#BitstreamVeraSans-Roman-20"/>
      <use x="728.61328125" xlink:href="#BitstreamVeraSans-Roman-25"/>
     </g>
    </g>
   </g>
   <g id="matplotlib.axis_4">
    <g id="ytick_8">
     <g id="line2d_71">
      <path clip-path="url(#p8f0a1a9076)" d="
M430.412 317.25
L676.588 317.25" style="fill:none;stroke:#ffffff;stroke-linecap:round;"/>
     </g>
     <g id="line2d_72">
      <g>
       <use style="fill:#262626;stroke:#262626;" x="430.411764706" xlink:href="#m219da94a98" y="317.25"/>
      </g>
     </g>
     <g id="line2d_73">
      <g>
       <use style="fill:#262626;stroke:#262626;" x="676.588235294" xlink:href="#m219da94a98" y="317.25"/>
      </g>
     </g>
     <g id="text_26">
      <!-- -15 -->
      <g style="fill:#262626;" transform="translate(408.441452206 320.009375)scale(0.1 -0.1)">
       <use xlink:href="#BitstreamVeraSans-Roman-2d"/>
       <use x="36.083984375" xlink:href="#BitstreamVeraSans-Roman-31"/>
       <use x="99.70703125" xlink:href="#BitstreamVeraSans-Roman-35"/>
      </g>
     </g>
    </g>
    <g id="ytick_9">
     <g id="line2d_74">
      <path clip-path="url(#p8f0a1a9076)" d="
M430.412 282.375
L676.588 282.375" style="fill:none;stroke:#ffffff;stroke-linecap:round;"/>
     </g>
     <g id="line2d_75">
      <g>
       <use style="fill:#262626;stroke:#262626;" x="430.411764706" xlink:href="#m219da94a98" y="282.375"/>
      </g>
     </g>
     <g id="line2d_76">
      <g>
       <use style="fill:#262626;stroke:#262626;" x="676.588235294" xlink:href="#m219da94a98" y="282.375"/>
      </g>
     </g>
     <g id="text_27">
      <!-- -10 -->
      <g style="fill:#262626;" transform="translate(408.232077206 285.134375)scale(0.1 -0.1)">
       <use xlink:href="#BitstreamVeraSans-Roman-2d"/>
       <use x="36.083984375" xlink:href="#BitstreamVeraSans-Roman-31"/>
       <use x="99.70703125" xlink:href="#BitstreamVeraSans-Roman-30"/>
      </g>
     </g>
    </g>
    <g id="ytick_10">
     <g id="line2d_77">
      <path clip-path="url(#p8f0a1a9076)" d="
M430.412 247.5
L676.588 247.5" style="fill:none;stroke:#ffffff;stroke-linecap:round;"/>
     </g>
     <g id="line2d_78">
      <g>
       <use style="fill:#262626;stroke:#262626;" x="430.411764706" xlink:href="#m219da94a98" y="247.5"/>
      </g>
     </g>
     <g id="line2d_79">
      <g>
       <use style="fill:#262626;stroke:#262626;" x="676.588235294" xlink:href="#m219da94a98" y="247.5"/>
      </g>
     </g>
     <g id="text_28">
      <!-- -5 -->
      <g style="fill:#262626;" transform="translate(414.803952206 250.259375)scale(0.1 -0.1)">
       <use xlink:href="#BitstreamVeraSans-Roman-2d"/>
       <use x="36.083984375" xlink:href="#BitstreamVeraSans-Roman-35"/>
      </g>
     </g>
    </g>
    <g id="ytick_11">
     <g id="line2d_80">
      <path clip-path="url(#p8f0a1a9076)" d="
M430.412 212.625
L676.588 212.625" style="fill:none;stroke:#ffffff;stroke-linecap:round;"/>
     </g>
     <g id="line2d_81">
      <g>
       <use style="fill:#262626;stroke:#262626;" x="430.411764706" xlink:href="#m219da94a98" y="212.625"/>
      </g>
     </g>
     <g id="line2d_82">
      <g>
       <use style="fill:#262626;stroke:#262626;" x="676.588235294" xlink:href="#m219da94a98" y="212.625"/>
      </g>
     </g>
     <g id="text_29">
      <!-- 0 -->
      <g style="fill:#262626;" transform="translate(418.372702206 215.384375)scale(0.1 -0.1)">
       <use xlink:href="#BitstreamVeraSans-Roman-30"/>
      </g>
     </g>
    </g>
    <g id="ytick_12">
     <g id="line2d_83">
      <path clip-path="url(#p8f0a1a9076)" d="
M430.412 177.75
L676.588 177.75" style="fill:none;stroke:#ffffff;stroke-linecap:round;"/>
     </g>
     <g id="line2d_84">
      <g>
       <use style="fill:#262626;stroke:#262626;" x="430.411764706" xlink:href="#m219da94a98" y="177.75"/>
      </g>
     </g>
     <g id="line2d_85">
      <g>
       <use style="fill:#262626;stroke:#262626;" x="676.588235294" xlink:href="#m219da94a98" y="177.75"/>
      </g>
     </g>
     <g id="text_30">
      <!-- 5 -->
      <g style="fill:#262626;" transform="translate(418.694577206 180.509375)scale(0.1 -0.1)">
       <use xlink:href="#BitstreamVeraSans-Roman-35"/>
      </g>
     </g>
    </g>
    <g id="ytick_13">
     <g id="line2d_86">
      <path clip-path="url(#p8f0a1a9076)" d="
M430.412 142.875
L676.588 142.875" style="fill:none;stroke:#ffffff;stroke-linecap:round;"/>
     </g>
     <g id="line2d_87">
      <g>
       <use style="fill:#262626;stroke:#262626;" x="430.411764706" xlink:href="#m219da94a98" y="142.875"/>
      </g>
     </g>
     <g id="line2d_88">
      <g>
       <use style="fill:#262626;stroke:#262626;" x="676.588235294" xlink:href="#m219da94a98" y="142.875"/>
      </g>
     </g>
     <g id="text_31">
      <!-- 10 -->
      <g style="fill:#262626;" transform="translate(412.449264706 145.634375)scale(0.1 -0.1)">
       <use xlink:href="#BitstreamVeraSans-Roman-31"/>
       <use x="63.623046875" xlink:href="#BitstreamVeraSans-Roman-30"/>
      </g>
     </g>
    </g>
    <g id="ytick_14">
     <g id="line2d_89">
      <path clip-path="url(#p8f0a1a9076)" d="
M430.412 108
L676.588 108" style="fill:none;stroke:#ffffff;stroke-linecap:round;"/>
     </g>
     <g id="line2d_90">
      <g>
       <use style="fill:#262626;stroke:#262626;" x="430.411764706" xlink:href="#m219da94a98" y="108.0"/>
      </g>
     </g>
     <g id="line2d_91">
      <g>
       <use style="fill:#262626;stroke:#262626;" x="676.588235294" xlink:href="#m219da94a98" y="108.0"/>
      </g>
     </g>
     <g id="text_32">
      <!-- 15 -->
      <g style="fill:#262626;" transform="translate(412.658639706 110.759375)scale(0.1 -0.1)">
       <use xlink:href="#BitstreamVeraSans-Roman-31"/>
       <use x="63.623046875" xlink:href="#BitstreamVeraSans-Roman-35"/>
      </g>
     </g>
    </g>
   </g>
   <g id="PathCollection_2">
    <g clip-path="url(#p8f0a1a9076)">
     <use style="fill:#4c72b0;fill-opacity:0.8;" x="598.119485294" xlink:href="#m501da90a0f" y="142.875"/>
     <use style="fill:#4c72b0;fill-opacity:0.8;" x="611.04375" xlink:href="#m501da90a0f" y="191.7"/>
     <use style="fill:#4c72b0;fill-opacity:0.8;" x="576.579044118" xlink:href="#m501da90a0f" y="212.625"/>
     <use style="fill:#4c72b0;fill-opacity:0.8;" x="607.351102941" xlink:href="#m501da90a0f" y="226.575"/>
     <use style="fill:#4c72b0;fill-opacity:0.8;" x="616.582720588" xlink:href="#m501da90a0f" y="156.825"/>
     <use style="fill:#4c72b0;fill-opacity:0.8;" x="584.272058824" xlink:href="#m501da90a0f" y="254.475"/>
     <use style="fill:#4c72b0;fill-opacity:0.8;" x="591.965073529" xlink:href="#m501da90a0f" y="205.65"/>
     <use style="fill:#4c72b0;fill-opacity:0.8;" x="569.501470588" xlink:href="#m501da90a0f" y="247.5"/>
     <use style="fill:#4c72b0;fill-opacity:0.8;" x="570.424632353" xlink:href="#m501da90a0f" y="289.35"/>
     <use style="fill:#4c72b0;fill-opacity:0.8;" x="652.586029412" xlink:href="#m501da90a0f" y="191.7"/>
     <use style="fill:#4c72b0;fill-opacity:0.8;" x="461.183823529" xlink:href="#m501da90a0f" y="317.25"/>
     <use style="fill:#4c72b0;fill-opacity:0.8;" x="584.272058824" xlink:href="#m501da90a0f" y="184.725"/>
     <use style="fill:#4c72b0;fill-opacity:0.8;" x="597.196323529" xlink:href="#m501da90a0f" y="212.625"/>
     <use style="fill:#4c72b0;fill-opacity:0.8;" x="599.042647059" xlink:href="#m501da90a0f" y="226.575"/>
     <use style="fill:#4c72b0;fill-opacity:0.8;" x="615.044117647" xlink:href="#m501da90a0f" y="163.8"/>
     <use style="fill:#4c72b0;fill-opacity:0.8;" x="571.040073529" xlink:href="#m501da90a0f" y="156.825"/>
     <use style="fill:#4c72b0;fill-opacity:0.8;" x="539.344852941" xlink:href="#m501da90a0f" y="282.375"/>
     <use style="fill:#4c72b0;fill-opacity:0.8;" x="599.658088235" xlink:href="#m501da90a0f" y="303.3"/>
     <use style="fill:#4c72b0;fill-opacity:0.8;" x="647.6625" xlink:href="#m501da90a0f" y="240.525"/>
     <use style="fill:#4c72b0;fill-opacity:0.8;" x="576.886764706" xlink:href="#m501da90a0f" y="142.875"/>
     <use style="fill:#4c72b0;fill-opacity:0.8;" x="494.417647059" xlink:href="#m501da90a0f" y="226.575"/>
     <use style="fill:#4c72b0;fill-opacity:0.8;" x="557.500367647" xlink:href="#m501da90a0f" y="205.65"/>
     <use style="fill:#4c72b0;fill-opacity:0.8;" x="604.273897059" xlink:href="#m501da90a0f" y="184.725"/>
     <use style="fill:#4c72b0;fill-opacity:0.8;" x="629.506985294" xlink:href="#m501da90a0f" y="135.9"/>
     <use style="fill:#4c72b0;fill-opacity:0.8;" x="590.11875" xlink:href="#m501da90a0f" y="219.6"/>
     <use style="fill:#4c72b0;fill-opacity:0.8;" x="555.038602941" xlink:href="#m501da90a0f" y="254.475"/>
     <use style="fill:#4c72b0;fill-opacity:0.8;" x="575.655882353" xlink:href="#m501da90a0f" y="296.325"/>
     <use style="fill:#4c72b0;fill-opacity:0.8;" x="661.202205882" xlink:href="#m501da90a0f" y="135.9"/>
     <use style="fill:#4c72b0;fill-opacity:0.8;" x="617.813602941" xlink:href="#m501da90a0f" y="128.925"/>
     <use style="fill:#4c72b0;fill-opacity:0.8;" x="552.269117647" xlink:href="#m501da90a0f" y="247.5"/>
     <use style="fill:#4c72b0;fill-opacity:0.8;" x="605.197058824" xlink:href="#m501da90a0f" y="219.6"/>
     <use style="fill:#4c72b0;fill-opacity:0.8;" x="501.495220588" xlink:href="#m501da90a0f" y="282.375"/>
     <use style="fill:#4c72b0;fill-opacity:0.8;" x="570.424632353" xlink:href="#m501da90a0f" y="254.475"/>
     <use style="fill:#4c72b0;fill-opacity:0.8;" x="630.430147059" xlink:href="#m501da90a0f" y="219.6"/>
     <use style="fill:#4c72b0;fill-opacity:0.8;" x="630.430147059" xlink:href="#m501da90a0f" y="156.825"/>
     <use style="fill:#4c72b0;fill-opacity:0.8;" x="560.577573529" xlink:href="#m501da90a0f" y="247.5"/>
    </g>
   </g>
   <g id="PolyCollection_2">
    <defs>
     <path d="
M430.412 -798.258
L430.412 -704.318
L432.898 -706.878
L435.385 -709.472
L437.872 -712.067
L440.358 -714.661
L442.845 -717.261
L445.332 -719.863
L447.818 -722.389
L450.305 -724.852
L452.791 -727.341
L455.278 -729.763
L457.765 -732.167
L460.251 -734.533
L462.738 -736.898
L465.225 -739.264
L467.711 -741.63
L470.198 -743.995
L472.684 -746.364
L475.171 -748.947
L477.658 -751.601
L480.144 -754.254
L482.631 -756.758
L485.118 -759.218
L487.604 -761.679
L490.091 -764.14
L492.578 -766.601
L495.064 -769.103
L497.551 -771.756
L500.037 -774.41
L502.524 -776.972
L505.011 -779.269
L507.497 -781.682
L509.984 -784.259
L512.471 -786.696
L514.957 -788.898
L517.444 -791.164
L519.93 -793.553
L522.417 -795.878
L524.904 -798.444
L527.39 -800.773
L529.877 -803.021
L532.364 -805.332
L534.85 -807.645
L537.337 -809.876
L539.824 -812.101
L542.31 -814.374
L544.797 -816.558
L547.283 -818.786
L549.77 -821.014
L552.257 -823.514
L554.743 -825.578
L557.23 -827.56
L559.717 -829.566
L562.203 -831.922
L564.69 -834.095
L567.176 -836.019
L569.663 -837.802
L572.15 -840.081
L574.636 -841.658
L577.123 -843.727
L579.61 -845.441
L582.096 -846.947
L584.583 -848.893
L587.07 -850.774
L589.556 -852.612
L592.043 -853.681
L594.529 -854.949
L597.016 -856.528
L599.503 -857.844
L601.989 -859.415
L604.476 -861.037
L606.963 -862.539
L609.449 -863.854
L611.936 -865.327
L614.422 -866.648
L616.909 -868.146
L619.396 -869.747
L621.882 -871.05
L624.369 -872.345
L626.856 -873.646
L629.342 -874.881
L631.829 -876.169
L634.316 -877.335
L636.802 -878.379
L639.289 -879.704
L641.775 -881.123
L644.262 -882.453
L646.749 -883.67
L649.235 -884.985
L651.722 -886.172
L654.209 -887.353
L656.695 -888.534
L659.182 -889.715
L661.668 -890.928
L664.155 -892.109
L666.642 -893.256
L669.128 -894.43
L671.615 -895.339
L674.102 -896.134
L676.588 -897.232
L676.588 -960.245
L676.588 -960.245
L674.102 -957.956
L671.615 -955.677
L669.128 -953.392
L666.642 -951.106
L664.155 -948.601
L661.668 -945.982
L659.182 -943.204
L656.695 -940.653
L654.209 -937.977
L651.722 -935.621
L649.235 -933.299
L646.749 -930.975
L644.262 -928.404
L641.775 -925.864
L639.289 -923.528
L636.802 -921.367
L634.316 -918.979
L631.829 -916.596
L629.342 -913.983
L626.856 -911.712
L624.369 -909.442
L621.882 -907.171
L619.396 -904.849
L616.909 -902.637
L614.422 -900.373
L611.936 -898.185
L609.449 -896.148
L606.963 -893.841
L604.476 -891.513
L601.989 -889.424
L599.503 -887.376
L597.016 -884.87
L594.529 -882.897
L592.043 -881.067
L589.556 -878.905
L587.07 -876.916
L584.583 -875.095
L582.096 -873.217
L579.61 -871.32
L577.123 -869.485
L574.636 -867.857
L572.15 -865.973
L569.663 -864.344
L567.176 -862.917
L564.69 -861.462
L562.203 -860.178
L559.717 -858.735
L557.23 -857.117
L554.743 -855.752
L552.257 -854.277
L549.77 -852.924
L547.283 -851.34
L544.797 -849.992
L542.31 -848.954
L539.824 -847.651
L537.337 -846.332
L534.85 -845.012
L532.364 -843.877
L529.877 -842.794
L527.39 -841.537
L524.904 -839.944
L522.417 -838.567
L519.93 -837.229
L517.444 -836.073
L514.957 -834.915
L512.471 -833.751
L509.984 -832.75
L507.497 -831.57
L505.011 -830.553
L502.524 -829.525
L500.037 -828.612
L497.551 -827.475
L495.064 -826.235
L492.578 -825.096
L490.091 -824.074
L487.604 -822.602
L485.118 -821.327
L482.631 -820.231
L480.144 -819.323
L477.658 -818.507
L475.171 -817.69
L472.684 -816.867
L470.198 -815.69
L467.711 -814.38
L465.225 -813.07
L462.738 -811.76
L460.251 -810.504
L457.765 -809.226
L455.278 -808.132
L452.791 -807.038
L450.305 -806.054
L447.818 -805.067
L445.332 -804.077
L442.845 -803.086
L440.358 -802.109
L437.872 -801.147
L435.385 -800.186
L432.898 -799.224
L430.412 -798.258
z
" id="m8f06097a1a" style="stroke:#4c72b0;stroke-opacity:0.15;stroke-width:0.3;"/>
    </defs>
    <g clip-path="url(#p8f0a1a9076)">
     <use style="fill:#4c72b0;fill-opacity:0.15;stroke:#4c72b0;stroke-opacity:0.15;stroke-width:0.3;" x="0.0" xlink:href="#m8f06097a1a" y="1080.0"/>
    </g>
   </g>
   <g id="line2d_92">
    <path clip-path="url(#p8f0a1a9076)" d="
M430.412 327.627
L432.898 325.842
L435.385 324.056
L437.872 322.271
L440.358 320.486
L442.845 318.701
L445.332 316.916
L447.818 315.13
L450.305 313.345
L452.791 311.56
L455.278 309.775
L457.765 307.989
L460.251 306.204
L462.738 304.419
L465.225 302.634
L467.711 300.849
L470.198 299.063
L472.684 297.278
L475.171 295.493
L477.658 293.708
L480.144 291.923
L482.631 290.137
L485.118 288.352
L487.604 286.567
L490.091 284.782
L492.578 282.997
L495.064 281.211
L497.551 279.426
L500.037 277.641
L502.524 275.856
L505.011 274.071
L507.497 272.285
L509.984 270.5
L512.471 268.715
L514.957 266.93
L517.444 265.145
L519.93 263.359
L522.417 261.574
L524.904 259.789
L527.39 258.004
L529.877 256.219
L532.364 254.433
L534.85 252.648
L537.337 250.863
L539.824 249.078
L542.31 247.292
L544.797 245.507
L547.283 243.722
L549.77 241.937
L552.257 240.152
L554.743 238.366
L557.23 236.581
L559.717 234.796
L562.203 233.011
L564.69 231.226
L567.176 229.44
L569.663 227.655
L572.15 225.87
L574.636 224.085
L577.123 222.3
L579.61 220.514
L582.096 218.729
L584.583 216.944
L587.07 215.159
L589.556 213.374
L592.043 211.588
L594.529 209.803
L597.016 208.018
L599.503 206.233
L601.989 204.448
L604.476 202.662
L606.963 200.877
L609.449 199.092
L611.936 197.307
L614.422 195.521
L616.909 193.736
L619.396 191.951
L621.882 190.166
L624.369 188.381
L626.856 186.595
L629.342 184.81
L631.829 183.025
L634.316 181.24
L636.802 179.455
L639.289 177.669
L641.775 175.884
L644.262 174.099
L646.749 172.314
L649.235 170.529
L651.722 168.743
L654.209 166.958
L656.695 165.173
L659.182 163.388
L661.668 161.603
L664.155 159.817
L666.642 158.032
L669.128 156.247
L671.615 154.462
L674.102 152.677
L676.588 150.891" style="fill:none;stroke:#4c72b0;stroke-linecap:round;stroke-width:2.625;"/>
   </g>
   <g id="patch_8">
    <path d="
M430.412 108
L676.588 108" style="fill:none;"/>
   </g>
   <g id="patch_9">
    <path d="
M676.588 317.25
L676.588 108" style="fill:none;"/>
   </g>
   <g id="patch_10">
    <path d="
M430.412 317.25
L676.588 317.25" style="fill:none;"/>
   </g>
   <g id="patch_11">
    <path d="
M430.412 317.25
L430.412 108" style="fill:none;"/>
   </g>
  </g>
  <g id="axes_3">
   <g id="patch_12">
    <path d="
M725.824 317.25
L972 317.25
L972 108
L725.824 108
z
" style="fill:#eaeaf2;"/>
   </g>
   <g id="matplotlib.axis_5">
    <g id="xtick_17">
     <g id="line2d_93">
      <path clip-path="url(#pd8ed550d8a)" d="
M725.824 317.25
L725.824 108" style="fill:none;stroke:#ffffff;stroke-linecap:round;"/>
     </g>
     <g id="line2d_94">
      <g>
       <use style="fill:#262626;stroke:#262626;" x="725.823529412" xlink:href="#m219da94a98" y="317.25"/>
      </g>
     </g>
     <g id="line2d_95">
      <g>
       <use style="fill:#262626;stroke:#262626;" x="725.823529412" xlink:href="#m219da94a98" y="108.0"/>
      </g>
     </g>
     <g id="text_33">
      <!-- -2 -->
      <g style="fill:#262626;" transform="translate(721.583685662 331.8484375)scale(0.1 -0.1)">
       <use xlink:href="#BitstreamVeraSans-Roman-2d"/>
       <use x="36.083984375" xlink:href="#BitstreamVeraSans-Roman-32"/>
      </g>
     </g>
    </g>
    <g id="xtick_18">
     <g id="line2d_96">
      <path clip-path="url(#pd8ed550d8a)" d="
M766.853 317.25
L766.853 108" style="fill:none;stroke:#ffffff;stroke-linecap:round;"/>
     </g>
     <g id="line2d_97">
      <g>
       <use style="fill:#262626;stroke:#262626;" x="766.852941176" xlink:href="#m219da94a98" y="317.25"/>
      </g>
     </g>
     <g id="line2d_98">
      <g>
       <use style="fill:#262626;stroke:#262626;" x="766.852941176" xlink:href="#m219da94a98" y="108.0"/>
      </g>
     </g>
     <g id="text_34">
      <!-- 0 -->
      <g style="fill:#262626;" transform="translate(764.333409926 331.8484375)scale(0.1 -0.1)">
       <use xlink:href="#BitstreamVeraSans-Roman-30"/>
      </g>
     </g>
    </g>
    <g id="xtick_19">
     <g id="line2d_99">
      <path clip-path="url(#pd8ed550d8a)" d="
M807.882 317.25
L807.882 108" style="fill:none;stroke:#ffffff;stroke-linecap:round;"/>
     </g>
     <g id="line2d_100">
      <g>
       <use style="fill:#262626;stroke:#262626;" x="807.882352941" xlink:href="#m219da94a98" y="317.25"/>
      </g>
     </g>
     <g id="line2d_101">
      <g>
       <use style="fill:#262626;stroke:#262626;" x="807.882352941" xlink:href="#m219da94a98" y="108.0"/>
      </g>
     </g>
     <g id="text_35">
      <!-- 2 -->
      <g style="fill:#262626;" transform="translate(805.568290441 331.8484375)scale(0.1 -0.1)">
       <use xlink:href="#BitstreamVeraSans-Roman-32"/>
      </g>
     </g>
    </g>
    <g id="xtick_20">
     <g id="line2d_102">
      <path clip-path="url(#pd8ed550d8a)" d="
M848.912 317.25
L848.912 108" style="fill:none;stroke:#ffffff;stroke-linecap:round;"/>
     </g>
     <g id="line2d_103">
      <g>
       <use style="fill:#262626;stroke:#262626;" x="848.911764706" xlink:href="#m219da94a98" y="317.25"/>
      </g>
     </g>
     <g id="line2d_104">
      <g>
       <use style="fill:#262626;stroke:#262626;" x="848.911764706" xlink:href="#m219da94a98" y="108.0"/>
      </g>
     </g>
     <g id="text_36">
      <!-- 4 -->
      <g style="fill:#262626;" transform="translate(846.255514706 331.8484375)scale(0.1 -0.1)">
       <use xlink:href="#BitstreamVeraSans-Roman-34"/>
      </g>
     </g>
    </g>
    <g id="xtick_21">
     <g id="line2d_105">
      <path clip-path="url(#pd8ed550d8a)" d="
M889.941 317.25
L889.941 108" style="fill:none;stroke:#ffffff;stroke-linecap:round;"/>
     </g>
     <g id="line2d_106">
      <g>
       <use style="fill:#262626;stroke:#262626;" x="889.941176471" xlink:href="#m219da94a98" y="317.25"/>
      </g>
     </g>
     <g id="line2d_107">
      <g>
       <use style="fill:#262626;stroke:#262626;" x="889.941176471" xlink:href="#m219da94a98" y="108.0"/>
      </g>
     </g>
     <g id="text_37">
      <!-- 6 -->
      <g style="fill:#262626;" transform="translate(887.423988971 331.8484375)scale(0.1 -0.1)">
       <use xlink:href="#BitstreamVeraSans-Roman-36"/>
      </g>
     </g>
    </g>
    <g id="xtick_22">
     <g id="line2d_108">
      <path clip-path="url(#pd8ed550d8a)" d="
M930.971 317.25
L930.971 108" style="fill:none;stroke:#ffffff;stroke-linecap:round;"/>
     </g>
     <g id="line2d_109">
      <g>
       <use style="fill:#262626;stroke:#262626;" x="930.970588235" xlink:href="#m219da94a98" y="317.25"/>
      </g>
     </g>
     <g id="line2d_110">
      <g>
       <use style="fill:#262626;stroke:#262626;" x="930.970588235" xlink:href="#m219da94a98" y="108.0"/>
      </g>
     </g>
     <g id="text_38">
      <!-- 8 -->
      <g style="fill:#262626;" transform="translate(928.470588235 331.8484375)scale(0.1 -0.1)">
       <use xlink:href="#BitstreamVeraSans-Roman-38"/>
      </g>
     </g>
    </g>
    <g id="xtick_23">
     <g id="line2d_111">
      <path clip-path="url(#pd8ed550d8a)" d="
M972 317.25
L972 108" style="fill:none;stroke:#ffffff;stroke-linecap:round;"/>
     </g>
     <g id="line2d_112">
      <g>
       <use style="fill:#262626;stroke:#262626;" x="972.0" xlink:href="#m219da94a98" y="317.25"/>
      </g>
     </g>
     <g id="line2d_113">
      <g>
       <use style="fill:#262626;stroke:#262626;" x="972.0" xlink:href="#m219da94a98" y="108.0"/>
      </g>
     </g>
     <g id="text_39">
      <!-- 10 -->
      <g style="fill:#262626;" transform="translate(966.51875 331.8484375)scale(0.1 -0.1)">
       <use xlink:href="#BitstreamVeraSans-Roman-31"/>
       <use x="63.623046875" xlink:href="#BitstreamVeraSans-Roman-30"/>
      </g>
     </g>
    </g>
    <g id="text_40">
     <!-- Points via Turnovers -->
     <defs>
      <path d="
M19.6719 64.7969
L19.6719 37.4062
L32.0781 37.4062
Q38.9688 37.4062 42.7188 40.9688
Q46.4844 44.5312 46.4844 51.125
Q46.4844 57.6719 42.7188 61.2344
Q38.9688 64.7969 32.0781 64.7969
z

M9.8125 72.9062
L32.0781 72.9062
Q44.3438 72.9062 50.6094 67.3594
Q56.8906 61.8125 56.8906 51.125
Q56.8906 40.3281 50.6094 34.8125
Q44.3438 29.2969 32.0781 29.2969
L19.6719 29.2969
L19.6719 0
L9.8125 0
z
" id="BitstreamVeraSans-Roman-50"/>
      <path d="
M-0.296875 72.9062
L61.375 72.9062
L61.375 64.5938
L35.5 64.5938
L35.5 0
L25.5938 0
L25.5938 64.5938
L-0.296875 64.5938
z
" id="BitstreamVeraSans-Roman-54"/>
      <path d="
M34.2812 27.4844
Q23.3906 27.4844 19.1875 25
Q14.9844 22.5156 14.9844 16.5
Q14.9844 11.7188 18.1406 8.90625
Q21.2969 6.10938 26.7031 6.10938
Q34.1875 6.10938 38.7031 11.4062
Q43.2188 16.7031 43.2188 25.4844
L43.2188 27.4844
z

M52.2031 31.2031
L52.2031 0
L43.2188 0
L43.2188 8.29688
Q40.1406 3.32812 35.5469 0.953125
Q30.9531 -1.42188 24.3125 -1.42188
Q15.9219 -1.42188 10.9531 3.29688
Q6 8.01562 6 15.9219
Q6 25.1406 12.1719 29.8281
Q18.3594 34.5156 30.6094 34.5156
L43.2188 34.5156
L43.2188 35.4062
Q43.2188 41.6094 39.1406 45
Q35.0625 48.3906 27.6875 48.3906
Q23 48.3906 18.5469 47.2656
Q14.1094 46.1406 10.0156 43.8906
L10.0156 52.2031
Q14.9375 54.1094 19.5781 55.0469
Q24.2188 56 28.6094 56
Q40.4844 56 46.3438 49.8438
Q52.2031 43.7031 52.2031 31.2031" id="BitstreamVeraSans-Roman-61"/>
      <path d="
M44.2812 53.0781
L44.2812 44.5781
Q40.4844 46.5312 36.375 47.5
Q32.2812 48.4844 27.875 48.4844
Q21.1875 48.4844 17.8438 46.4375
Q14.5 44.3906 14.5 40.2812
Q14.5 37.1562 16.8906 35.375
Q19.2812 33.5938 26.5156 31.9844
L29.5938 31.2969
Q39.1562 29.25 43.1875 25.5156
Q47.2188 21.7812 47.2188 15.0938
Q47.2188 7.46875 41.1875 3.01562
Q35.1562 -1.42188 24.6094 -1.42188
Q20.2188 -1.42188 15.4531 -0.5625
Q10.6875 0.296875 5.42188 2
L5.42188 11.2812
Q10.4062 8.6875 15.2344 7.39062
Q20.0625 6.10938 24.8125 6.10938
Q31.1562 6.10938 34.5625 8.28125
Q37.9844 10.4531 37.9844 14.4062
Q37.9844 18.0625 35.5156 20.0156
Q33.0625 21.9688 24.7031 23.7812
L21.5781 24.5156
Q13.2344 26.2656 9.51562 29.9062
Q5.8125 33.5469 5.8125 39.8906
Q5.8125 47.6094 11.2812 51.7969
Q16.75 56 26.8125 56
Q31.7812 56 36.1719 55.2656
Q40.5781 54.5469 44.2812 53.0781" id="BitstreamVeraSans-Roman-73"/>
      <path d="
M41.1094 46.2969
Q39.5938 47.1719 37.8125 47.5781
Q36.0312 48 33.8906 48
Q26.2656 48 22.1875 43.0469
Q18.1094 38.0938 18.1094 28.8125
L18.1094 0
L9.07812 0
L9.07812 54.6875
L18.1094 54.6875
L18.1094 46.1875
Q20.9531 51.1719 25.4844 53.5781
Q30.0312 56 36.5312 56
Q37.4531 56 38.5781 55.875
Q39.7031 55.7656 41.0625 55.5156
z
" id="BitstreamVeraSans-Roman-72"/>
     </defs>
     <g style="fill:#262626;" transform="translate(794.218561581 347.28640625)scale(0.11 -0.11)">
      <use xlink:href="#BitstreamVeraSans-Roman-50"/>
      <use x="56.677734375" xlink:href="#BitstreamVeraSans-Roman-6f"/>
      <use x="117.859375" xlink:href="#BitstreamVeraSans-Roman-69"/>
      <use x="145.642578125" xlink:href="#BitstreamVeraSans-Roman-6e"/>
      <use x="209.021484375" xlink:href="#BitstreamVeraSans-Roman-74"/>
      <use x="248.23046875" xlink:href="#BitstreamVeraSans-Roman-73"/>
      <use x="300.330078125" xlink:href="#BitstreamVeraSans-Roman-20"/>
      <use x="332.1171875" xlink:href="#BitstreamVeraSans-Roman-76"/>
      <use x="391.296875" xlink:href="#BitstreamVeraSans-Roman-69"/>
      <use x="419.080078125" xlink:href="#BitstreamVeraSans-Roman-61"/>
      <use x="480.359375" xlink:href="#BitstreamVeraSans-Roman-20"/>
      <use x="512.146484375" xlink:href="#BitstreamVeraSans-Roman-54"/>
      <use x="558.10546875" xlink:href="#BitstreamVeraSans-Roman-75"/>
      <use x="621.484375" xlink:href="#BitstreamVeraSans-Roman-72"/>
      <use x="660.84765625" xlink:href="#BitstreamVeraSans-Roman-6e"/>
      <use x="724.2265625" xlink:href="#BitstreamVeraSans-Roman-6f"/>
      <use x="785.408203125" xlink:href="#BitstreamVeraSans-Roman-76"/>
      <use x="844.587890625" xlink:href="#BitstreamVeraSans-Roman-65"/>
      <use x="906.111328125" xlink:href="#BitstreamVeraSans-Roman-72"/>
      <use x="947.224609375" xlink:href="#BitstreamVeraSans-Roman-73"/>
     </g>
    </g>
   </g>
   <g id="matplotlib.axis_6">
    <g id="ytick_15">
     <g id="line2d_114">
      <path clip-path="url(#pd8ed550d8a)" d="
M725.824 317.25
L972 317.25" style="fill:none;stroke:#ffffff;stroke-linecap:round;"/>
     </g>
     <g id="line2d_115">
      <g>
       <use style="fill:#262626;stroke:#262626;" x="725.823529412" xlink:href="#m219da94a98" y="317.25"/>
      </g>
     </g>
     <g id="line2d_116">
      <g>
       <use style="fill:#262626;stroke:#262626;" x="972.0" xlink:href="#m219da94a98" y="317.25"/>
      </g>
     </g>
     <g id="text_41">
      <!-- -15 -->
      <g style="fill:#262626;" transform="translate(703.853216912 320.009375)scale(0.1 -0.1)">
       <use xlink:href="#BitstreamVeraSans-Roman-2d"/>
       <use x="36.083984375" xlink:href="#BitstreamVeraSans-Roman-31"/>
       <use x="99.70703125" xlink:href="#BitstreamVeraSans-Roman-35"/>
      </g>
     </g>
    </g>
    <g id="ytick_16">
     <g id="line2d_117">
      <path clip-path="url(#pd8ed550d8a)" d="
M725.824 282.375
L972 282.375" style="fill:none;stroke:#ffffff;stroke-linecap:round;"/>
     </g>
     <g id="line2d_118">
      <g>
       <use style="fill:#262626;stroke:#262626;" x="725.823529412" xlink:href="#m219da94a98" y="282.375"/>
      </g>
     </g>
     <g id="line2d_119">
      <g>
       <use style="fill:#262626;stroke:#262626;" x="972.0" xlink:href="#m219da94a98" y="282.375"/>
      </g>
     </g>
     <g id="text_42">
      <!-- -10 -->
      <g style="fill:#262626;" transform="translate(703.643841912 285.134375)scale(0.1 -0.1)">
       <use xlink:href="#BitstreamVeraSans-Roman-2d"/>
       <use x="36.083984375" xlink:href="#BitstreamVeraSans-Roman-31"/>
       <use x="99.70703125" xlink:href="#BitstreamVeraSans-Roman-30"/>
      </g>
     </g>
    </g>
    <g id="ytick_17">
     <g id="line2d_120">
      <path clip-path="url(#pd8ed550d8a)" d="
M725.824 247.5
L972 247.5" style="fill:none;stroke:#ffffff;stroke-linecap:round;"/>
     </g>
     <g id="line2d_121">
      <g>
       <use style="fill:#262626;stroke:#262626;" x="725.823529412" xlink:href="#m219da94a98" y="247.5"/>
      </g>
     </g>
     <g id="line2d_122">
      <g>
       <use style="fill:#262626;stroke:#262626;" x="972.0" xlink:href="#m219da94a98" y="247.5"/>
      </g>
     </g>
     <g id="text_43">
      <!-- -5 -->
      <g style="fill:#262626;" transform="translate(710.215716912 250.259375)scale(0.1 -0.1)">
       <use xlink:href="#BitstreamVeraSans-Roman-2d"/>
       <use x="36.083984375" xlink:href="#BitstreamVeraSans-Roman-35"/>
      </g>
     </g>
    </g>
    <g id="ytick_18">
     <g id="line2d_123">
      <path clip-path="url(#pd8ed550d8a)" d="
M725.824 212.625
L972 212.625" style="fill:none;stroke:#ffffff;stroke-linecap:round;"/>
     </g>
     <g id="line2d_124">
      <g>
       <use style="fill:#262626;stroke:#262626;" x="725.823529412" xlink:href="#m219da94a98" y="212.625"/>
      </g>
     </g>
     <g id="line2d_125">
      <g>
       <use style="fill:#262626;stroke:#262626;" x="972.0" xlink:href="#m219da94a98" y="212.625"/>
      </g>
     </g>
     <g id="text_44">
      <!-- 0 -->
      <g style="fill:#262626;" transform="translate(713.784466912 215.384375)scale(0.1 -0.1)">
       <use xlink:href="#BitstreamVeraSans-Roman-30"/>
      </g>
     </g>
    </g>
    <g id="ytick_19">
     <g id="line2d_126">
      <path clip-path="url(#pd8ed550d8a)" d="
M725.824 177.75
L972 177.75" style="fill:none;stroke:#ffffff;stroke-linecap:round;"/>
     </g>
     <g id="line2d_127">
      <g>
       <use style="fill:#262626;stroke:#262626;" x="725.823529412" xlink:href="#m219da94a98" y="177.75"/>
      </g>
     </g>
     <g id="line2d_128">
      <g>
       <use style="fill:#262626;stroke:#262626;" x="972.0" xlink:href="#m219da94a98" y="177.75"/>
      </g>
     </g>
     <g id="text_45">
      <!-- 5 -->
      <g style="fill:#262626;" transform="translate(714.106341912 180.509375)scale(0.1 -0.1)">
       <use xlink:href="#BitstreamVeraSans-Roman-35"/>
      </g>
     </g>
    </g>
    <g id="ytick_20">
     <g id="line2d_129">
      <path clip-path="url(#pd8ed550d8a)" d="
M725.824 142.875
L972 142.875" style="fill:none;stroke:#ffffff;stroke-linecap:round;"/>
     </g>
     <g id="line2d_130">
      <g>
       <use style="fill:#262626;stroke:#262626;" x="725.823529412" xlink:href="#m219da94a98" y="142.875"/>
      </g>
     </g>
     <g id="line2d_131">
      <g>
       <use style="fill:#262626;stroke:#262626;" x="972.0" xlink:href="#m219da94a98" y="142.875"/>
      </g>
     </g>
     <g id="text_46">
      <!-- 10 -->
      <g style="fill:#262626;" transform="translate(707.861029412 145.634375)scale(0.1 -0.1)">
       <use xlink:href="#BitstreamVeraSans-Roman-31"/>
       <use x="63.623046875" xlink:href="#BitstreamVeraSans-Roman-30"/>
      </g>
     </g>
    </g>
    <g id="ytick_21">
     <g id="line2d_132">
      <path clip-path="url(#pd8ed550d8a)" d="
M725.824 108
L972 108" style="fill:none;stroke:#ffffff;stroke-linecap:round;"/>
     </g>
     <g id="line2d_133">
      <g>
       <use style="fill:#262626;stroke:#262626;" x="725.823529412" xlink:href="#m219da94a98" y="108.0"/>
      </g>
     </g>
     <g id="line2d_134">
      <g>
       <use style="fill:#262626;stroke:#262626;" x="972.0" xlink:href="#m219da94a98" y="108.0"/>
      </g>
     </g>
     <g id="text_47">
      <!-- 15 -->
      <g style="fill:#262626;" transform="translate(708.070404412 110.759375)scale(0.1 -0.1)">
       <use xlink:href="#BitstreamVeraSans-Roman-31"/>
       <use x="63.623046875" xlink:href="#BitstreamVeraSans-Roman-35"/>
      </g>
     </g>
    </g>
   </g>
   <g id="PathCollection_3">
    <g clip-path="url(#pd8ed550d8a)">
     <use style="fill:#4c72b0;fill-opacity:0.8;" x="930.970588235" xlink:href="#m501da90a0f" y="142.875"/>
     <use style="fill:#4c72b0;fill-opacity:0.8;" x="807.882352941" xlink:href="#m501da90a0f" y="191.7"/>
     <use style="fill:#4c72b0;fill-opacity:0.8;" x="951.485294118" xlink:href="#m501da90a0f" y="212.625"/>
     <use style="fill:#4c72b0;fill-opacity:0.8;" x="951.485294118" xlink:href="#m501da90a0f" y="226.575"/>
     <use style="fill:#4c72b0;fill-opacity:0.8;" x="807.882352941" xlink:href="#m501da90a0f" y="156.825"/>
     <use style="fill:#4c72b0;fill-opacity:0.8;" x="848.911764706" xlink:href="#m501da90a0f" y="254.475"/>
     <use style="fill:#4c72b0;fill-opacity:0.8;" x="951.485294118" xlink:href="#m501da90a0f" y="205.65"/>
     <use style="fill:#4c72b0;fill-opacity:0.8;" x="766.852941176" xlink:href="#m501da90a0f" y="247.5"/>
     <use style="fill:#4c72b0;fill-opacity:0.8;" x="807.882352941" xlink:href="#m501da90a0f" y="289.35"/>
     <use style="fill:#4c72b0;fill-opacity:0.8;" x="910.455882353" xlink:href="#m501da90a0f" y="191.7"/>
     <use style="fill:#4c72b0;fill-opacity:0.8;" x="766.852941176" xlink:href="#m501da90a0f" y="317.25"/>
     <use style="fill:#4c72b0;fill-opacity:0.8;" x="766.852941176" xlink:href="#m501da90a0f" y="184.725"/>
     <use style="fill:#4c72b0;fill-opacity:0.8;" x="869.426470588" xlink:href="#m501da90a0f" y="212.625"/>
     <use style="fill:#4c72b0;fill-opacity:0.8;" x="807.882352941" xlink:href="#m501da90a0f" y="226.575"/>
     <use style="fill:#4c72b0;fill-opacity:0.8;" x="930.970588235" xlink:href="#m501da90a0f" y="163.8"/>
     <use style="fill:#4c72b0;fill-opacity:0.8;" x="930.970588235" xlink:href="#m501da90a0f" y="156.825"/>
     <use style="fill:#4c72b0;fill-opacity:0.8;" x="910.455882353" xlink:href="#m501da90a0f" y="282.375"/>
     <use style="fill:#4c72b0;fill-opacity:0.8;" x="848.911764706" xlink:href="#m501da90a0f" y="303.3"/>
     <use style="fill:#4c72b0;fill-opacity:0.8;" x="869.426470588" xlink:href="#m501da90a0f" y="240.525"/>
     <use style="fill:#4c72b0;fill-opacity:0.8;" x="930.970588235" xlink:href="#m501da90a0f" y="142.875"/>
     <use style="fill:#4c72b0;fill-opacity:0.8;" x="807.882352941" xlink:href="#m501da90a0f" y="226.575"/>
     <use style="fill:#4c72b0;fill-opacity:0.8;" x="807.882352941" xlink:href="#m501da90a0f" y="205.65"/>
     <use style="fill:#4c72b0;fill-opacity:0.8;" x="889.941176471" xlink:href="#m501da90a0f" y="184.725"/>
     <use style="fill:#4c72b0;fill-opacity:0.8;" x="848.911764706" xlink:href="#m501da90a0f" y="135.9"/>
     <use style="fill:#4c72b0;fill-opacity:0.8;" x="807.882352941" xlink:href="#m501da90a0f" y="219.6"/>
     <use style="fill:#4c72b0;fill-opacity:0.8;" x="807.882352941" xlink:href="#m501da90a0f" y="254.475"/>
     <use style="fill:#4c72b0;fill-opacity:0.8;" x="807.882352941" xlink:href="#m501da90a0f" y="296.325"/>
     <use style="fill:#4c72b0;fill-opacity:0.8;" x="869.426470588" xlink:href="#m501da90a0f" y="135.9"/>
     <use style="fill:#4c72b0;fill-opacity:0.8;" x="869.426470588" xlink:href="#m501da90a0f" y="128.925"/>
     <use style="fill:#4c72b0;fill-opacity:0.8;" x="807.882352941" xlink:href="#m501da90a0f" y="247.5"/>
     <use style="fill:#4c72b0;fill-opacity:0.8;" x="848.911764706" xlink:href="#m501da90a0f" y="219.6"/>
     <use style="fill:#4c72b0;fill-opacity:0.8;" x="807.882352941" xlink:href="#m501da90a0f" y="282.375"/>
     <use style="fill:#4c72b0;fill-opacity:0.8;" x="828.397058824" xlink:href="#m501da90a0f" y="254.475"/>
     <use style="fill:#4c72b0;fill-opacity:0.8;" x="848.911764706" xlink:href="#m501da90a0f" y="219.6"/>
     <use style="fill:#4c72b0;fill-opacity:0.8;" x="807.882352941" xlink:href="#m501da90a0f" y="156.825"/>
     <use style="fill:#4c72b0;fill-opacity:0.8;" x="848.911764706" xlink:href="#m501da90a0f" y="247.5"/>
    </g>
   </g>
   <g id="PolyCollection_3">
    <defs>
     <path d="
M725.824 -856.101
L725.824 -780.097
L728.31 -781.712
L730.797 -783.228
L733.283 -784.664
L735.77 -786.057
L738.257 -787.49
L740.743 -788.947
L743.23 -790.636
L745.717 -792.156
L748.203 -793.757
L750.69 -795.356
L753.176 -796.48
L755.663 -798.158
L758.15 -799.838
L760.636 -801.451
L763.123 -802.97
L765.61 -804.028
L768.096 -805.31
L770.583 -806.86
L773.07 -808.365
L775.556 -809.888
L778.043 -811.455
L780.529 -812.89
L783.016 -814.296
L785.503 -815.841
L787.989 -817.179
L790.476 -818.457
L792.963 -819.858
L795.449 -821.282
L797.936 -822.692
L800.422 -823.938
L802.909 -825.238
L805.396 -826.714
L807.882 -828.19
L810.369 -829.509
L812.856 -830.748
L815.342 -831.892
L817.829 -833.064
L820.316 -834.193
L822.802 -835.61
L825.289 -836.905
L827.775 -838.175
L830.262 -839.435
L832.749 -840.813
L835.235 -842
L837.722 -843.011
L840.209 -844.082
L842.695 -845.154
L845.182 -846.225
L847.668 -847.169
L850.155 -847.775
L852.642 -848.326
L855.128 -849.071
L857.615 -850.09
L860.102 -850.778
L862.588 -851.53
L865.075 -852.573
L867.561 -853.438
L870.048 -854.294
L872.535 -855.102
L875.021 -856.068
L877.508 -857.068
L879.995 -857.704
L882.481 -857.745
L884.968 -858.24
L887.455 -859.043
L889.941 -859.691
L892.428 -860.138
L894.914 -860.857
L897.401 -861.693
L899.888 -862.535
L902.374 -863.226
L904.861 -863.768
L907.348 -864.471
L909.834 -864.95
L912.321 -865.495
L914.807 -865.855
L917.294 -866.18
L919.781 -866.308
L922.267 -866.55
L924.754 -866.791
L927.241 -867.231
L929.727 -867.989
L932.214 -868.35
L934.701 -868.719
L937.187 -869.272
L939.674 -869.662
L942.16 -869.924
L944.647 -870.503
L947.134 -870.599
L949.62 -870.871
L952.107 -871.227
L954.594 -871.583
L957.08 -871.94
L959.567 -872.302
L962.053 -872.522
L964.54 -872.914
L967.027 -873.076
L969.513 -873.387
L972 -873.815
L972 -944.842
L972 -944.842
L969.513 -943.161
L967.027 -941.48
L964.54 -939.797
L962.053 -938.106
L959.567 -936.725
L957.08 -935.187
L954.594 -933.326
L952.107 -931.819
L949.62 -930.681
L947.134 -929.535
L944.647 -928.17
L942.16 -926.517
L939.674 -924.682
L937.187 -922.999
L934.701 -921.373
L932.214 -919.961
L929.727 -918.511
L927.241 -916.806
L924.754 -915.415
L922.267 -914.046
L919.781 -912.679
L917.294 -911.312
L914.807 -909.944
L912.321 -908.577
L909.834 -907.291
L907.348 -905.845
L904.861 -904.482
L902.374 -903.126
L899.888 -901.76
L897.401 -900.391
L894.914 -899.022
L892.428 -897.832
L889.941 -896.777
L887.455 -895.515
L884.968 -894.051
L882.481 -892.779
L879.995 -891.11
L877.508 -890.421
L875.021 -889.372
L872.535 -888.24
L870.048 -887.288
L867.561 -886.191
L865.075 -884.811
L862.588 -883.988
L860.102 -882.952
L857.615 -882.029
L855.128 -881.125
L852.642 -880.076
L850.155 -879.502
L847.668 -878.868
L845.182 -878.312
L842.695 -877.664
L840.209 -877.048
L837.722 -876.445
L835.235 -875.839
L832.749 -875.086
L830.262 -874.552
L827.775 -873.922
L825.289 -873.229
L822.802 -872.735
L820.316 -872.158
L817.829 -871.21
L815.342 -870.639
L812.856 -870.137
L810.369 -869.635
L807.882 -869.187
L805.396 -868.709
L802.909 -868.521
L800.422 -868.179
L797.936 -867.648
L795.449 -867.046
L792.963 -866.489
L790.476 -866.057
L787.989 -865.525
L785.503 -865.102
L783.016 -864.762
L780.529 -864.521
L778.043 -864.27
L775.556 -863.732
L773.07 -863.164
L770.583 -862.554
L768.096 -862.032
L765.61 -861.632
L763.123 -861.144
L760.636 -860.577
L758.15 -860.096
L755.663 -859.934
L753.176 -859.379
L750.69 -858.821
L748.203 -858.262
L745.717 -857.956
L743.23 -857.673
L740.743 -857.389
L738.257 -857.114
L735.77 -856.856
L733.283 -856.673
L730.797 -856.489
L728.31 -856.297
L725.824 -856.101
z
" id="mfb25902778" style="stroke:#4c72b0;stroke-opacity:0.15;stroke-width:0.3;"/>
    </defs>
    <g clip-path="url(#pd8ed550d8a)">
     <use style="fill:#4c72b0;fill-opacity:0.15;stroke:#4c72b0;stroke-opacity:0.15;stroke-width:0.3;" x="0.0" xlink:href="#mfb25902778" y="1080.0"/>
    </g>
   </g>
   <g id="line2d_135">
    <path clip-path="url(#pd8ed550d8a)" d="
M725.824 260.495
L728.31 259.615
L730.797 258.735
L733.283 257.855
L735.77 256.975
L738.257 256.095
L740.743 255.215
L743.23 254.335
L745.717 253.455
L748.203 252.575
L750.69 251.695
L753.176 250.815
L755.663 249.935
L758.15 249.055
L760.636 248.175
L763.123 247.295
L765.61 246.415
L768.096 245.535
L770.583 244.655
L773.07 243.775
L775.556 242.895
L778.043 242.015
L780.529 241.135
L783.016 240.255
L785.503 239.375
L787.989 238.495
L790.476 237.615
L792.963 236.735
L795.449 235.855
L797.936 234.975
L800.422 234.095
L802.909 233.215
L805.396 232.335
L807.882 231.455
L810.369 230.575
L812.856 229.695
L815.342 228.815
L817.829 227.935
L820.316 227.055
L822.802 226.175
L825.289 225.295
L827.775 224.415
L830.262 223.535
L832.749 222.655
L835.235 221.775
L837.722 220.895
L840.209 220.015
L842.695 219.135
L845.182 218.255
L847.668 217.375
L850.155 216.495
L852.642 215.615
L855.128 214.735
L857.615 213.855
L860.102 212.975
L862.588 212.095
L865.075 211.215
L867.561 210.335
L870.048 209.455
L872.535 208.575
L875.021 207.695
L877.508 206.815
L879.995 205.935
L882.481 205.055
L884.968 204.175
L887.455 203.295
L889.941 202.415
L892.428 201.535
L894.914 200.655
L897.401 199.775
L899.888 198.895
L902.374 198.015
L904.861 197.135
L907.348 196.255
L909.834 195.375
L912.321 194.495
L914.807 193.615
L917.294 192.735
L919.781 191.855
L922.267 190.975
L924.754 190.095
L927.241 189.215
L929.727 188.335
L932.214 187.455
L934.701 186.575
L937.187 185.695
L939.674 184.815
L942.16 183.935
L944.647 183.055
L947.134 182.175
L949.62 181.295
L952.107 180.415
L954.594 179.535
L957.08 178.655
L959.567 177.775
L962.053 176.895
L964.54 176.015
L967.027 175.135
L969.513 174.255
L972 173.375" style="fill:none;stroke:#4c72b0;stroke-linecap:round;stroke-width:2.625;"/>
   </g>
   <g id="patch_13">
    <path d="
M725.824 108
L972 108" style="fill:none;"/>
   </g>
   <g id="patch_14">
    <path d="
M972 317.25
L972 108" style="fill:none;"/>
   </g>
   <g id="patch_15">
    <path d="
M725.824 317.25
L972 317.25" style="fill:none;"/>
   </g>
   <g id="patch_16">
    <path d="
M725.824 317.25
L725.824 108" style="fill:none;"/>
   </g>
  </g>
 </g>
 <defs>
  <clipPath id="p796c768e71">
   <rect height="209.25" width="246.176470588" x="135.0" y="108.0"/>
  </clipPath>
  <clipPath id="pd8ed550d8a">
   <rect height="209.25" width="246.176470588" x="725.823529412" y="108.0"/>
  </clipPath>
  <clipPath id="p8f0a1a9076">
   <rect height="209.25" width="246.176470588" x="430.411764706" y="108.0"/>
  </clipPath>
 </defs>
</svg>
