<?xml version="1.0" encoding="utf-8" standalone="no"?>
<!DOCTYPE svg PUBLIC "-//W3C//DTD SVG 1.1//EN"
  "http://www.w3.org/Graphics/SVG/1.1/DTD/svg11.dtd">
<!-- Created with matplotlib (http://matplotlib.org/) -->
<svg height="1080pt" version="1.1" viewBox="0 0 1080 1080" width="1080pt" xmlns="http://www.w3.org/2000/svg" xmlns:xlink="http://www.w3.org/1999/xlink">
 <defs>
  <style type="text/css">
*{stroke-linecap:butt;stroke-linejoin:round;}
  </style>
 </defs>
 <g id="figure_1">
  <g id="patch_1">
   <path d="
M0 1080
L1080 1080
L1080 0
L0 0
z
" style="fill:#ffffff;"/>
  </g>
  <g id="axes_1">
   <g id="patch_2">
    <path d="
M135 317.25
L381.176 317.25
L381.176 108
L135 108
z
" style="fill:#eaeaf2;"/>
   </g>
   <g id="matplotlib.axis_1">
    <g id="xtick_1">
     <g id="line2d_1">
      <path clip-path="url(#p796c768e71)" d="
M135 317.25
L135 108" style="fill:none;stroke:#ffffff;stroke-linecap:round;"/>
     </g>
     <g id="line2d_2">
      <defs>
       <path d="
M0 0
L0 0" id="m219da94a98" style="stroke:#262626;"/>
      </defs>
      <g>
       <use style="fill:#262626;stroke:#262626;" x="135.0" xlink:href="#m219da94a98" y="317.25"/>
      </g>
     </g>
     <g id="line2d_3">
      <g>
       <use style="fill:#262626;stroke:#262626;" x="135.0" xlink:href="#m219da94a98" y="108.0"/>
      </g>
     </g>
     <g id="text_1">
      <!-- 0.2 -->
      <defs>
       <path d="
M19.1875 8.29688
L53.6094 8.29688
L53.6094 0
L7.32812 0
L7.32812 8.29688
Q12.9375 14.1094 22.625 23.8906
Q32.3281 33.6875 34.8125 36.5312
Q39.5469 41.8438 41.4219 45.5312
Q43.3125 49.2188 43.3125 52.7812
Q43.3125 58.5938 39.2344 62.25
Q35.1562 65.9219 28.6094 65.9219
Q23.9688 65.9219 18.8125 64.3125
Q13.6719 62.7031 7.8125 59.4219
L7.8125 69.3906
Q13.7656 71.7812 18.9375 73
Q24.125 74.2188 28.4219 74.2188
Q39.75 74.2188 46.4844 68.5469
Q53.2188 62.8906 53.2188 53.4219
Q53.2188 48.9219 51.5312 44.8906
Q49.8594 40.875 45.4062 35.4062
Q44.1875 33.9844 37.6406 27.2188
Q31.1094 20.4531 19.1875 8.29688" id="BitstreamVeraSans-Roman-32"/>
       <path d="
M31.7812 66.4062
Q24.1719 66.4062 20.3281 58.9062
Q16.5 51.4219 16.5 36.375
Q16.5 21.3906 20.3281 13.8906
Q24.1719 6.39062 31.7812 6.39062
Q39.4531 6.39062 43.2812 13.8906
Q47.125 21.3906 47.125 36.375
Q47.125 51.4219 43.2812 58.9062
Q39.4531 66.4062 31.7812 66.4062
M31.7812 74.2188
Q44.0469 74.2188 50.5156 64.5156
Q56.9844 54.8281 56.9844 36.375
Q56.9844 17.9688 50.5156 8.26562
Q44.0469 -1.42188 31.7812 -1.42188
Q19.5312 -1.42188 13.0625 8.26562
Q6.59375 17.9688 6.59375 36.375
Q6.59375 54.8281 13.0625 64.5156
Q19.5312 74.2188 31.7812 74.2188" id="BitstreamVeraSans-Roman-30"/>
       <path d="
M10.6875 12.4062
L21 12.4062
L21 0
L10.6875 0
z
" id="BitstreamVeraSans-Roman-2e"/>
      </defs>
      <g style="fill:#262626;" transform="translate(127.87890625 331.8484375)scale(0.1 -0.1)">
       <use xlink:href="#BitstreamVeraSans-Roman-30"/>
       <use x="63.623046875" xlink:href="#BitstreamVeraSans-Roman-2e"/>
       <use x="95.41015625" xlink:href="#BitstreamVeraSans-Roman-32"/>
      </g>
     </g>
    </g>
    <g id="xtick_2">
     <g id="line2d_4">
      <path clip-path="url(#p796c768e71)" d="
M176.029 317.25
L176.029 108" style="fill:none;stroke:#ffffff;stroke-linecap:round;"/>
     </g>
     <g id="line2d_5">
      <g>
       <use style="fill:#262626;stroke:#262626;" x="176.029411765" xlink:href="#m219da94a98" y="317.25"/>
      </g>
     </g>
     <g id="line2d_6">
      <g>
       <use style="fill:#262626;stroke:#262626;" x="176.029411765" xlink:href="#m219da94a98" y="108.0"/>
      </g>
     </g>
     <g id="text_2">
      <!-- 0.3 -->
      <defs>
       <path d="
M40.5781 39.3125
Q47.6562 37.7969 51.625 33
Q55.6094 28.2188 55.6094 21.1875
Q55.6094 10.4062 48.1875 4.48438
Q40.7656 -1.42188 27.0938 -1.42188
Q22.5156 -1.42188 17.6562 -0.515625
Q12.7969 0.390625 7.625 2.20312
L7.625 11.7188
Q11.7188 9.32812 16.5938 8.10938
Q21.4844 6.89062 26.8125 6.89062
Q36.0781 6.89062 40.9375 10.5469
Q45.7969 14.2031 45.7969 21.1875
Q45.7969 27.6406 41.2812 31.2656
Q36.7656 34.9062 28.7188 34.9062
L20.2188 34.9062
L20.2188 43.0156
L29.1094 43.0156
Q36.375 43.0156 40.2344 45.9219
Q44.0938 48.8281 44.0938 54.2969
Q44.0938 59.9062 40.1094 62.9062
Q36.1406 65.9219 28.7188 65.9219
Q24.6562 65.9219 20.0156 65.0312
Q15.375 64.1562 9.8125 62.3125
L9.8125 71.0938
Q15.4375 72.6562 20.3438 73.4375
Q25.25 74.2188 29.5938 74.2188
Q40.8281 74.2188 47.3594 69.1094
Q53.9062 64.0156 53.9062 55.3281
Q53.9062 49.2656 50.4375 45.0938
Q46.9688 40.9219 40.5781 39.3125" id="BitstreamVeraSans-Roman-33"/>
      </defs>
      <g style="fill:#262626;" transform="translate(168.808318015 331.8484375)scale(0.1 -0.1)">
       <use xlink:href="#BitstreamVeraSans-Roman-30"/>
       <use x="63.623046875" xlink:href="#BitstreamVeraSans-Roman-2e"/>
       <use x="95.41015625" xlink:href="#BitstreamVeraSans-Roman-33"/>
      </g>
     </g>
    </g>
    <g id="xtick_3">
     <g id="line2d_7">
      <path clip-path="url(#p796c768e71)" d="
M217.059 317.25
L217.059 108" style="fill:none;stroke:#ffffff;stroke-linecap:round;"/>
     </g>
     <g id="line2d_8">
      <g>
       <use style="fill:#262626;stroke:#262626;" x="217.058823529" xlink:href="#m219da94a98" y="317.25"/>
      </g>
     </g>
     <g id="line2d_9">
      <g>
       <use style="fill:#262626;stroke:#262626;" x="217.058823529" xlink:href="#m219da94a98" y="108.0"/>
      </g>
     </g>
     <g id="text_3">
      <!-- 0.4 -->
      <defs>
       <path d="
M37.7969 64.3125
L12.8906 25.3906
L37.7969 25.3906
z

M35.2031 72.9062
L47.6094 72.9062
L47.6094 25.3906
L58.0156 25.3906
L58.0156 17.1875
L47.6094 17.1875
L47.6094 0
L37.7969 0
L37.7969 17.1875
L4.89062 17.1875
L4.89062 26.7031
z
" id="BitstreamVeraSans-Roman-34"/>
      </defs>
      <g style="fill:#262626;" transform="translate(209.717417279 331.8484375)scale(0.1 -0.1)">
       <use xlink:href="#BitstreamVeraSans-Roman-30"/>
       <use x="63.623046875" xlink:href="#BitstreamVeraSans-Roman-2e"/>
       <use x="95.41015625" xlink:href="#BitstreamVeraSans-Roman-34"/>
      </g>
     </g>
    </g>
    <g id="xtick_4">
     <g id="line2d_10">
      <path clip-path="url(#p796c768e71)" d="
M258.088 317.25
L258.088 108" style="fill:none;stroke:#ffffff;stroke-linecap:round;"/>
     </g>
     <g id="line2d_11">
      <g>
       <use style="fill:#262626;stroke:#262626;" x="258.088235294" xlink:href="#m219da94a98" y="317.25"/>
      </g>
     </g>
     <g id="line2d_12">
      <g>
       <use style="fill:#262626;stroke:#262626;" x="258.088235294" xlink:href="#m219da94a98" y="108.0"/>
      </g>
     </g>
     <g id="text_4">
      <!-- 0.5 -->
      <defs>
       <path d="
M10.7969 72.9062
L49.5156 72.9062
L49.5156 64.5938
L19.8281 64.5938
L19.8281 46.7344
Q21.9688 47.4688 24.1094 47.8281
Q26.2656 48.1875 28.4219 48.1875
Q40.625 48.1875 47.75 41.5
Q54.8906 34.8125 54.8906 23.3906
Q54.8906 11.625 47.5625 5.09375
Q40.2344 -1.42188 26.9062 -1.42188
Q22.3125 -1.42188 17.5469 -0.640625
Q12.7969 0.140625 7.71875 1.70312
L7.71875 11.625
Q12.1094 9.23438 16.7969 8.0625
Q21.4844 6.89062 26.7031 6.89062
Q35.1562 6.89062 40.0781 11.3281
Q45.0156 15.7656 45.0156 23.3906
Q45.0156 31 40.0781 35.4375
Q35.1562 39.8906 26.7031 39.8906
Q22.75 39.8906 18.8125 39.0156
Q14.8906 38.1406 10.7969 36.2812
z
" id="BitstreamVeraSans-Roman-35"/>
      </defs>
      <g style="fill:#262626;" transform="translate(250.903079044 331.8484375)scale(0.1 -0.1)">
       <use xlink:href="#BitstreamVeraSans-Roman-30"/>
       <use x="63.623046875" xlink:href="#BitstreamVeraSans-Roman-2e"/>
       <use x="95.41015625" xlink:href="#BitstreamVeraSans-Roman-35"/>
      </g>
     </g>
    </g>
    <g id="xtick_5">
     <g id="line2d_13">
      <path clip-path="url(#p796c768e71)" d="
M299.118 317.25
L299.118 108" style="fill:none;stroke:#ffffff;stroke-linecap:round;"/>
     </g>
     <g id="line2d_14">
      <g>
       <use style="fill:#262626;stroke:#262626;" x="299.117647059" xlink:href="#m219da94a98" y="317.25"/>
      </g>
     </g>
     <g id="line2d_15">
      <g>
       <use style="fill:#262626;stroke:#262626;" x="299.117647059" xlink:href="#m219da94a98" y="108.0"/>
      </g>
     </g>
     <g id="text_5">
      <!-- 0.6 -->
      <defs>
       <path d="
M33.0156 40.375
Q26.375 40.375 22.4844 35.8281
Q18.6094 31.2969 18.6094 23.3906
Q18.6094 15.5312 22.4844 10.9531
Q26.375 6.39062 33.0156 6.39062
Q39.6562 6.39062 43.5312 10.9531
Q47.4062 15.5312 47.4062 23.3906
Q47.4062 31.2969 43.5312 35.8281
Q39.6562 40.375 33.0156 40.375
M52.5938 71.2969
L52.5938 62.3125
Q48.875 64.0625 45.0938 64.9844
Q41.3125 65.9219 37.5938 65.9219
Q27.8281 65.9219 22.6719 59.3281
Q17.5312 52.7344 16.7969 39.4062
Q19.6719 43.6562 24.0156 45.9219
Q28.375 48.1875 33.5938 48.1875
Q44.5781 48.1875 50.9531 41.5156
Q57.3281 34.8594 57.3281 23.3906
Q57.3281 12.1562 50.6875 5.35938
Q44.0469 -1.42188 33.0156 -1.42188
Q20.3594 -1.42188 13.6719 8.26562
Q6.98438 17.9688 6.98438 36.375
Q6.98438 53.6562 15.1875 63.9375
Q23.3906 74.2188 37.2031 74.2188
Q40.9219 74.2188 44.7031 73.4844
Q48.4844 72.75 52.5938 71.2969" id="BitstreamVeraSans-Roman-36"/>
      </defs>
      <g style="fill:#262626;" transform="translate(291.810615809 331.8484375)scale(0.1 -0.1)">
       <use xlink:href="#BitstreamVeraSans-Roman-30"/>
       <use x="63.623046875" xlink:href="#BitstreamVeraSans-Roman-2e"/>
       <use x="95.41015625" xlink:href="#BitstreamVeraSans-Roman-36"/>
      </g>
     </g>
    </g>
    <g id="xtick_6">
     <g id="line2d_16">
      <path clip-path="url(#p796c768e71)" d="
M340.147 317.25
L340.147 108" style="fill:none;stroke:#ffffff;stroke-linecap:round;"/>
     </g>
     <g id="line2d_17">
      <g>
       <use style="fill:#262626;stroke:#262626;" x="340.147058824" xlink:href="#m219da94a98" y="317.25"/>
      </g>
     </g>
     <g id="line2d_18">
      <g>
       <use style="fill:#262626;stroke:#262626;" x="340.147058824" xlink:href="#m219da94a98" y="108.0"/>
      </g>
     </g>
     <g id="text_6">
      <!-- 0.7 -->
      <defs>
       <path d="
M8.20312 72.9062
L55.0781 72.9062
L55.0781 68.7031
L28.6094 0
L18.3125 0
L43.2188 64.5938
L8.20312 64.5938
z
" id="BitstreamVeraSans-Roman-37"/>
      </defs>
      <g style="fill:#262626;" transform="translate(332.952527574 331.8484375)scale(0.1 -0.1)">
       <use xlink:href="#BitstreamVeraSans-Roman-30"/>
       <use x="63.623046875" xlink:href="#BitstreamVeraSans-Roman-2e"/>
       <use x="95.41015625" xlink:href="#BitstreamVeraSans-Roman-37"/>
      </g>
     </g>
    </g>
    <g id="xtick_7">
     <g id="line2d_19">
      <path clip-path="url(#p796c768e71)" d="
M381.176 317.25
L381.176 108" style="fill:none;stroke:#ffffff;stroke-linecap:round;"/>
     </g>
     <g id="line2d_20">
      <g>
       <use style="fill:#262626;stroke:#262626;" x="381.176470588" xlink:href="#m219da94a98" y="317.25"/>
      </g>
     </g>
     <g id="line2d_21">
      <g>
       <use style="fill:#262626;stroke:#262626;" x="381.176470588" xlink:href="#m219da94a98" y="108.0"/>
      </g>
     </g>
     <g id="text_7">
      <!-- 0.8 -->
      <defs>
       <path d="
M31.7812 34.625
Q24.75 34.625 20.7188 30.8594
Q16.7031 27.0938 16.7031 20.5156
Q16.7031 13.9219 20.7188 10.1562
Q24.75 6.39062 31.7812 6.39062
Q38.8125 6.39062 42.8594 10.1719
Q46.9219 13.9688 46.9219 20.5156
Q46.9219 27.0938 42.8906 30.8594
Q38.875 34.625 31.7812 34.625
M21.9219 38.8125
Q15.5781 40.375 12.0312 44.7188
Q8.5 49.0781 8.5 55.3281
Q8.5 64.0625 14.7188 69.1406
Q20.9531 74.2188 31.7812 74.2188
Q42.6719 74.2188 48.875 69.1406
Q55.0781 64.0625 55.0781 55.3281
Q55.0781 49.0781 51.5312 44.7188
Q48 40.375 41.7031 38.8125
Q48.8281 37.1562 52.7969 32.3125
Q56.7812 27.4844 56.7812 20.5156
Q56.7812 9.90625 50.3125 4.23438
Q43.8438 -1.42188 31.7812 -1.42188
Q19.7344 -1.42188 13.25 4.23438
Q6.78125 9.90625 6.78125 20.5156
Q6.78125 27.4844 10.7812 32.3125
Q14.7969 37.1562 21.9219 38.8125
M18.3125 54.3906
Q18.3125 48.7344 21.8438 45.5625
Q25.3906 42.3906 31.7812 42.3906
Q38.1406 42.3906 41.7188 45.5625
Q45.3125 48.7344 45.3125 54.3906
Q45.3125 60.0625 41.7188 63.2344
Q38.1406 66.4062 31.7812 66.4062
Q25.3906 66.4062 21.8438 63.2344
Q18.3125 60.0625 18.3125 54.3906" id="BitstreamVeraSans-Roman-38"/>
      </defs>
      <g style="fill:#262626;" transform="translate(373.896783088 331.8484375)scale(0.1 -0.1)">
       <use xlink:href="#BitstreamVeraSans-Roman-30"/>
       <use x="63.623046875" xlink:href="#BitstreamVeraSans-Roman-2e"/>
       <use x="95.41015625" xlink:href="#BitstreamVeraSans-Roman-38"/>
      </g>
     </g>
    </g>
    <g id="text_8">
     <!-- Rebound % -->
     <defs>
      <path id="BitstreamVeraSans-Roman-20"/>
      <path d="
M72.7031 32.0781
Q68.4531 32.0781 66.0312 28.4688
Q63.625 24.8594 63.625 18.4062
Q63.625 12.0625 66.0312 8.42188
Q68.4531 4.78125 72.7031 4.78125
Q76.8594 4.78125 79.2656 8.42188
Q81.6875 12.0625 81.6875 18.4062
Q81.6875 24.8125 79.2656 28.4375
Q76.8594 32.0781 72.7031 32.0781
M72.7031 38.2812
Q80.4219 38.2812 84.9531 32.9062
Q89.5 27.5469 89.5 18.4062
Q89.5 9.28125 84.9375 3.92188
Q80.375 -1.42188 72.7031 -1.42188
Q64.8906 -1.42188 60.3438 3.92188
Q55.8125 9.28125 55.8125 18.4062
Q55.8125 27.5938 60.375 32.9375
Q64.9375 38.2812 72.7031 38.2812
M22.3125 68.0156
Q18.1094 68.0156 15.6875 64.375
Q13.2812 60.75 13.2812 54.3906
Q13.2812 47.9531 15.6719 44.3281
Q18.0625 40.7188 22.3125 40.7188
Q26.5625 40.7188 28.9688 44.3281
Q31.3906 47.9531 31.3906 54.3906
Q31.3906 60.6875 28.9531 64.3438
Q26.5156 68.0156 22.3125 68.0156
M66.4062 74.2188
L74.2188 74.2188
L28.6094 -1.42188
L20.7969 -1.42188
z

M22.3125 74.2188
Q30.0312 74.2188 34.6094 68.875
Q39.2031 63.5312 39.2031 54.3906
Q39.2031 45.1719 34.6406 39.8438
Q30.0781 34.5156 22.3125 34.5156
Q14.5469 34.5156 10.0312 39.8594
Q5.51562 45.2188 5.51562 54.3906
Q5.51562 63.4844 10.0469 68.8438
Q14.5938 74.2188 22.3125 74.2188" id="BitstreamVeraSans-Roman-25"/>
      <path d="
M54.8906 33.0156
L54.8906 0
L45.9062 0
L45.9062 32.7188
Q45.9062 40.4844 42.875 44.3281
Q39.8438 48.1875 33.7969 48.1875
Q26.5156 48.1875 22.3125 43.5469
Q18.1094 38.9219 18.1094 30.9062
L18.1094 0
L9.07812 0
L9.07812 54.6875
L18.1094 54.6875
L18.1094 46.1875
Q21.3438 51.125 25.7031 53.5625
Q30.0781 56 35.7969 56
Q45.2188 56 50.0469 50.1719
Q54.8906 44.3438 54.8906 33.0156" id="BitstreamVeraSans-Roman-6e"/>
      <path d="
M30.6094 48.3906
Q23.3906 48.3906 19.1875 42.75
Q14.9844 37.1094 14.9844 27.2969
Q14.9844 17.4844 19.1562 11.8438
Q23.3438 6.20312 30.6094 6.20312
Q37.7969 6.20312 41.9844 11.8594
Q46.1875 17.5312 46.1875 27.2969
Q46.1875 37.0156 41.9844 42.7031
Q37.7969 48.3906 30.6094 48.3906
M30.6094 56
Q42.3281 56 49.0156 48.375
Q55.7188 40.7656 55.7188 27.2969
Q55.7188 13.875 49.0156 6.21875
Q42.3281 -1.42188 30.6094 -1.42188
Q18.8438 -1.42188 12.1719 6.21875
Q5.51562 13.875 5.51562 27.2969
Q5.51562 40.7656 12.1719 48.375
Q18.8438 56 30.6094 56" id="BitstreamVeraSans-Roman-6f"/>
      <path d="
M44.3906 34.1875
Q47.5625 33.1094 50.5625 29.5938
Q53.5625 26.0781 56.5938 19.9219
L66.6094 0
L56 0
L46.6875 18.7031
Q43.0625 26.0312 39.6719 28.4219
Q36.2812 30.8125 30.4219 30.8125
L19.6719 30.8125
L19.6719 0
L9.8125 0
L9.8125 72.9062
L32.0781 72.9062
Q44.5781 72.9062 50.7344 67.6719
Q56.8906 62.4531 56.8906 51.9062
Q56.8906 45.0156 53.6875 40.4688
Q50.4844 35.9375 44.3906 34.1875
M19.6719 64.7969
L19.6719 38.9219
L32.0781 38.9219
Q39.2031 38.9219 42.8438 42.2188
Q46.4844 45.5156 46.4844 51.9062
Q46.4844 58.2969 42.8438 61.5469
Q39.2031 64.7969 32.0781 64.7969
z
" id="BitstreamVeraSans-Roman-52"/>
      <path d="
M56.2031 29.5938
L56.2031 25.2031
L14.8906 25.2031
Q15.4844 15.9219 20.4844 11.0625
Q25.4844 6.20312 34.4219 6.20312
Q39.5938 6.20312 44.4531 7.46875
Q49.3125 8.73438 54.1094 11.2812
L54.1094 2.78125
Q49.2656 0.734375 44.1875 -0.34375
Q39.1094 -1.42188 33.8906 -1.42188
Q20.7969 -1.42188 13.1562 6.1875
Q5.51562 13.8125 5.51562 26.8125
Q5.51562 40.2344 12.7656 48.1094
Q20.0156 56 32.3281 56
Q43.3594 56 49.7812 48.8906
Q56.2031 41.7969 56.2031 29.5938
M47.2188 32.2344
Q47.125 39.5938 43.0938 43.9844
Q39.0625 48.3906 32.4219 48.3906
Q24.9062 48.3906 20.3906 44.1406
Q15.875 39.8906 15.1875 32.1719
z
" id="BitstreamVeraSans-Roman-65"/>
      <path d="
M45.4062 46.3906
L45.4062 75.9844
L54.3906 75.9844
L54.3906 0
L45.4062 0
L45.4062 8.20312
Q42.5781 3.32812 38.25 0.953125
Q33.9375 -1.42188 27.875 -1.42188
Q17.9688 -1.42188 11.7344 6.48438
Q5.51562 14.4062 5.51562 27.2969
Q5.51562 40.1875 11.7344 48.0938
Q17.9688 56 27.875 56
Q33.9375 56 38.25 53.625
Q42.5781 51.2656 45.4062 46.3906
M14.7969 27.2969
Q14.7969 17.3906 18.875 11.75
Q22.9531 6.10938 30.0781 6.10938
Q37.2031 6.10938 41.2969 11.75
Q45.4062 17.3906 45.4062 27.2969
Q45.4062 37.2031 41.2969 42.8438
Q37.2031 48.4844 30.0781 48.4844
Q22.9531 48.4844 18.875 42.8438
Q14.7969 37.2031 14.7969 27.2969" id="BitstreamVeraSans-Roman-64"/>
      <path d="
M8.5 21.5781
L8.5 54.6875
L17.4844 54.6875
L17.4844 21.9219
Q17.4844 14.1562 20.5 10.2656
Q23.5312 6.39062 29.5938 6.39062
Q36.8594 6.39062 41.0781 11.0312
Q45.3125 15.6719 45.3125 23.6875
L45.3125 54.6875
L54.2969 54.6875
L54.2969 0
L45.3125 0
L45.3125 8.40625
Q42.0469 3.42188 37.7188 1
Q33.4062 -1.42188 27.6875 -1.42188
Q18.2656 -1.42188 13.375 4.4375
Q8.5 10.2969 8.5 21.5781" id="BitstreamVeraSans-Roman-75"/>
      <path d="
M48.6875 27.2969
Q48.6875 37.2031 44.6094 42.8438
Q40.5312 48.4844 33.4062 48.4844
Q26.2656 48.4844 22.1875 42.8438
Q18.1094 37.2031 18.1094 27.2969
Q18.1094 17.3906 22.1875 11.75
Q26.2656 6.10938 33.4062 6.10938
Q40.5312 6.10938 44.6094 11.75
Q48.6875 17.3906 48.6875 27.2969
M18.1094 46.3906
Q20.9531 51.2656 25.2656 53.625
Q29.5938 56 35.5938 56
Q45.5625 56 51.7812 48.0938
Q58.0156 40.1875 58.0156 27.2969
Q58.0156 14.4062 51.7812 6.48438
Q45.5625 -1.42188 35.5938 -1.42188
Q29.5938 -1.42188 25.2656 0.953125
Q20.9531 3.32812 18.1094 8.20312
L18.1094 0
L9.07812 0
L9.07812 75.9844
L18.1094 75.9844
z
" id="BitstreamVeraSans-Roman-62"/>
     </defs>
     <g style="fill:#262626;" transform="translate(227.139563419 347.28640625)scale(0.11 -0.11)">
      <use xlink:href="#BitstreamVeraSans-Roman-52"/>
      <use x="64.982421875" xlink:href="#BitstreamVeraSans-Roman-65"/>
      <use x="126.505859375" xlink:href="#BitstreamVeraSans-Roman-62"/>
      <use x="189.982421875" xlink:href="#BitstreamVeraSans-Roman-6f"/>
      <use x="251.1640625" xlink:href="#BitstreamVeraSans-Roman-75"/>
      <use x="314.54296875" xlink:href="#BitstreamVeraSans-Roman-6e"/>
      <use x="377.921875" xlink:href="#BitstreamVeraSans-Roman-64"/>
      <use x="441.3984375" xlink:href="#BitstreamVeraSans-Roman-20"/>
      <use x="473.185546875" xlink:href="#BitstreamVeraSans-Roman-25"/>
     </g>
    </g>
   </g>
   <g id="matplotlib.axis_2">
    <g id="ytick_1">
     <g id="line2d_22">
      <path clip-path="url(#p796c768e71)" d="
M135 317.25
L381.176 317.25" style="fill:none;stroke:#ffffff;stroke-linecap:round;"/>
     </g>
     <g id="line2d_23">
      <g>
       <use style="fill:#262626;stroke:#262626;" x="135.0" xlink:href="#m219da94a98" y="317.25"/>
      </g>
     </g>
     <g id="line2d_24">
      <g>
       <use style="fill:#262626;stroke:#262626;" x="381.176470588" xlink:href="#m219da94a98" y="317.25"/>
      </g>
     </g>
     <g id="text_9">
      <!-- -15 -->
      <defs>
       <path d="
M12.4062 8.29688
L28.5156 8.29688
L28.5156 63.9219
L10.9844 60.4062
L10.9844 69.3906
L28.4219 72.9062
L38.2812 72.9062
L38.2812 8.29688
L54.3906 8.29688
L54.3906 0
L12.4062 0
z
" id="BitstreamVeraSans-Roman-31"/>
       <path d="
M4.89062 31.3906
L31.2031 31.3906
L31.2031 23.3906
L4.89062 23.3906
z
" id="BitstreamVeraSans-Roman-2d"/>
      </defs>
      <g style="fill:#262626;" transform="translate(113.0296875 320.009375)scale(0.1 -0.1)">
       <use xlink:href="#BitstreamVeraSans-Roman-2d"/>
       <use x="36.083984375" xlink:href="#BitstreamVeraSans-Roman-31"/>
       <use x="99.70703125" xlink:href="#BitstreamVeraSans-Roman-35"/>
      </g>
     </g>
    </g>
    <g id="ytick_2">
     <g id="line2d_25">
      <path clip-path="url(#p796c768e71)" d="
M135 282.375
L381.176 282.375" style="fill:none;stroke:#ffffff;stroke-linecap:round;"/>
     </g>
     <g id="line2d_26">
      <g>
       <use style="fill:#262626;stroke:#262626;" x="135.0" xlink:href="#m219da94a98" y="282.375"/>
      </g>
     </g>
     <g id="line2d_27">
      <g>
       <use style="fill:#262626;stroke:#262626;" x="381.176470588" xlink:href="#m219da94a98" y="282.375"/>
      </g>
     </g>
     <g id="text_10">
      <!-- -10 -->
      <g style="fill:#262626;" transform="translate(112.8203125 285.134375)scale(0.1 -0.1)">
       <use xlink:href="#BitstreamVeraSans-Roman-2d"/>
       <use x="36.083984375" xlink:href="#BitstreamVeraSans-Roman-31"/>
       <use x="99.70703125" xlink:href="#BitstreamVeraSans-Roman-30"/>
      </g>
     </g>
    </g>
    <g id="ytick_3">
     <g id="line2d_28">
      <path clip-path="url(#p796c768e71)" d="
M135 247.5
L381.176 247.5" style="fill:none;stroke:#ffffff;stroke-linecap:round;"/>
     </g>
     <g id="line2d_29">
      <g>
       <use style="fill:#262626;stroke:#262626;" x="135.0" xlink:href="#m219da94a98" y="247.5"/>
      </g>
     </g>
     <g id="line2d_30">
      <g>
       <use style="fill:#262626;stroke:#262626;" x="381.176470588" xlink:href="#m219da94a98" y="247.5"/>
      </g>
     </g>
     <g id="text_11">
      <!-- -5 -->
      <g style="fill:#262626;" transform="translate(119.3921875 250.259375)scale(0.1 -0.1)">
       <use xlink:href="#BitstreamVeraSans-Roman-2d"/>
       <use x="36.083984375" xlink:href="#BitstreamVeraSans-Roman-35"/>
      </g>
     </g>
    </g>
    <g id="ytick_4">
     <g id="line2d_31">
      <path clip-path="url(#p796c768e71)" d="
M135 212.625
L381.176 212.625" style="fill:none;stroke:#ffffff;stroke-linecap:round;"/>
     </g>
     <g id="line2d_32">
      <g>
       <use style="fill:#262626;stroke:#262626;" x="135.0" xlink:href="#m219da94a98" y="212.625"/>
      </g>
     </g>
     <g id="line2d_33">
      <g>
       <use style="fill:#262626;stroke:#262626;" x="381.176470588" xlink:href="#m219da94a98" y="212.625"/>
      </g>
     </g>
     <g id="text_12">
      <!-- 0 -->
      <g style="fill:#262626;" transform="translate(122.9609375 215.384375)scale(0.1 -0.1)">
       <use xlink:href="#BitstreamVeraSans-Roman-30"/>
      </g>
     </g>
    </g>
    <g id="ytick_5">
     <g id="line2d_34">
      <path clip-path="url(#p796c768e71)" d="
M135 177.75
L381.176 177.75" style="fill:none;stroke:#ffffff;stroke-linecap:round;"/>
     </g>
     <g id="line2d_35">
      <g>
       <use style="fill:#262626;stroke:#262626;" x="135.0" xlink:href="#m219da94a98" y="177.75"/>
      </g>
     </g>
     <g id="line2d_36">
      <g>
       <use style="fill:#262626;stroke:#262626;" x="381.176470588" xlink:href="#m219da94a98" y="177.75"/>
      </g>
     </g>
     <g id="text_13">
      <!-- 5 -->
      <g style="fill:#262626;" transform="translate(123.2828125 180.509375)scale(0.1 -0.1)">
       <use xlink:href="#BitstreamVeraSans-Roman-35"/>
      </g>
     </g>
    </g>
    <g id="ytick_6">
     <g id="line2d_37">
      <path clip-path="url(#p796c768e71)" d="
M135 142.875
L381.176 142.875" style="fill:none;stroke:#ffffff;stroke-linecap:round;"/>
     </g>
     <g id="line2d_38">
      <g>
       <use style="fill:#262626;stroke:#262626;" x="135.0" xlink:href="#m219da94a98" y="142.875"/>
      </g>
     </g>
     <g id="line2d_39">
      <g>
       <use style="fill:#262626;stroke:#262626;" x="381.176470588" xlink:href="#m219da94a98" y="142.875"/>
      </g>
     </g>
     <g id="text_14">
      <!-- 10 -->
      <g style="fill:#262626;" transform="translate(117.0375 145.634375)scale(0.1 -0.1)">
       <use xlink:href="#BitstreamVeraSans-Roman-31"/>
       <use x="63.623046875" xlink:href="#BitstreamVeraSans-Roman-30"/>
      </g>
     </g>
    </g>
    <g id="ytick_7">
     <g id="line2d_40">
      <path clip-path="url(#p796c768e71)" d="
M135 108
L381.176 108" style="fill:none;stroke:#ffffff;stroke-linecap:round;"/>
     </g>
     <g id="line2d_41">
      <g>
       <use style="fill:#262626;stroke:#262626;" x="135.0" xlink:href="#m219da94a98" y="108.0"/>
      </g>
     </g>
     <g id="line2d_42">
      <g>
       <use style="fill:#262626;stroke:#262626;" x="381.176470588" xlink:href="#m219da94a98" y="108.0"/>
      </g>
     </g>
     <g id="text_15">
      <!-- 15 -->
      <g style="fill:#262626;" transform="translate(117.246875 110.759375)scale(0.1 -0.1)">
       <use xlink:href="#BitstreamVeraSans-Roman-31"/>
       <use x="63.623046875" xlink:href="#BitstreamVeraSans-Roman-35"/>
      </g>
     </g>
    </g>
   </g>
   <g id="PathCollection_1">
    <defs>
     <path d="
M0 2.23607
C0.593012 2.23607 1.16182 2.00046 1.58114 1.58114
C2.00046 1.16182 2.23607 0.593012 2.23607 0
C2.23607 -0.593012 2.00046 -1.16182 1.58114 -1.58114
C1.16182 -2.00046 0.593012 -2.23607 0 -2.23607
C-0.593012 -2.23607 -1.16182 -2.00046 -1.58114 -1.58114
C-2.00046 -1.16182 -2.23607 -0.593012 -2.23607 0
C-2.23607 0.593012 -2.00046 1.16182 -1.58114 1.58114
C-1.16182 2.00046 -0.593012 2.23607 0 2.23607
z
" id="m501da90a0f"/>
    </defs>
    <g clip-path="url(#p796c768e71)">
     <use style="fill:#4c72b0;fill-opacity:0.8;" x="281.064705882" xlink:href="#m501da90a0f" y="142.875"/>
     <use style="fill:#4c72b0;fill-opacity:0.8;" x="320.452941176" xlink:href="#m501da90a0f" y="191.7"/>
     <use style="fill:#4c72b0;fill-opacity:0.8;" x="247.420588235" xlink:href="#m501da90a0f" y="212.625"/>
     <use style="fill:#4c72b0;fill-opacity:0.8;" x="294.194117647" xlink:href="#m501da90a0f" y="226.575"/>
     <use style="fill:#4c72b0;fill-opacity:0.8;" x="273.679411765" xlink:href="#m501da90a0f" y="156.825"/>
     <use style="fill:#4c72b0;fill-opacity:0.8;" x="183.414705882" xlink:href="#m501da90a0f" y="254.475"/>
     <use style="fill:#4c72b0;fill-opacity:0.8;" x="247.420588235" xlink:href="#m501da90a0f" y="205.65"/>
     <use style="fill:#4c72b0;fill-opacity:0.8;" x="217.058823529" xlink:href="#m501da90a0f" y="247.5"/>
     <use style="fill:#4c72b0;fill-opacity:0.8;" x="220.751470588" xlink:href="#m501da90a0f" y="289.35"/>
     <use style="fill:#4c72b0;fill-opacity:0.8;" x="210.904411765" xlink:href="#m501da90a0f" y="191.7"/>
     <use style="fill:#4c72b0;fill-opacity:0.8;" x="147.719117647" xlink:href="#m501da90a0f" y="317.25"/>
     <use style="fill:#4c72b0;fill-opacity:0.8;" x="273.679411765" xlink:href="#m501da90a0f" y="184.725"/>
     <use style="fill:#4c72b0;fill-opacity:0.8;" x="276.551470588" xlink:href="#m501da90a0f" y="212.625"/>
     <use style="fill:#4c72b0;fill-opacity:0.8;" x="267.935294118" xlink:href="#m501da90a0f" y="226.575"/>
     <use style="fill:#4c72b0;fill-opacity:0.8;" x="299.117647059" xlink:href="#m501da90a0f" y="163.8"/>
     <use style="fill:#4c72b0;fill-opacity:0.8;" x="313.888235294" xlink:href="#m501da90a0f" y="156.825"/>
     <use style="fill:#4c72b0;fill-opacity:0.8;" x="202.288235294" xlink:href="#m501da90a0f" y="282.375"/>
     <use style="fill:#4c72b0;fill-opacity:0.8;" x="224.033823529" xlink:href="#m501da90a0f" y="303.3"/>
     <use style="fill:#4c72b0;fill-opacity:0.8;" x="189.569117647" xlink:href="#m501da90a0f" y="240.525"/>
     <use style="fill:#4c72b0;fill-opacity:0.8;" x="284.757352941" xlink:href="#m501da90a0f" y="142.875"/>
     <use style="fill:#4c72b0;fill-opacity:0.8;" x="287.219117647" xlink:href="#m501da90a0f" y="226.575"/>
     <use style="fill:#4c72b0;fill-opacity:0.8;" x="275.320588235" xlink:href="#m501da90a0f" y="205.65"/>
     <use style="fill:#4c72b0;fill-opacity:0.8;" x="244.548529412" xlink:href="#m501da90a0f" y="184.725"/>
     <use style="fill:#4c72b0;fill-opacity:0.8;" x="265.883823529" xlink:href="#m501da90a0f" y="135.9"/>
     <use style="fill:#4c72b0;fill-opacity:0.8;" x="333.582352941" xlink:href="#m501da90a0f" y="219.6"/>
     <use style="fill:#4c72b0;fill-opacity:0.8;" x="183.414705882" xlink:href="#m501da90a0f" y="254.475"/>
     <use style="fill:#4c72b0;fill-opacity:0.8;" x="294.194117647" xlink:href="#m501da90a0f" y="296.325"/>
     <use style="fill:#4c72b0;fill-opacity:0.8;" x="258.088235294" xlink:href="#m501da90a0f" y="135.9"/>
     <use style="fill:#4c72b0;fill-opacity:0.8;" x="282.705882353" xlink:href="#m501da90a0f" y="128.925"/>
     <use style="fill:#4c72b0;fill-opacity:0.8;" x="267.114705882" xlink:href="#m501da90a0f" y="247.5"/>
     <use style="fill:#4c72b0;fill-opacity:0.8;" x="203.929411765" xlink:href="#m501da90a0f" y="219.6"/>
     <use style="fill:#4c72b0;fill-opacity:0.8;" x="246.189705882" xlink:href="#m501da90a0f" y="282.375"/>
    </g>
   </g>
   <g id="PolyCollection_1">
    <defs>
     <path d="
M135 -832.268
L135 -754.879
L137.487 -757.133
L139.973 -759.421
L142.46 -761.971
L144.947 -764.254
L147.433 -766.495
L149.92 -768.757
L152.406 -771.136
L154.893 -773.282
L157.38 -775.441
L159.866 -777.678
L162.353 -779.636
L164.84 -782.01
L167.326 -784.015
L169.813 -785.924
L172.299 -788.192
L174.786 -790.868
L177.273 -793.123
L179.759 -795.382
L182.246 -797.499
L184.733 -799.571
L187.219 -801.533
L189.706 -803.509
L192.193 -805.733
L194.679 -807.757
L197.166 -809.618
L199.652 -811.715
L202.139 -813.578
L204.626 -815.44
L207.112 -817.723
L209.599 -819.409
L212.086 -821.071
L214.572 -822.741
L217.059 -824.532
L219.545 -826.393
L222.032 -828.432
L224.519 -830.411
L227.005 -832.358
L229.492 -834.291
L231.979 -835.785
L234.465 -837.157
L236.952 -838.811
L239.439 -840.371
L241.925 -842.078
L244.412 -844.045
L246.898 -845.829
L249.385 -847.31
L251.872 -848.863
L254.358 -850.54
L256.845 -851.792
L259.332 -853.243
L261.818 -854.38
L264.305 -856.034
L266.791 -857.415
L269.278 -858.829
L271.765 -859.895
L274.251 -861.08
L276.738 -862.268
L279.225 -863.496
L281.711 -864.835
L284.198 -866.395
L286.684 -867.511
L289.171 -868.496
L291.658 -869.391
L294.144 -870.346
L296.631 -871.186
L299.118 -872.161
L301.604 -873.048
L304.091 -873.928
L306.578 -874.766
L309.064 -875.476
L311.551 -876.347
L314.037 -877.284
L316.524 -878.181
L319.011 -879.286
L321.497 -880.348
L323.984 -881.09
L326.471 -881.832
L328.957 -882.577
L331.444 -883.378
L333.93 -884.199
L336.417 -885.07
L338.904 -885.945
L341.39 -886.814
L343.877 -887.685
L346.364 -888.556
L348.85 -889.163
L351.337 -889.86
L353.824 -890.698
L356.31 -891.537
L358.797 -892.165
L361.283 -893.002
L363.77 -893.774
L366.257 -894.434
L368.743 -895.252
L371.23 -896.315
L373.717 -896.717
L376.203 -897.082
L378.69 -898.001
L381.176 -898.925
L381.176 -992.07
L381.176 -992.07
L378.69 -989.817
L376.203 -987.564
L373.717 -985.185
L371.23 -982.694
L368.743 -980.292
L366.257 -978.144
L363.77 -975.957
L361.283 -973.539
L358.797 -971.193
L356.31 -969.03
L353.824 -966.729
L351.337 -964.343
L348.85 -961.957
L346.364 -959.775
L343.877 -957.71
L341.39 -955.64
L338.904 -953.406
L336.417 -951.362
L333.93 -949.317
L331.444 -947.125
L328.957 -944.88
L326.471 -942.634
L323.984 -940.387
L321.497 -938.21
L319.011 -935.936
L316.524 -933.658
L314.037 -931.411
L311.551 -929.222
L309.064 -927.181
L306.578 -925.135
L304.091 -922.833
L301.604 -920.467
L299.118 -918.162
L296.631 -916.201
L294.144 -913.839
L291.658 -911.966
L289.171 -909.661
L286.684 -907.65
L284.198 -905.636
L281.711 -903.538
L279.225 -901.335
L276.738 -899.181
L274.251 -896.997
L271.765 -894.81
L269.278 -892.703
L266.791 -891.081
L264.305 -889.296
L261.818 -887.523
L259.332 -885.436
L256.845 -883.495
L254.358 -881.949
L251.872 -879.93
L249.385 -878.129
L246.898 -876.243
L244.412 -874.33
L241.925 -872.854
L239.439 -870.977
L236.952 -869.807
L234.465 -868.784
L231.979 -867.475
L229.492 -866.353
L227.005 -864.861
L224.519 -863.74
L222.032 -862.809
L219.545 -861.468
L217.059 -860.442
L214.572 -859.939
L212.086 -858.824
L209.599 -857.637
L207.112 -856.44
L204.626 -855.247
L202.139 -854.127
L199.652 -852.975
L197.166 -851.948
L194.679 -851.304
L192.193 -850.669
L189.706 -849.877
L187.219 -849.046
L184.733 -847.984
L182.246 -847.263
L179.759 -846.283
L177.273 -845.278
L174.786 -844.318
L172.299 -843.354
L169.813 -842.427
L167.326 -841.709
L164.84 -840.925
L162.353 -840.226
L159.866 -839.563
L157.38 -838.857
L154.893 -838.146
L152.406 -837.435
L149.92 -836.724
L147.433 -836.013
L144.947 -835.302
L142.46 -834.592
L139.973 -833.881
L137.487 -833.164
L135 -832.268
z
" id="m16dda6693a" style="stroke:#4c72b0;stroke-opacity:0.15;stroke-width:0.3;"/>
    </defs>
    <g clip-path="url(#p796c768e71)">
     <use style="fill:#4c72b0;fill-opacity:0.15;stroke:#4c72b0;stroke-opacity:0.15;stroke-width:0.3;" x="0.0" xlink:href="#m16dda6693a" y="1080.0"/>
    </g>
   </g>
   <g id="line2d_43">
    <path clip-path="url(#p796c768e71)" d="
M135 291.334
L137.487 289.74
L139.973 288.145
L142.46 286.551
L144.947 284.957
L147.433 283.363
L149.92 281.769
L152.406 280.174
L154.893 278.58
L157.38 276.986
L159.866 275.392
L162.353 273.798
L164.84 272.203
L167.326 270.609
L169.813 269.015
L172.299 267.421
L174.786 265.827
L177.273 264.232
L179.759 262.638
L182.246 261.044
L184.733 259.45
L187.219 257.856
L189.706 256.262
L192.193 254.667
L194.679 253.073
L197.166 251.479
L199.652 249.885
L202.139 248.291
L204.626 246.696
L207.112 245.102
L209.599 243.508
L212.086 241.914
L214.572 240.32
L217.059 238.725
L219.545 237.131
L222.032 235.537
L224.519 233.943
L227.005 232.349
L229.492 230.754
L231.979 229.16
L234.465 227.566
L236.952 225.972
L239.439 224.378
L241.925 222.783
L244.412 221.189
L246.898 219.595
L249.385 218.001
L251.872 216.407
L254.358 214.812
L256.845 213.218
L259.332 211.624
L261.818 210.03
L264.305 208.436
L266.791 206.841
L269.278 205.247
L271.765 203.653
L274.251 202.059
L276.738 200.465
L279.225 198.87
L281.711 197.276
L284.198 195.682
L286.684 194.088
L289.171 192.494
L291.658 190.9
L294.144 189.305
L296.631 187.711
L299.118 186.117
L301.604 184.523
L304.091 182.929
L306.578 181.334
L309.064 179.74
L311.551 178.146
L314.037 176.552
L316.524 174.958
L319.011 173.363
L321.497 171.769
L323.984 170.175
L326.471 168.581
L328.957 166.987
L331.444 165.392
L333.93 163.798
L336.417 162.204
L338.904 160.61
L341.39 159.016
L343.877 157.421
L346.364 155.827
L348.85 154.233
L351.337 152.639
L353.824 151.045
L356.31 149.45
L358.797 147.856
L361.283 146.262
L363.77 144.668
L366.257 143.074
L368.743 141.479
L371.23 139.885
L373.717 138.291
L376.203 136.697
L378.69 135.103
L381.176 133.508" style="fill:none;stroke:#4c72b0;stroke-linecap:round;stroke-width:2.625;"/>
   </g>
   <g id="patch_3">
    <path d="
M135 108
L381.176 108" style="fill:none;"/>
   </g>
   <g id="patch_4">
    <path d="
M381.176 317.25
L381.176 108" style="fill:none;"/>
   </g>
   <g id="patch_5">
    <path d="
M135 317.25
L381.176 317.25" style="fill:none;"/>
   </g>
   <g id="patch_6">
    <path d="
M135 317.25
L135 108" style="fill:none;"/>
   </g>
  </g>
  <g id="axes_2">
   <g id="patch_7">
    <path d="
M430.412 317.25
L676.588 317.25
L676.588 108
L430.412 108
z
" style="fill:#eaeaf2;"/>
   </g>
   <g id="matplotlib.axis_3">
    <g id="xtick_8">
     <g id="line2d_44">
      <path clip-path="url(#p8f0a1a9076)" d="
M430.412 317.25
L430.412 108" style="fill:none;stroke:#ffffff;stroke-linecap:round;"/>
     </g>
     <g id="line2d_45">
      <g>
       <use style="fill:#262626;stroke:#262626;" x="430.411764706" xlink:href="#m219da94a98" y="317.25"/>
      </g>
     </g>
     <g id="line2d_46">
      <g>
       <use style="fill:#262626;stroke:#262626;" x="430.411764706" xlink:href="#m219da94a98" y="108.0"/>
      </g>
     </g>
     <g id="text_16">
      <!-- 0.0 -->
      <g style="fill:#262626;" transform="translate(423.121920956 331.8484375)scale(0.1 -0.1)">
       <use xlink:href="#BitstreamVeraSans-Roman-30"/>
       <use x="63.623046875" xlink:href="#BitstreamVeraSans-Roman-2e"/>
       <use x="95.41015625" xlink:href="#BitstreamVeraSans-Roman-30"/>
      </g>
     </g>
    </g>
    <g id="xtick_9">
     <g id="line2d_47">
      <path clip-path="url(#p8f0a1a9076)" d="
M461.184 317.25
L461.184 108" style="fill:none;stroke:#ffffff;stroke-linecap:round;"/>
     </g>
     <g id="line2d_48">
      <g>
       <use style="fill:#262626;stroke:#262626;" x="461.183823529" xlink:href="#m219da94a98" y="317.25"/>
      </g>
     </g>
     <g id="line2d_49">
      <g>
       <use style="fill:#262626;stroke:#262626;" x="461.183823529" xlink:href="#m219da94a98" y="108.0"/>
      </g>
     </g>
     <g id="text_17">
      <!-- 0.1 -->
      <g style="fill:#262626;" transform="translate(454.023667279 331.8484375)scale(0.1 -0.1)">
       <use xlink:href="#BitstreamVeraSans-Roman-30"/>
       <use x="63.623046875" xlink:href="#BitstreamVeraSans-Roman-2e"/>
       <use x="95.41015625" xlink:href="#BitstreamVeraSans-Roman-31"/>
      </g>
     </g>
    </g>
    <g id="xtick_10">
     <g id="line2d_50">
      <path clip-path="url(#p8f0a1a9076)" d="
M491.956 317.25
L491.956 108" style="fill:none;stroke:#ffffff;stroke-linecap:round;"/>
     </g>
     <g id="line2d_51">
      <g>
       <use style="fill:#262626;stroke:#262626;" x="491.955882353" xlink:href="#m219da94a98" y="317.25"/>
      </g>
     </g>
     <g id="line2d_52">
      <g>
       <use style="fill:#262626;stroke:#262626;" x="491.955882353" xlink:href="#m219da94a98" y="108.0"/>
      </g>
     </g>
     <g id="text_18">
      <!-- 0.2 -->
      <g style="fill:#262626;" transform="translate(484.834788603 331.8484375)scale(0.1 -0.1)">
       <use xlink:href="#BitstreamVeraSans-Roman-30"/>
       <use x="63.623046875" xlink:href="#BitstreamVeraSans-Roman-2e"/>
       <use x="95.41015625" xlink:href="#BitstreamVeraSans-Roman-32"/>
      </g>
     </g>
    </g>
    <g id="xtick_11">
     <g id="line2d_53">
      <path clip-path="url(#p8f0a1a9076)" d="
M522.728 317.25
L522.728 108" style="fill:none;stroke:#ffffff;stroke-linecap:round;"/>
     </g>
     <g id="line2d_54">
      <g>
       <use style="fill:#262626;stroke:#262626;" x="522.727941176" xlink:href="#m219da94a98" y="317.25"/>
      </g>
     </g>
     <g id="line2d_55">
      <g>
       <use style="fill:#262626;stroke:#262626;" x="522.727941176" xlink:href="#m219da94a98" y="108.0"/>
      </g>
     </g>
     <g id="text_19">
      <!-- 0.3 -->
      <g style="fill:#262626;" transform="translate(515.506847426 331.8484375)scale(0.1 -0.1)">
       <use xlink:href="#BitstreamVeraSans-Roman-30"/>
       <use x="63.623046875" xlink:href="#BitstreamVeraSans-Roman-2e"/>
       <use x="95.41015625" xlink:href="#BitstreamVeraSans-Roman-33"/>
      </g>
     </g>
    </g>
    <g id="xtick_12">
     <g id="line2d_56">
      <path clip-path="url(#p8f0a1a9076)" d="
M553.5 317.25
L553.5 108" style="fill:none;stroke:#ffffff;stroke-linecap:round;"/>
     </g>
     <g id="line2d_57">
      <g>
       <use style="fill:#262626;stroke:#262626;" x="553.5" xlink:href="#m219da94a98" y="317.25"/>
      </g>
     </g>
     <g id="line2d_58">
      <g>
       <use style="fill:#262626;stroke:#262626;" x="553.5" xlink:href="#m219da94a98" y="108.0"/>
      </g>
     </g>
     <g id="text_20">
      <!-- 0.4 -->
      <g style="fill:#262626;" transform="translate(546.15859375 331.8484375)scale(0.1 -0.1)">
       <use xlink:href="#BitstreamVeraSans-Roman-30"/>
       <use x="63.623046875" xlink:href="#BitstreamVeraSans-Roman-2e"/>
       <use x="95.41015625" xlink:href="#BitstreamVeraSans-Roman-34"/>
      </g>
     </g>
    </g>
    <g id="xtick_13">
     <g id="line2d_59">
      <path clip-path="url(#p8f0a1a9076)" d="
M584.272 317.25
L584.272 108" style="fill:none;stroke:#ffffff;stroke-linecap:round;"/>
     </g>
     <g id="line2d_60">
      <g>
       <use style="fill:#262626;stroke:#262626;" x="584.272058824" xlink:href="#m219da94a98" y="317.25"/>
      </g>
     </g>
     <g id="line2d_61">
      <g>
       <use style="fill:#262626;stroke:#262626;" x="584.272058824" xlink:href="#m219da94a98" y="108.0"/>
      </g>
     </g>
     <g id="text_21">
      <!-- 0.5 -->
      <g style="fill:#262626;" transform="translate(577.086902574 331.8484375)scale(0.1 -0.1)">
       <use xlink:href="#BitstreamVeraSans-Roman-30"/>
       <use x="63.623046875" xlink:href="#BitstreamVeraSans-Roman-2e"/>
       <use x="95.41015625" xlink:href="#BitstreamVeraSans-Roman-35"/>
      </g>
     </g>
    </g>
    <g id="xtick_14">
     <g id="line2d_62">
      <path clip-path="url(#p8f0a1a9076)" d="
M615.044 317.25
L615.044 108" style="fill:none;stroke:#ffffff;stroke-linecap:round;"/>
     </g>
     <g id="line2d_63">
      <g>
       <use style="fill:#262626;stroke:#262626;" x="615.044117647" xlink:href="#m219da94a98" y="317.25"/>
      </g>
     </g>
     <g id="line2d_64">
      <g>
       <use style="fill:#262626;stroke:#262626;" x="615.044117647" xlink:href="#m219da94a98" y="108.0"/>
      </g>
     </g>
     <g id="text_22">
      <!-- 0.6 -->
      <g style="fill:#262626;" transform="translate(607.737086397 331.8484375)scale(0.1 -0.1)">
       <use xlink:href="#BitstreamVeraSans-Roman-30"/>
       <use x="63.623046875" xlink:href="#BitstreamVeraSans-Roman-2e"/>
       <use x="95.41015625" xlink:href="#BitstreamVeraSans-Roman-36"/>
      </g>
     </g>
    </g>
    <g id="xtick_15">
     <g id="line2d_65">
      <path clip-path="url(#p8f0a1a9076)" d="
M645.816 317.25
L645.816 108" style="fill:none;stroke:#ffffff;stroke-linecap:round;"/>
     </g>
     <g id="line2d_66">
      <g>
       <use style="fill:#262626;stroke:#262626;" x="645.816176471" xlink:href="#m219da94a98" y="317.25"/>
      </g>
     </g>
     <g id="line2d_67">
      <g>
       <use style="fill:#262626;stroke:#262626;" x="645.816176471" xlink:href="#m219da94a98" y="108.0"/>
      </g>
     </g>
     <g id="text_23">
      <!-- 0.7 -->
      <g style="fill:#262626;" transform="translate(638.621645221 331.8484375)scale(0.1 -0.1)">
       <use xlink:href="#BitstreamVeraSans-Roman-30"/>
       <use x="63.623046875" xlink:href="#BitstreamVeraSans-Roman-2e"/>
       <use x="95.41015625" xlink:href="#BitstreamVeraSans-Roman-37"/>
      </g>
     </g>
    </g>
    <g id="xtick_16">
     <g id="line2d_68">
      <path clip-path="url(#p8f0a1a9076)" d="
M676.588 317.25
L676.588 108" style="fill:none;stroke:#ffffff;stroke-linecap:round;"/>
     </g>
     <g id="line2d_69">
      <g>
       <use style="fill:#262626;stroke:#262626;" x="676.588235294" xlink:href="#m219da94a98" y="317.25"/>
      </g>
     </g>
     <g id="line2d_70">
      <g>
       <use style="fill:#262626;stroke:#262626;" x="676.588235294" xlink:href="#m219da94a98" y="108.0"/>
      </g>
     </g>
     <g id="text_24">
      <!-- 0.8 -->
      <g style="fill:#262626;" transform="translate(669.308547794 331.8484375)scale(0.1 -0.1)">
       <use xlink:href="#BitstreamVeraSans-Roman-30"/>
       <use x="63.623046875" xlink:href="#BitstreamVeraSans-Roman-2e"/>
       <use x="95.41015625" xlink:href="#BitstreamVeraSans-Roman-38"/>
      </g>
     </g>
    </g>
    <g id="text_25">
     <!-- Effective Shot % -->
     <defs>
      <path d="
M9.8125 72.9062
L55.9062 72.9062
L55.9062 64.5938
L19.6719 64.5938
L19.6719 43.0156
L54.3906 43.0156
L54.3906 34.7188
L19.6719 34.7188
L19.6719 8.29688
L56.7812 8.29688
L56.7812 0
L9.8125 0
z
" id="BitstreamVeraSans-Roman-45"/>
      <path d="
M53.5156 70.5156
L53.5156 60.8906
Q47.9062 63.5781 42.9219 64.8906
Q37.9375 66.2188 33.2969 66.2188
Q25.25 66.2188 20.875 63.0938
Q16.5 59.9688 16.5 54.2031
Q16.5 49.3594 19.4062 46.8906
Q22.3125 44.4375 30.4219 42.9219
L36.375 41.7031
Q47.4062 39.5938 52.6562 34.2969
Q57.9062 29 57.9062 20.125
Q57.9062 9.51562 50.7969 4.04688
Q43.7031 -1.42188 29.9844 -1.42188
Q24.8125 -1.42188 18.9688 -0.25
Q13.1406 0.921875 6.89062 3.21875
L6.89062 13.375
Q12.8906 10.0156 18.6562 8.29688
Q24.4219 6.59375 29.9844 6.59375
Q38.4219 6.59375 43.0156 9.90625
Q47.6094 13.2344 47.6094 19.3906
Q47.6094 24.75 44.3125 27.7812
Q41.0156 30.8125 33.5 32.3281
L27.4844 33.5
Q16.4531 35.6875 11.5156 40.375
Q6.59375 45.0625 6.59375 53.4219
Q6.59375 63.0938 13.4062 68.6562
Q20.2188 74.2188 32.1719 74.2188
Q37.3125 74.2188 42.625 73.2812
Q47.9531 72.3594 53.5156 70.5156" id="BitstreamVeraSans-Roman-53"/>
      <path d="
M9.42188 54.6875
L18.4062 54.6875
L18.4062 0
L9.42188 0
z

M9.42188 75.9844
L18.4062 75.9844
L18.4062 64.5938
L9.42188 64.5938
z
" id="BitstreamVeraSans-Roman-69"/>
      <path d="
M54.8906 33.0156
L54.8906 0
L45.9062 0
L45.9062 32.7188
Q45.9062 40.4844 42.875 44.3281
Q39.8438 48.1875 33.7969 48.1875
Q26.5156 48.1875 22.3125 43.5469
Q18.1094 38.9219 18.1094 30.9062
L18.1094 0
L9.07812 0
L9.07812 75.9844
L18.1094 75.9844
L18.1094 46.1875
Q21.3438 51.125 25.7031 53.5625
Q30.0781 56 35.7969 56
Q45.2188 56 50.0469 50.1719
Q54.8906 44.3438 54.8906 33.0156" id="BitstreamVeraSans-Roman-68"/>
      <path d="
M2.98438 54.6875
L12.5 54.6875
L29.5938 8.79688
L46.6875 54.6875
L56.2031 54.6875
L35.6875 0
L23.4844 0
z
" id="BitstreamVeraSans-Roman-76"/>
      <path d="
M18.3125 70.2188
L18.3125 54.6875
L36.8125 54.6875
L36.8125 47.7031
L18.3125 47.7031
L18.3125 18.0156
Q18.3125 11.3281 20.1406 9.42188
Q21.9688 7.51562 27.5938 7.51562
L36.8125 7.51562
L36.8125 0
L27.5938 0
Q17.1875 0 13.2344 3.875
Q9.28125 7.76562 9.28125 18.0156
L9.28125 47.7031
L2.6875 47.7031
L2.6875 54.6875
L9.28125 54.6875
L9.28125 70.2188
z
" id="BitstreamVeraSans-Roman-74"/>
      <path d="
M37.1094 75.9844
L37.1094 68.5
L28.5156 68.5
Q23.6875 68.5 21.7969 66.5469
Q19.9219 64.5938 19.9219 59.5156
L19.9219 54.6875
L34.7188 54.6875
L34.7188 47.7031
L19.9219 47.7031
L19.9219 0
L10.8906 0
L10.8906 47.7031
L2.29688 47.7031
L2.29688 54.6875
L10.8906 54.6875
L10.8906 58.5
Q10.8906 67.625 15.1406 71.7969
Q19.3906 75.9844 28.6094 75.9844
z
" id="BitstreamVeraSans-Roman-66"/>
      <path d="
M48.7812 52.5938
L48.7812 44.1875
Q44.9688 46.2969 41.1406 47.3438
Q37.3125 48.3906 33.4062 48.3906
Q24.6562 48.3906 19.8125 42.8438
Q14.9844 37.3125 14.9844 27.2969
Q14.9844 17.2812 19.8125 11.7344
Q24.6562 6.20312 33.4062 6.20312
Q37.3125 6.20312 41.1406 7.25
Q44.9688 8.29688 48.7812 10.4062
L48.7812 2.09375
Q45.0156 0.34375 40.9844 -0.53125
Q36.9688 -1.42188 32.4219 -1.42188
Q20.0625 -1.42188 12.7812 6.34375
Q5.51562 14.1094 5.51562 27.2969
Q5.51562 40.6719 12.8594 48.3281
Q20.2188 56 33.0156 56
Q37.1562 56 41.1094 55.1406
Q45.0625 54.2969 48.7812 52.5938" id="BitstreamVeraSans-Roman-63"/>
     </defs>
     <g style="fill:#262626;" transform="translate(508.503125 347.28640625)scale(0.11 -0.11)">
      <use xlink:href="#BitstreamVeraSans-Roman-45"/>
      <use x="63.18359375" xlink:href="#BitstreamVeraSans-Roman-66"/>
      <use x="98.388671875" xlink:href="#BitstreamVeraSans-Roman-66"/>
      <use x="133.59375" xlink:href="#BitstreamVeraSans-Roman-65"/>
      <use x="195.1171875" xlink:href="#BitstreamVeraSans-Roman-63"/>
      <use x="250.09765625" xlink:href="#BitstreamVeraSans-Roman-74"/>
      <use x="289.306640625" xlink:href="#BitstreamVeraSans-Roman-69"/>
      <use x="317.08984375" xlink:href="#BitstreamVeraSans-Roman-76"/>
      <use x="376.26953125" xlink:href="#BitstreamVeraSans-Roman-65"/>
      <use x="437.79296875" xlink:href="#BitstreamVeraSans-Roman-20"/>
      <use x="469.580078125" xlink:href="#BitstreamVeraSans-Roman-53"/>
      <use x="533.056640625" xlink:href="#BitstreamVeraSans-Roman-68"/>
      <use x="596.435546875" xlink:href="#BitstreamVeraSans-Roman-6f"/>
      <use x="657.6171875" xlink:href="#BitstreamVeraSans-Roman-74"/>
      <use x="696.826171875" xlink:href="#BitstreamVeraSans-Roman-20"/>
      <use x="728.61328125" xlink:href="#BitstreamVeraSans-Roman-25"/>
     </g>
    </g>
   </g>
   <g id="matplotlib.axis_4">
    <g id="ytick_8">
     <g id="line2d_71">
      <path clip-path="url(#p8f0a1a9076)" d="
M430.412 317.25
L676.588 317.25" style="fill:none;stroke:#ffffff;stroke-linecap:round;"/>
     </g>
     <g id="line2d_72">
      <g>
       <use style="fill:#262626;stroke:#262626;" x="430.411764706" xlink:href="#m219da94a98" y="317.25"/>
      </g>
     </g>
     <g id="line2d_73">
      <g>
       <use style="fill:#262626;stroke:#262626;" x="676.588235294" xlink:href="#m219da94a98" y="317.25"/>
      </g>
     </g>
     <g id="text_26">
      <!-- -15 -->
      <g style="fill:#262626;" transform="translate(408.441452206 320.009375)scale(0.1 -0.1)">
       <use xlink:href="#BitstreamVeraSans-Roman-2d"/>
       <use x="36.083984375" xlink:href="#BitstreamVeraSans-Roman-31"/>
       <use x="99.70703125" xlink:href="#BitstreamVeraSans-Roman-35"/>
      </g>
     </g>
    </g>
    <g id="ytick_9">
     <g id="line2d_74">
      <path clip-path="url(#p8f0a1a9076)" d="
M430.412 282.375
L676.588 282.375" style="fill:none;stroke:#ffffff;stroke-linecap:round;"/>
     </g>
     <g id="line2d_75">
      <g>
       <use style="fill:#262626;stroke:#262626;" x="430.411764706" xlink:href="#m219da94a98" y="282.375"/>
      </g>
     </g>
     <g id="line2d_76">
      <g>
       <use style="fill:#262626;stroke:#262626;" x="676.588235294" xlink:href="#m219da94a98" y="282.375"/>
      </g>
     </g>
     <g id="text_27">
      <!-- -10 -->
      <g style="fill:#262626;" transform="translate(408.232077206 285.134375)scale(0.1 -0.1)">
       <use xlink:href="#BitstreamVeraSans-Roman-2d"/>
       <use x="36.083984375" xlink:href="#BitstreamVeraSans-Roman-31"/>
       <use x="99.70703125" xlink:href="#BitstreamVeraSans-Roman-30"/>
      </g>
     </g>
    </g>
    <g id="ytick_10">
     <g id="line2d_77">
      <path clip-path="url(#p8f0a1a9076)" d="
M430.412 247.5
L676.588 247.5" style="fill:none;stroke:#ffffff;stroke-linecap:round;"/>
     </g>
     <g id="line2d_78">
      <g>
       <use style="fill:#262626;stroke:#262626;" x="430.411764706" xlink:href="#m219da94a98" y="247.5"/>
      </g>
     </g>
     <g id="line2d_79">
      <g>
       <use style="fill:#262626;stroke:#262626;" x="676.588235294" xlink:href="#m219da94a98" y="247.5"/>
      </g>
     </g>
     <g id="text_28">
      <!-- -5 -->
      <g style="fill:#262626;" transform="translate(414.803952206 250.259375)scale(0.1 -0.1)">
       <use xlink:href="#BitstreamVeraSans-Roman-2d"/>
       <use x="36.083984375" xlink:href="#BitstreamVeraSans-Roman-35"/>
      </g>
     </g>
    </g>
    <g id="ytick_11">
     <g id="line2d_80">
      <path clip-path="url(#p8f0a1a9076)" d="
M430.412 212.625
L676.588 212.625" style="fill:none;stroke:#ffffff;stroke-linecap:round;"/>
     </g>
     <g id="line2d_81">
      <g>
       <use style="fill:#262626;stroke:#262626;" x="430.411764706" xlink:href="#m219da94a98" y="212.625"/>
      </g>
     </g>
     <g id="line2d_82">
      <g>
       <use style="fill:#262626;stroke:#262626;" x="676.588235294" xlink:href="#m219da94a98" y="212.625"/>
      </g>
     </g>
     <g id="text_29">
      <!-- 0 -->
      <g style="fill:#262626;" transform="translate(418.372702206 215.384375)scale(0.1 -0.1)">
       <use xlink:href="#BitstreamVeraSans-Roman-30"/>
      </g>
     </g>
    </g>
    <g id="ytick_12">
     <g id="line2d_83">
      <path clip-path="url(#p8f0a1a9076)" d="
M430.412 177.75
L676.588 177.75" style="fill:none;stroke:#ffffff;stroke-linecap:round;"/>
     </g>
     <g id="line2d_84">
      <g>
       <use style="fill:#262626;stroke:#262626;" x="430.411764706" xlink:href="#m219da94a98" y="177.75"/>
      </g>
     </g>
     <g id="line2d_85">
      <g>
       <use style="fill:#262626;stroke:#262626;" x="676.588235294" xlink:href="#m219da94a98" y="177.75"/>
      </g>
     </g>
     <g id="text_30">
      <!-- 5 -->
      <g style="fill:#262626;" transform="translate(418.694577206 180.509375)scale(0.1 -0.1)">
       <use xlink:href="#BitstreamVeraSans-Roman-35"/>
      </g>
     </g>
    </g>
    <g id="ytick_13">
     <g id="line2d_86">
      <path clip-path="url(#p8f0a1a9076)" d="
M430.412 142.875
L676.588 142.875" style="fill:none;stroke:#ffffff;stroke-linecap:round;"/>
     </g>
     <g id="line2d_87">
      <g>
       <use style="fill:#262626;stroke:#262626;" x="430.411764706" xlink:href="#m219da94a98" y="142.875"/>
      </g>
     </g>
     <g id="line2d_88">
      <g>
       <use style="fill:#262626;stroke:#262626;" x="676.588235294" xlink:href="#m219da94a98" y="142.875"/>
      </g>
     </g>
     <g id="text_31">
      <!-- 10 -->
      <g style="fill:#262626;" transform="translate(412.449264706 145.634375)scale(0.1 -0.1)">
       <use xlink:href="#BitstreamVeraSans-Roman-31"/>
       <use x="63.623046875" xlink:href="#BitstreamVeraSans-Roman-30"/>
      </g>
     </g>
    </g>
    <g id="ytick_14">
     <g id="line2d_89">
      <path clip-path="url(#p8f0a1a9076)" d="
M430.412 108
L676.588 108" style="fill:none;stroke:#ffffff;stroke-linecap:round;"/>
     </g>
     <g id="line2d_90">
      <g>
       <use style="fill:#262626;stroke:#262626;" x="430.411764706" xlink:href="#m219da94a98" y="108.0"/>
      </g>
     </g>
     <g id="line2d_91">
      <g>
       <use style="fill:#262626;stroke:#262626;" x="676.588235294" xlink:href="#m219da94a98" y="108.0"/>
      </g>
     </g>
     <g id="text_32">
      <!-- 15 -->
      <g style="fill:#262626;" transform="translate(412.658639706 110.759375)scale(0.1 -0.1)">
       <use xlink:href="#BitstreamVeraSans-Roman-31"/>
       <use x="63.623046875" xlink:href="#BitstreamVeraSans-Roman-35"/>
      </g>
     </g>
    </g>
   </g>
   <g id="PathCollection_2">
    <g clip-path="url(#p8f0a1a9076)">
     <use style="fill:#4c72b0;fill-opacity:0.8;" x="598.119485294" xlink:href="#m501da90a0f" y="142.875"/>
     <use style="fill:#4c72b0;fill-opacity:0.8;" x="611.04375" xlink:href="#m501da90a0f" y="191.7"/>
     <use style="fill:#4c72b0;fill-opacity:0.8;" x="576.579044118" xlink:href="#m501da90a0f" y="212.625"/>
     <use style="fill:#4c72b0;fill-opacity:0.8;" x="607.351102941" xlink:href="#m501da90a0f" y="226.575"/>
     <use style="fill:#4c72b0;fill-opacity:0.8;" x="616.582720588" xlink:href="#m501da90a0f" y="156.825"/>
     <use style="fill:#4c72b0;fill-opacity:0.8;" x="584.272058824" xlink:href="#m501da90a0f" y="254.475"/>
     <use style="fill:#4c72b0;fill-opacity:0.8;" x="591.965073529" xlink:href="#m501da90a0f" y="205.65"/>
     <use style="fill:#4c72b0;fill-opacity:0.8;" x="569.501470588" xlink:href="#m501da90a0f" y="247.5"/>
     <use style="fill:#4c72b0;fill-opacity:0.8;" x="570.424632353" xlink:href="#m501da90a0f" y="289.35"/>
     <use style="fill:#4c72b0;fill-opacity:0.8;" x="652.586029412" xlink:href="#m501da90a0f" y="191.7"/>
     <use style="fill:#4c72b0;fill-opacity:0.8;" x="461.183823529" xlink:href="#m501da90a0f" y="317.25"/>
     <use style="fill:#4c72b0;fill-opacity:0.8;" x="584.272058824" xlink:href="#m501da90a0f" y="184.725"/>
     <use style="fill:#4c72b0;fill-opacity:0.8;" x="597.196323529" xlink:href="#m501da90a0f" y="212.625"/>
     <use style="fill:#4c72b0;fill-opacity:0.8;" x="599.042647059" xlink:href="#m501da90a0f" y="226.575"/>
     <use style="fill:#4c72b0;fill-opacity:0.8;" x="615.044117647" xlink:href="#m501da90a0f" y="163.8"/>
     <use style="fill:#4c72b0;fill-opacity:0.8;" x="571.040073529" xlink:href="#m501da90a0f" y="156.825"/>
     <use style="fill:#4c72b0;fill-opacity:0.8;" x="539.344852941" xlink:href="#m501da90a0f" y="282.375"/>
     <use style="fill:#4c72b0;fill-opacity:0.8;" x="599.658088235" xlink:href="#m501da90a0f" y="303.3"/>
     <use style="fill:#4c72b0;fill-opacity:0.8;" x="647.6625" xlink:href="#m501da90a0f" y="240.525"/>
     <use style="fill:#4c72b0;fill-opacity:0.8;" x="576.886764706" xlink:href="#m501da90a0f" y="142.875"/>
     <use style="fill:#4c72b0;fill-opacity:0.8;" x="494.417647059" xlink:href="#m501da90a0f" y="226.575"/>
     <use style="fill:#4c72b0;fill-opacity:0.8;" x="557.500367647" xlink:href="#m501da90a0f" y="205.65"/>
     <use style="fill:#4c72b0;fill-opacity:0.8;" x="604.273897059" xlink:href="#m501da90a0f" y="184.725"/>
     <use style="fill:#4c72b0;fill-opacity:0.8;" x="629.506985294" xlink:href="#m501da90a0f" y="135.9"/>
     <use style="fill:#4c72b0;fill-opacity:0.8;" x="590.11875" xlink:href="#m501da90a0f" y="219.6"/>
     <use style="fill:#4c72b0;fill-opacity:0.8;" x="555.038602941" xlink:href="#m501da90a0f" y="254.475"/>
     <use style="fill:#4c72b0;fill-opacity:0.8;" x="575.655882353" xlink:href="#m501da90a0f" y="296.325"/>
     <use style="fill:#4c72b0;fill-opacity:0.8;" x="661.202205882" xlink:href="#m501da90a0f" y="135.9"/>
     <use style="fill:#4c72b0;fill-opacity:0.8;" x="617.813602941" xlink:href="#m501da90a0f" y="128.925"/>
     <use style="fill:#4c72b0;fill-opacity:0.8;" x="552.269117647" xlink:href="#m501da90a0f" y="247.5"/>
     <use style="fill:#4c72b0;fill-opacity:0.8;" x="605.197058824" xlink:href="#m501da90a0f" y="219.6"/>
     <use style="fill:#4c72b0;fill-opacity:0.8;" x="501.495220588" xlink:href="#m501da90a0f" y="282.375"/>
    </g>
   </g>
   <g id="PolyCollection_2">
    <defs>
     <path d="
M430.412 -807.047
L430.412 -695.349
L432.898 -698.024
L435.385 -700.7
L437.872 -703.376
L440.358 -706.056
L442.845 -708.737
L445.332 -711.419
L447.818 -714.178
L450.305 -716.989
L452.791 -719.799
L455.278 -722.61
L457.765 -725.42
L460.251 -728.231
L462.738 -731.042
L465.225 -733.852
L467.711 -736.663
L470.198 -739.477
L472.684 -742.291
L475.171 -745.106
L477.658 -747.92
L480.144 -750.734
L482.631 -753.549
L485.118 -756.363
L487.604 -759.177
L490.091 -761.992
L492.578 -764.806
L495.064 -767.62
L497.551 -770.24
L500.037 -772.584
L502.524 -775.078
L505.011 -777.892
L507.497 -780.428
L509.984 -782.849
L512.471 -785.297
L514.957 -787.725
L517.444 -790.142
L519.93 -792.56
L522.417 -795.491
L524.904 -797.733
L527.39 -800.584
L529.877 -802.95
L532.364 -805.153
L534.85 -807.832
L537.337 -810.194
L539.824 -812.185
L542.31 -814.315
L544.797 -816.675
L547.283 -818.931
L549.77 -821.223
L552.257 -823.648
L554.743 -825.949
L557.23 -827.671
L559.717 -829.89
L562.203 -831.805
L564.69 -833.638
L567.176 -835.775
L569.663 -837.772
L572.15 -839.9
L574.636 -841.904
L577.123 -843.974
L579.61 -846.037
L582.096 -847.507
L584.583 -849.354
L587.07 -850.925
L589.556 -852.732
L592.043 -854.181
L594.529 -855.755
L597.016 -857.598
L599.503 -858.909
L601.989 -860.67
L604.476 -862.083
L606.963 -863.206
L609.449 -864.632
L611.936 -866.111
L614.422 -867.372
L616.909 -868.859
L619.396 -869.99
L621.882 -871.134
L624.369 -872.441
L626.856 -873.619
L629.342 -874.708
L631.829 -876.126
L634.316 -877.362
L636.802 -878.585
L639.289 -879.944
L641.775 -881.303
L644.262 -882.662
L646.749 -883.529
L649.235 -884.557
L651.722 -886.184
L654.209 -887.073
L656.695 -887.715
L659.182 -888.869
L661.668 -890.314
L664.155 -891.188
L666.642 -892.061
L669.128 -892.95
L671.615 -894.093
L674.102 -895.218
L676.588 -896.36
L676.588 -963.586
L676.588 -963.586
L674.102 -960.783
L671.615 -957.962
L669.128 -955.494
L666.642 -953.092
L664.155 -950.552
L661.668 -947.741
L659.182 -945.235
L656.695 -942.792
L654.209 -940.356
L651.722 -937.924
L649.235 -935.49
L646.749 -933.14
L644.262 -931.122
L641.775 -928.683
L639.289 -926.297
L636.802 -923.808
L634.316 -921.376
L631.829 -918.943
L629.342 -916.786
L626.856 -914.826
L624.369 -912.563
L621.882 -910.272
L619.396 -907.621
L616.909 -905.21
L614.422 -902.721
L611.936 -900.382
L609.449 -897.969
L606.963 -896.259
L604.476 -894.158
L601.989 -892.256
L599.503 -889.887
L597.016 -888.265
L594.529 -886.165
L592.043 -884.207
L589.556 -882.339
L587.07 -880.628
L584.583 -878.971
L582.096 -877.258
L579.61 -875.836
L577.123 -874.261
L574.636 -872.596
L572.15 -870.952
L569.663 -869.399
L567.176 -868.067
L564.69 -867.057
L562.203 -865.937
L559.717 -864.469
L557.23 -862.885
L554.743 -861.529
L552.257 -860.274
L549.77 -859.008
L547.283 -857.633
L544.797 -856.479
L542.31 -855.233
L539.824 -854.122
L537.337 -852.829
L534.85 -851.733
L532.364 -850.637
L529.877 -849.421
L527.39 -848.102
L524.904 -847.169
L522.417 -846.275
L519.93 -845.199
L517.444 -844.285
L514.957 -843.358
L512.471 -841.99
L509.984 -840.594
L507.497 -839.203
L505.011 -838.315
L502.524 -837.55
L500.037 -836.469
L497.551 -835.388
L495.064 -834.304
L492.578 -833.212
L490.091 -832.119
L487.604 -831.027
L485.118 -829.935
L482.631 -828.842
L480.144 -827.75
L477.658 -826.658
L475.171 -825.565
L472.684 -824.473
L470.198 -823.583
L467.711 -822.45
L465.225 -821.287
L462.738 -820.126
L460.251 -819.041
L457.765 -817.973
L455.278 -816.943
L452.791 -815.913
L450.305 -814.882
L447.818 -813.852
L445.332 -812.821
L442.845 -811.843
L440.358 -810.883
L437.872 -809.924
L435.385 -808.965
L432.898 -808.006
L430.412 -807.047
z
" id="m454704c924" style="stroke:#4c72b0;stroke-opacity:0.15;stroke-width:0.3;"/>
    </defs>
    <g clip-path="url(#p8f0a1a9076)">
     <use style="fill:#4c72b0;fill-opacity:0.15;stroke:#4c72b0;stroke-opacity:0.15;stroke-width:0.3;" x="0.0" xlink:href="#m454704c924" y="1080.0"/>
    </g>
   </g>
   <g id="line2d_92">
    <path clip-path="url(#p8f0a1a9076)" d="
M430.412 325.204
L432.898 323.433
L435.385 321.663
L437.872 319.892
L440.358 318.121
L442.845 316.35
L445.332 314.579
L447.818 312.808
L450.305 311.037
L452.791 309.266
L455.278 307.496
L457.765 305.725
L460.251 303.954
L462.738 302.183
L465.225 300.412
L467.711 298.641
L470.198 296.87
L472.684 295.099
L475.171 293.328
L477.658 291.558
L480.144 289.787
L482.631 288.016
L485.118 286.245
L487.604 284.474
L490.091 282.703
L492.578 280.932
L495.064 279.161
L497.551 277.391
L500.037 275.62
L502.524 273.849
L505.011 272.078
L507.497 270.307
L509.984 268.536
L512.471 266.765
L514.957 264.994
L517.444 263.223
L519.93 261.453
L522.417 259.682
L524.904 257.911
L527.39 256.14
L529.877 254.369
L532.364 252.598
L534.85 250.827
L537.337 249.056
L539.824 247.286
L542.31 245.515
L544.797 243.744
L547.283 241.973
L549.77 240.202
L552.257 238.431
L554.743 236.66
L557.23 234.889
L559.717 233.118
L562.203 231.348
L564.69 229.577
L567.176 227.806
L569.663 226.035
L572.15 224.264
L574.636 222.493
L577.123 220.722
L579.61 218.951
L582.096 217.181
L584.583 215.41
L587.07 213.639
L589.556 211.868
L592.043 210.097
L594.529 208.326
L597.016 206.555
L599.503 204.784
L601.989 203.013
L604.476 201.243
L606.963 199.472
L609.449 197.701
L611.936 195.93
L614.422 194.159
L616.909 192.388
L619.396 190.617
L621.882 188.846
L624.369 187.075
L626.856 185.305
L629.342 183.534
L631.829 181.763
L634.316 179.992
L636.802 178.221
L639.289 176.45
L641.775 174.679
L644.262 172.908
L646.749 171.138
L649.235 169.367
L651.722 167.596
L654.209 165.825
L656.695 164.054
L659.182 162.283
L661.668 160.512
L664.155 158.741
L666.642 156.97
L669.128 155.2
L671.615 153.429
L674.102 151.658
L676.588 149.887" style="fill:none;stroke:#4c72b0;stroke-linecap:round;stroke-width:2.625;"/>
   </g>
   <g id="patch_8">
    <path d="
M430.412 108
L676.588 108" style="fill:none;"/>
   </g>
   <g id="patch_9">
    <path d="
M676.588 317.25
L676.588 108" style="fill:none;"/>
   </g>
   <g id="patch_10">
    <path d="
M430.412 317.25
L676.588 317.25" style="fill:none;"/>
   </g>
   <g id="patch_11">
    <path d="
M430.412 317.25
L430.412 108" style="fill:none;"/>
   </g>
  </g>
  <g id="axes_3">
   <g id="patch_12">
    <path d="
M725.824 317.25
L972 317.25
L972 108
L725.824 108
z
" style="fill:#eaeaf2;"/>
   </g>
   <g id="matplotlib.axis_5">
    <g id="xtick_17">
     <g id="line2d_93">
      <path clip-path="url(#pd8ed550d8a)" d="
M725.824 317.25
L725.824 108" style="fill:none;stroke:#ffffff;stroke-linecap:round;"/>
     </g>
     <g id="line2d_94">
      <g>
       <use style="fill:#262626;stroke:#262626;" x="725.823529412" xlink:href="#m219da94a98" y="317.25"/>
      </g>
     </g>
     <g id="line2d_95">
      <g>
       <use style="fill:#262626;stroke:#262626;" x="725.823529412" xlink:href="#m219da94a98" y="108.0"/>
      </g>
     </g>
     <g id="text_33">
      <!-- -2 -->
      <g style="fill:#262626;" transform="translate(721.583685662 331.8484375)scale(0.1 -0.1)">
       <use xlink:href="#BitstreamVeraSans-Roman-2d"/>
       <use x="36.083984375" xlink:href="#BitstreamVeraSans-Roman-32"/>
      </g>
     </g>
    </g>
    <g id="xtick_18">
     <g id="line2d_96">
      <path clip-path="url(#pd8ed550d8a)" d="
M766.853 317.25
L766.853 108" style="fill:none;stroke:#ffffff;stroke-linecap:round;"/>
     </g>
     <g id="line2d_97">
      <g>
       <use style="fill:#262626;stroke:#262626;" x="766.852941176" xlink:href="#m219da94a98" y="317.25"/>
      </g>
     </g>
     <g id="line2d_98">
      <g>
       <use style="fill:#262626;stroke:#262626;" x="766.852941176" xlink:href="#m219da94a98" y="108.0"/>
      </g>
     </g>
     <g id="text_34">
      <!-- 0 -->
      <g style="fill:#262626;" transform="translate(764.333409926 331.8484375)scale(0.1 -0.1)">
       <use xlink:href="#BitstreamVeraSans-Roman-30"/>
      </g>
     </g>
    </g>
    <g id="xtick_19">
     <g id="line2d_99">
      <path clip-path="url(#pd8ed550d8a)" d="
M807.882 317.25
L807.882 108" style="fill:none;stroke:#ffffff;stroke-linecap:round;"/>
     </g>
     <g id="line2d_100">
      <g>
       <use style="fill:#262626;stroke:#262626;" x="807.882352941" xlink:href="#m219da94a98" y="317.25"/>
      </g>
     </g>
     <g id="line2d_101">
      <g>
       <use style="fill:#262626;stroke:#262626;" x="807.882352941" xlink:href="#m219da94a98" y="108.0"/>
      </g>
     </g>
     <g id="text_35">
      <!-- 2 -->
      <g style="fill:#262626;" transform="translate(805.568290441 331.8484375)scale(0.1 -0.1)">
       <use xlink:href="#BitstreamVeraSans-Roman-32"/>
      </g>
     </g>
    </g>
    <g id="xtick_20">
     <g id="line2d_102">
      <path clip-path="url(#pd8ed550d8a)" d="
M848.912 317.25
L848.912 108" style="fill:none;stroke:#ffffff;stroke-linecap:round;"/>
     </g>
     <g id="line2d_103">
      <g>
       <use style="fill:#262626;stroke:#262626;" x="848.911764706" xlink:href="#m219da94a98" y="317.25"/>
      </g>
     </g>
     <g id="line2d_104">
      <g>
       <use style="fill:#262626;stroke:#262626;" x="848.911764706" xlink:href="#m219da94a98" y="108.0"/>
      </g>
     </g>
     <g id="text_36">
      <!-- 4 -->
      <g style="fill:#262626;" transform="translate(846.255514706 331.8484375)scale(0.1 -0.1)">
       <use xlink:href="#BitstreamVeraSans-Roman-34"/>
      </g>
     </g>
    </g>
    <g id="xtick_21">
     <g id="line2d_105">
      <path clip-path="url(#pd8ed550d8a)" d="
M889.941 317.25
L889.941 108" style="fill:none;stroke:#ffffff;stroke-linecap:round;"/>
     </g>
     <g id="line2d_106">
      <g>
       <use style="fill:#262626;stroke:#262626;" x="889.941176471" xlink:href="#m219da94a98" y="317.25"/>
      </g>
     </g>
     <g id="line2d_107">
      <g>
       <use style="fill:#262626;stroke:#262626;" x="889.941176471" xlink:href="#m219da94a98" y="108.0"/>
      </g>
     </g>
     <g id="text_37">
      <!-- 6 -->
      <g style="fill:#262626;" transform="translate(887.423988971 331.8484375)scale(0.1 -0.1)">
       <use xlink:href="#BitstreamVeraSans-Roman-36"/>
      </g>
     </g>
    </g>
    <g id="xtick_22">
     <g id="line2d_108">
      <path clip-path="url(#pd8ed550d8a)" d="
M930.971 317.25
L930.971 108" style="fill:none;stroke:#ffffff;stroke-linecap:round;"/>
     </g>
     <g id="line2d_109">
      <g>
       <use style="fill:#262626;stroke:#262626;" x="930.970588235" xlink:href="#m219da94a98" y="317.25"/>
      </g>
     </g>
     <g id="line2d_110">
      <g>
       <use style="fill:#262626;stroke:#262626;" x="930.970588235" xlink:href="#m219da94a98" y="108.0"/>
      </g>
     </g>
     <g id="text_38">
      <!-- 8 -->
      <g style="fill:#262626;" transform="translate(928.470588235 331.8484375)scale(0.1 -0.1)">
       <use xlink:href="#BitstreamVeraSans-Roman-38"/>
      </g>
     </g>
    </g>
    <g id="xtick_23">
     <g id="line2d_111">
      <path clip-path="url(#pd8ed550d8a)" d="
M972 317.25
L972 108" style="fill:none;stroke:#ffffff;stroke-linecap:round;"/>
     </g>
     <g id="line2d_112">
      <g>
       <use style="fill:#262626;stroke:#262626;" x="972.0" xlink:href="#m219da94a98" y="317.25"/>
      </g>
     </g>
     <g id="line2d_113">
      <g>
       <use style="fill:#262626;stroke:#262626;" x="972.0" xlink:href="#m219da94a98" y="108.0"/>
      </g>
     </g>
     <g id="text_39">
      <!-- 10 -->
      <g style="fill:#262626;" transform="translate(966.51875 331.8484375)scale(0.1 -0.1)">
       <use xlink:href="#BitstreamVeraSans-Roman-31"/>
       <use x="63.623046875" xlink:href="#BitstreamVeraSans-Roman-30"/>
      </g>
     </g>
    </g>
    <g id="text_40">
     <!-- Points via Turnovers -->
     <defs>
      <path d="
M19.6719 64.7969
L19.6719 37.4062
L32.0781 37.4062
Q38.9688 37.4062 42.7188 40.9688
Q46.4844 44.5312 46.4844 51.125
Q46.4844 57.6719 42.7188 61.2344
Q38.9688 64.7969 32.0781 64.7969
z

M9.8125 72.9062
L32.0781 72.9062
Q44.3438 72.9062 50.6094 67.3594
Q56.8906 61.8125 56.8906 51.125
Q56.8906 40.3281 50.6094 34.8125
Q44.3438 29.2969 32.0781 29.2969
L19.6719 29.2969
L19.6719 0
L9.8125 0
z
" id="BitstreamVeraSans-Roman-50"/>
      <path d="
M-0.296875 72.9062
L61.375 72.9062
L61.375 64.5938
L35.5 64.5938
L35.5 0
L25.5938 0
L25.5938 64.5938
L-0.296875 64.5938
z
" id="BitstreamVeraSans-Roman-54"/>
      <path d="
M34.2812 27.4844
Q23.3906 27.4844 19.1875 25
Q14.9844 22.5156 14.9844 16.5
Q14.9844 11.7188 18.1406 8.90625
Q21.2969 6.10938 26.7031 6.10938
Q34.1875 6.10938 38.7031 11.4062
Q43.2188 16.7031 43.2188 25.4844
L43.2188 27.4844
z

M52.2031 31.2031
L52.2031 0
L43.2188 0
L43.2188 8.29688
Q40.1406 3.32812 35.5469 0.953125
Q30.9531 -1.42188 24.3125 -1.42188
Q15.9219 -1.42188 10.9531 3.29688
Q6 8.01562 6 15.9219
Q6 25.1406 12.1719 29.8281
Q18.3594 34.5156 30.6094 34.5156
L43.2188 34.5156
L43.2188 35.4062
Q43.2188 41.6094 39.1406 45
Q35.0625 48.3906 27.6875 48.3906
Q23 48.3906 18.5469 47.2656
Q14.1094 46.1406 10.0156 43.8906
L10.0156 52.2031
Q14.9375 54.1094 19.5781 55.0469
Q24.2188 56 28.6094 56
Q40.4844 56 46.3438 49.8438
Q52.2031 43.7031 52.2031 31.2031" id="BitstreamVeraSans-Roman-61"/>
      <path d="
M44.2812 53.0781
L44.2812 44.5781
Q40.4844 46.5312 36.375 47.5
Q32.2812 48.4844 27.875 48.4844
Q21.1875 48.4844 17.8438 46.4375
Q14.5 44.3906 14.5 40.2812
Q14.5 37.1562 16.8906 35.375
Q19.2812 33.5938 26.5156 31.9844
L29.5938 31.2969
Q39.1562 29.25 43.1875 25.5156
Q47.2188 21.7812 47.2188 15.0938
Q47.2188 7.46875 41.1875 3.01562
Q35.1562 -1.42188 24.6094 -1.42188
Q20.2188 -1.42188 15.4531 -0.5625
Q10.6875 0.296875 5.42188 2
L5.42188 11.2812
Q10.4062 8.6875 15.2344 7.39062
Q20.0625 6.10938 24.8125 6.10938
Q31.1562 6.10938 34.5625 8.28125
Q37.9844 10.4531 37.9844 14.4062
Q37.9844 18.0625 35.5156 20.0156
Q33.0625 21.9688 24.7031 23.7812
L21.5781 24.5156
Q13.2344 26.2656 9.51562 29.9062
Q5.8125 33.5469 5.8125 39.8906
Q5.8125 47.6094 11.2812 51.7969
Q16.75 56 26.8125 56
Q31.7812 56 36.1719 55.2656
Q40.5781 54.5469 44.2812 53.0781" id="BitstreamVeraSans-Roman-73"/>
      <path d="
M41.1094 46.2969
Q39.5938 47.1719 37.8125 47.5781
Q36.0312 48 33.8906 48
Q26.2656 48 22.1875 43.0469
Q18.1094 38.0938 18.1094 28.8125
L18.1094 0
L9.07812 0
L9.07812 54.6875
L18.1094 54.6875
L18.1094 46.1875
Q20.9531 51.1719 25.4844 53.5781
Q30.0312 56 36.5312 56
Q37.4531 56 38.5781 55.875
Q39.7031 55.7656 41.0625 55.5156
z
" id="BitstreamVeraSans-Roman-72"/>
     </defs>
     <g style="fill:#262626;" transform="translate(794.218561581 347.28640625)scale(0.11 -0.11)">
      <use xlink:href="#BitstreamVeraSans-Roman-50"/>
      <use x="56.677734375" xlink:href="#BitstreamVeraSans-Roman-6f"/>
      <use x="117.859375" xlink:href="#BitstreamVeraSans-Roman-69"/>
      <use x="145.642578125" xlink:href="#BitstreamVeraSans-Roman-6e"/>
      <use x="209.021484375" xlink:href="#BitstreamVeraSans-Roman-74"/>
      <use x="248.23046875" xlink:href="#BitstreamVeraSans-Roman-73"/>
      <use x="300.330078125" xlink:href="#BitstreamVeraSans-Roman-20"/>
      <use x="332.1171875" xlink:href="#BitstreamVeraSans-Roman-76"/>
      <use x="391.296875" xlink:href="#BitstreamVeraSans-Roman-69"/>
      <use x="419.080078125" xlink:href="#BitstreamVeraSans-Roman-61"/>
      <use x="480.359375" xlink:href="#BitstreamVeraSans-Roman-20"/>
      <use x="512.146484375" xlink:href="#BitstreamVeraSans-Roman-54"/>
      <use x="558.10546875" xlink:href="#BitstreamVeraSans-Roman-75"/>
      <use x="621.484375" xlink:href="#BitstreamVeraSans-Roman-72"/>
      <use x="660.84765625" xlink:href="#BitstreamVeraSans-Roman-6e"/>
      <use x="724.2265625" xlink:href="#BitstreamVeraSans-Roman-6f"/>
      <use x="785.408203125" xlink:href="#BitstreamVeraSans-Roman-76"/>
      <use x="844.587890625" xlink:href="#BitstreamVeraSans-Roman-65"/>
      <use x="906.111328125" xlink:href="#BitstreamVeraSans-Roman-72"/>
      <use x="947.224609375" xlink:href="#BitstreamVeraSans-Roman-73"/>
     </g>
    </g>
   </g>
   <g id="matplotlib.axis_6">
    <g id="ytick_15">
     <g id="line2d_114">
      <path clip-path="url(#pd8ed550d8a)" d="
M725.824 317.25
L972 317.25" style="fill:none;stroke:#ffffff;stroke-linecap:round;"/>
     </g>
     <g id="line2d_115">
      <g>
       <use style="fill:#262626;stroke:#262626;" x="725.823529412" xlink:href="#m219da94a98" y="317.25"/>
      </g>
     </g>
     <g id="line2d_116">
      <g>
       <use style="fill:#262626;stroke:#262626;" x="972.0" xlink:href="#m219da94a98" y="317.25"/>
      </g>
     </g>
     <g id="text_41">
      <!-- -15 -->
      <g style="fill:#262626;" transform="translate(703.853216912 320.009375)scale(0.1 -0.1)">
       <use xlink:href="#BitstreamVeraSans-Roman-2d"/>
       <use x="36.083984375" xlink:href="#BitstreamVeraSans-Roman-31"/>
       <use x="99.70703125" xlink:href="#BitstreamVeraSans-Roman-35"/>
      </g>
     </g>
    </g>
    <g id="ytick_16">
     <g id="line2d_117">
      <path clip-path="url(#pd8ed550d8a)" d="
M725.824 282.375
L972 282.375" style="fill:none;stroke:#ffffff;stroke-linecap:round;"/>
     </g>
     <g id="line2d_118">
      <g>
       <use style="fill:#262626;stroke:#262626;" x="725.823529412" xlink:href="#m219da94a98" y="282.375"/>
      </g>
     </g>
     <g id="line2d_119">
      <g>
       <use style="fill:#262626;stroke:#262626;" x="972.0" xlink:href="#m219da94a98" y="282.375"/>
      </g>
     </g>
     <g id="text_42">
      <!-- -10 -->
      <g style="fill:#262626;" transform="translate(703.643841912 285.134375)scale(0.1 -0.1)">
       <use xlink:href="#BitstreamVeraSans-Roman-2d"/>
       <use x="36.083984375" xlink:href="#BitstreamVeraSans-Roman-31"/>
       <use x="99.70703125" xlink:href="#BitstreamVeraSans-Roman-30"/>
      </g>
     </g>
    </g>
    <g id="ytick_17">
     <g id="line2d_120">
      <path clip-path="url(#pd8ed550d8a)" d="
M725.824 247.5
L972 247.5" style="fill:none;stroke:#ffffff;stroke-linecap:round;"/>
     </g>
     <g id="line2d_121">
      <g>
       <use style="fill:#262626;stroke:#262626;" x="725.823529412" xlink:href="#m219da94a98" y="247.5"/>
      </g>
     </g>
     <g id="line2d_122">
      <g>
       <use style="fill:#262626;stroke:#262626;" x="972.0" xlink:href="#m219da94a98" y="247.5"/>
      </g>
     </g>
     <g id="text_43">
      <!-- -5 -->
      <g style="fill:#262626;" transform="translate(710.215716912 250.259375)scale(0.1 -0.1)">
       <use xlink:href="#BitstreamVeraSans-Roman-2d"/>
       <use x="36.083984375" xlink:href="#BitstreamVeraSans-Roman-35"/>
      </g>
     </g>
    </g>
    <g id="ytick_18">
     <g id="line2d_123">
      <path clip-path="url(#pd8ed550d8a)" d="
M725.824 212.625
L972 212.625" style="fill:none;stroke:#ffffff;stroke-linecap:round;"/>
     </g>
     <g id="line2d_124">
      <g>
       <use style="fill:#262626;stroke:#262626;" x="725.823529412" xlink:href="#m219da94a98" y="212.625"/>
      </g>
     </g>
     <g id="line2d_125">
      <g>
       <use style="fill:#262626;stroke:#262626;" x="972.0" xlink:href="#m219da94a98" y="212.625"/>
      </g>
     </g>
     <g id="text_44">
      <!-- 0 -->
      <g style="fill:#262626;" transform="translate(713.784466912 215.384375)scale(0.1 -0.1)">
       <use xlink:href="#BitstreamVeraSans-Roman-30"/>
      </g>
     </g>
    </g>
    <g id="ytick_19">
     <g id="line2d_126">
      <path clip-path="url(#pd8ed550d8a)" d="
M725.824 177.75
L972 177.75" style="fill:none;stroke:#ffffff;stroke-linecap:round;"/>
     </g>
     <g id="line2d_127">
      <g>
       <use style="fill:#262626;stroke:#262626;" x="725.823529412" xlink:href="#m219da94a98" y="177.75"/>
      </g>
     </g>
     <g id="line2d_128">
      <g>
       <use style="fill:#262626;stroke:#262626;" x="972.0" xlink:href="#m219da94a98" y="177.75"/>
      </g>
     </g>
     <g id="text_45">
      <!-- 5 -->
      <g style="fill:#262626;" transform="translate(714.106341912 180.509375)scale(0.1 -0.1)">
       <use xlink:href="#BitstreamVeraSans-Roman-35"/>
      </g>
     </g>
    </g>
    <g id="ytick_20">
     <g id="line2d_129">
      <path clip-path="url(#pd8ed550d8a)" d="
M725.824 142.875
L972 142.875" style="fill:none;stroke:#ffffff;stroke-linecap:round;"/>
     </g>
     <g id="line2d_130">
      <g>
       <use style="fill:#262626;stroke:#262626;" x="725.823529412" xlink:href="#m219da94a98" y="142.875"/>
      </g>
     </g>
     <g id="line2d_131">
      <g>
       <use style="fill:#262626;stroke:#262626;" x="972.0" xlink:href="#m219da94a98" y="142.875"/>
      </g>
     </g>
     <g id="text_46">
      <!-- 10 -->
      <g style="fill:#262626;" transform="translate(707.861029412 145.634375)scale(0.1 -0.1)">
       <use xlink:href="#BitstreamVeraSans-Roman-31"/>
       <use x="63.623046875" xlink:href="#BitstreamVeraSans-Roman-30"/>
      </g>
     </g>
    </g>
    <g id="ytick_21">
     <g id="line2d_132">
      <path clip-path="url(#pd8ed550d8a)" d="
M725.824 108
L972 108" style="fill:none;stroke:#ffffff;stroke-linecap:round;"/>
     </g>
     <g id="line2d_133">
      <g>
       <use style="fill:#262626;stroke:#262626;" x="725.823529412" xlink:href="#m219da94a98" y="108.0"/>
      </g>
     </g>
     <g id="line2d_134">
      <g>
       <use style="fill:#262626;stroke:#262626;" x="972.0" xlink:href="#m219da94a98" y="108.0"/>
      </g>
     </g>
     <g id="text_47">
      <!-- 15 -->
      <g style="fill:#262626;" transform="translate(708.070404412 110.759375)scale(0.1 -0.1)">
       <use xlink:href="#BitstreamVeraSans-Roman-31"/>
       <use x="63.623046875" xlink:href="#BitstreamVeraSans-Roman-35"/>
      </g>
     </g>
    </g>
   </g>
   <g id="PathCollection_3">
    <g clip-path="url(#pd8ed550d8a)">
     <use style="fill:#4c72b0;fill-opacity:0.8;" x="930.970588235" xlink:href="#m501da90a0f" y="142.875"/>
     <use style="fill:#4c72b0;fill-opacity:0.8;" x="807.882352941" xlink:href="#m501da90a0f" y="191.7"/>
     <use style="fill:#4c72b0;fill-opacity:0.8;" x="951.485294118" xlink:href="#m501da90a0f" y="212.625"/>
     <use style="fill:#4c72b0;fill-opacity:0.8;" x="951.485294118" xlink:href="#m501da90a0f" y="226.575"/>
     <use style="fill:#4c72b0;fill-opacity:0.8;" x="807.882352941" xlink:href="#m501da90a0f" y="156.825"/>
     <use style="fill:#4c72b0;fill-opacity:0.8;" x="848.911764706" xlink:href="#m501da90a0f" y="254.475"/>
     <use style="fill:#4c72b0;fill-opacity:0.8;" x="951.485294118" xlink:href="#m501da90a0f" y="205.65"/>
     <use style="fill:#4c72b0;fill-opacity:0.8;" x="766.852941176" xlink:href="#m501da90a0f" y="247.5"/>
     <use style="fill:#4c72b0;fill-opacity:0.8;" x="807.882352941" xlink:href="#m501da90a0f" y="289.35"/>
     <use style="fill:#4c72b0;fill-opacity:0.8;" x="910.455882353" xlink:href="#m501da90a0f" y="191.7"/>
     <use style="fill:#4c72b0;fill-opacity:0.8;" x="766.852941176" xlink:href="#m501da90a0f" y="317.25"/>
     <use style="fill:#4c72b0;fill-opacity:0.8;" x="766.852941176" xlink:href="#m501da90a0f" y="184.725"/>
     <use style="fill:#4c72b0;fill-opacity:0.8;" x="869.426470588" xlink:href="#m501da90a0f" y="212.625"/>
     <use style="fill:#4c72b0;fill-opacity:0.8;" x="807.882352941" xlink:href="#m501da90a0f" y="226.575"/>
     <use style="fill:#4c72b0;fill-opacity:0.8;" x="930.970588235" xlink:href="#m501da90a0f" y="163.8"/>
     <use style="fill:#4c72b0;fill-opacity:0.8;" x="930.970588235" xlink:href="#m501da90a0f" y="156.825"/>
     <use style="fill:#4c72b0;fill-opacity:0.8;" x="910.455882353" xlink:href="#m501da90a0f" y="282.375"/>
     <use style="fill:#4c72b0;fill-opacity:0.8;" x="848.911764706" xlink:href="#m501da90a0f" y="303.3"/>
     <use style="fill:#4c72b0;fill-opacity:0.8;" x="869.426470588" xlink:href="#m501da90a0f" y="240.525"/>
     <use style="fill:#4c72b0;fill-opacity:0.8;" x="930.970588235" xlink:href="#m501da90a0f" y="142.875"/>
     <use style="fill:#4c72b0;fill-opacity:0.8;" x="807.882352941" xlink:href="#m501da90a0f" y="226.575"/>
     <use style="fill:#4c72b0;fill-opacity:0.8;" x="807.882352941" xlink:href="#m501da90a0f" y="205.65"/>
     <use style="fill:#4c72b0;fill-opacity:0.8;" x="889.941176471" xlink:href="#m501da90a0f" y="184.725"/>
     <use style="fill:#4c72b0;fill-opacity:0.8;" x="848.911764706" xlink:href="#m501da90a0f" y="135.9"/>
     <use style="fill:#4c72b0;fill-opacity:0.8;" x="807.882352941" xlink:href="#m501da90a0f" y="219.6"/>
     <use style="fill:#4c72b0;fill-opacity:0.8;" x="807.882352941" xlink:href="#m501da90a0f" y="254.475"/>
     <use style="fill:#4c72b0;fill-opacity:0.8;" x="807.882352941" xlink:href="#m501da90a0f" y="296.325"/>
     <use style="fill:#4c72b0;fill-opacity:0.8;" x="869.426470588" xlink:href="#m501da90a0f" y="135.9"/>
     <use style="fill:#4c72b0;fill-opacity:0.8;" x="869.426470588" xlink:href="#m501da90a0f" y="128.925"/>
     <use style="fill:#4c72b0;fill-opacity:0.8;" x="807.882352941" xlink:href="#m501da90a0f" y="247.5"/>
     <use style="fill:#4c72b0;fill-opacity:0.8;" x="848.911764706" xlink:href="#m501da90a0f" y="219.6"/>
     <use style="fill:#4c72b0;fill-opacity:0.8;" x="807.882352941" xlink:href="#m501da90a0f" y="282.375"/>
    </g>
   </g>
   <g id="PolyCollection_3">
    <defs>
     <path d="
M725.824 -856.104
L725.824 -774.416
L728.31 -776.105
L730.797 -777.737
L733.283 -779.39
L735.77 -781.045
L738.257 -782.713
L740.743 -784.381
L743.23 -786.043
L745.717 -787.699
L748.203 -789.195
L750.69 -790.638
L753.176 -792.373
L755.663 -793.806
L758.15 -795.446
L760.636 -796.949
L763.123 -798.678
L765.61 -800.608
L768.096 -802.539
L770.583 -804.06
L773.07 -805.248
L775.556 -806.487
L778.043 -808.1
L780.529 -809.168
L783.016 -810.61
L785.503 -812.26
L787.989 -813.973
L790.476 -815.493
L792.963 -817.189
L795.449 -819.026
L797.936 -820.449
L800.422 -821.753
L802.909 -823.053
L805.396 -824.041
L807.882 -825.45
L810.369 -826.685
L812.856 -828.282
L815.342 -829.583
L817.829 -830.806
L820.316 -831.968
L822.802 -833.129
L825.289 -834.279
L827.775 -835.505
L830.262 -837.008
L832.749 -838.293
L835.235 -839.439
L837.722 -840.872
L840.209 -842.29
L842.695 -843.443
L845.182 -844.261
L847.668 -845.353
L850.155 -846.682
L852.642 -847.659
L855.128 -848.663
L857.615 -849.889
L860.102 -850.664
L862.588 -851.582
L865.075 -852.709
L867.561 -853.947
L870.048 -854.939
L872.535 -855.735
L875.021 -856.528
L877.508 -857.46
L879.995 -858.263
L882.481 -858.982
L884.968 -859.396
L887.455 -859.963
L889.941 -861.216
L892.428 -861.938
L894.914 -862.64
L897.401 -863.148
L899.888 -863.958
L902.374 -864.738
L904.861 -865.412
L907.348 -866.159
L909.834 -866.551
L912.321 -867.092
L914.807 -867.659
L917.294 -868.287
L919.781 -868.96
L922.267 -869.766
L924.754 -870.465
L927.241 -871.103
L929.727 -871.649
L932.214 -872.34
L934.701 -873.039
L937.187 -873.629
L939.674 -874.081
L942.16 -874.689
L944.647 -875.09
L947.134 -875.827
L949.62 -876.558
L952.107 -877.121
L954.594 -877.518
L957.08 -878.048
L959.567 -878.417
L962.053 -878.777
L964.54 -879.142
L967.027 -879.506
L969.513 -879.872
L972 -880.24
L972 -947.301
L972 -947.301
L969.513 -945.546
L967.027 -943.821
L964.54 -942.362
L962.053 -940.904
L959.567 -939.309
L957.08 -937.752
L954.594 -936.256
L952.107 -934.76
L949.62 -933.263
L947.134 -931.902
L944.647 -930.764
L942.16 -929.295
L939.674 -927.546
L937.187 -926.301
L934.701 -924.974
L932.214 -923.433
L929.727 -921.874
L927.241 -920.314
L924.754 -918.754
L922.267 -917.193
L919.781 -915.63
L917.294 -914.061
L914.807 -912.371
L912.321 -910.943
L909.834 -909.672
L907.348 -908.433
L904.861 -907.105
L902.374 -905.816
L899.888 -904.251
L897.401 -903.104
L894.914 -901.816
L892.428 -900.24
L889.941 -898.694
L887.455 -897.474
L884.968 -896.101
L882.481 -894.624
L879.995 -893.334
L877.508 -892.395
L875.021 -891.214
L872.535 -889.931
L870.048 -889.138
L867.561 -888.179
L865.075 -887.341
L862.588 -886.725
L860.102 -885.928
L857.615 -884.978
L855.128 -883.928
L852.642 -882.601
L850.155 -881.409
L847.668 -880.332
L845.182 -879.494
L842.695 -879.149
L840.209 -878.101
L837.722 -877.282
L835.235 -876.505
L832.749 -875.762
L830.262 -875.52
L827.775 -874.859
L825.289 -874.265
L822.802 -873.212
L820.316 -872.929
L817.829 -872.322
L815.342 -871.69
L812.856 -870.817
L810.369 -870.066
L807.882 -869.447
L805.396 -868.642
L802.909 -868.051
L800.422 -867.278
L797.936 -866.857
L795.449 -866.418
L792.963 -865.99
L790.476 -865.563
L787.989 -865.136
L785.503 -864.707
L783.016 -864.357
L780.529 -864.043
L778.043 -863.553
L775.556 -863.26
L773.07 -863.017
L770.583 -862.775
L768.096 -862.533
L765.61 -862.29
L763.123 -862.023
L760.636 -861.732
L758.15 -861.442
L755.663 -861.151
L753.176 -860.856
L750.69 -860.442
L748.203 -860.007
L745.717 -859.568
L743.23 -859.129
L740.743 -858.69
L738.257 -858.251
L735.77 -857.812
L733.283 -857.438
L730.797 -857.021
L728.31 -856.562
L725.824 -856.104
z
" id="m41d9d704a0" style="stroke:#4c72b0;stroke-opacity:0.15;stroke-width:0.3;"/>
    </defs>
    <g clip-path="url(#pd8ed550d8a)">
     <use style="fill:#4c72b0;fill-opacity:0.15;stroke:#4c72b0;stroke-opacity:0.15;stroke-width:0.3;" x="0.0" xlink:href="#m41d9d704a0" y="1080.0"/>
    </g>
   </g>
   <g id="line2d_135">
    <path clip-path="url(#pd8ed550d8a)" d="
M725.824 263.857
L728.31 262.919
L730.797 261.981
L733.283 261.042
L735.77 260.104
L738.257 259.166
L740.743 258.228
L743.23 257.29
L745.717 256.352
L748.203 255.413
L750.69 254.475
L753.176 253.537
L755.663 252.599
L758.15 251.661
L760.636 250.723
L763.123 249.784
L765.61 248.846
L768.096 247.908
L770.583 246.97
L773.07 246.032
L775.556 245.094
L778.043 244.155
L780.529 243.217
L783.016 242.279
L785.503 241.341
L787.989 240.403
L790.476 239.464
L792.963 238.526
L795.449 237.588
L797.936 236.65
L800.422 235.712
L802.909 234.774
L805.396 233.835
L807.882 232.897
L810.369 231.959
L812.856 231.021
L815.342 230.083
L817.829 229.145
L820.316 228.206
L822.802 227.268
L825.289 226.33
L827.775 225.392
L830.262 224.454
L832.749 223.516
L835.235 222.577
L837.722 221.639
L840.209 220.701
L842.695 219.763
L845.182 218.825
L847.668 217.887
L850.155 216.948
L852.642 216.01
L855.128 215.072
L857.615 214.134
L860.102 213.196
L862.588 212.258
L865.075 211.319
L867.561 210.381
L870.048 209.443
L872.535 208.505
L875.021 207.567
L877.508 206.629
L879.995 205.69
L882.481 204.752
L884.968 203.814
L887.455 202.876
L889.941 201.938
L892.428 200.999
L894.914 200.061
L897.401 199.123
L899.888 198.185
L902.374 197.247
L904.861 196.309
L907.348 195.37
L909.834 194.432
L912.321 193.494
L914.807 192.556
L917.294 191.618
L919.781 190.68
L922.267 189.741
L924.754 188.803
L927.241 187.865
L929.727 186.927
L932.214 185.989
L934.701 185.051
L937.187 184.112
L939.674 183.174
L942.16 182.236
L944.647 181.298
L947.134 180.36
L949.62 179.422
L952.107 178.483
L954.594 177.545
L957.08 176.607
L959.567 175.669
L962.053 174.731
L964.54 173.793
L967.027 172.854
L969.513 171.916
L972 170.978" style="fill:none;stroke:#4c72b0;stroke-linecap:round;stroke-width:2.625;"/>
   </g>
   <g id="patch_13">
    <path d="
M725.824 108
L972 108" style="fill:none;"/>
   </g>
   <g id="patch_14">
    <path d="
M972 317.25
L972 108" style="fill:none;"/>
   </g>
   <g id="patch_15">
    <path d="
M725.824 317.25
L972 317.25" style="fill:none;"/>
   </g>
   <g id="patch_16">
    <path d="
M725.824 317.25
L725.824 108" style="fill:none;"/>
   </g>
  </g>
 </g>
 <defs>
  <clipPath id="p796c768e71">
   <rect height="209.25" width="246.176470588" x="135.0" y="108.0"/>
  </clipPath>
  <clipPath id="pd8ed550d8a">
   <rect height="209.25" width="246.176470588" x="725.823529412" y="108.0"/>
  </clipPath>
  <clipPath id="p8f0a1a9076">
   <rect height="209.25" width="246.176470588" x="430.411764706" y="108.0"/>
  </clipPath>
 </defs>
</svg>
